<svg width="1258" height="33" viewBox="0 0 1258 33" fill="none" xmlns="http://www.w3.org/2000/svg">
<path d="M19.2721 26.7498V21.1895H13.2168C11.5701 21.1895 10.0448 22.0539 9.20137 23.4652L7.23828 26.7498H19.2721Z" fill="#63D2F9"/>
<path d="M0 5.38867V10.9491H15.949L19.2722 5.38867H0Z" fill="#4E5EE4"/>
<path d="M7.63304 14.0789L0.0175781 26.7499H6.50577L15.6125 11.5908H12.0297C10.2276 11.5908 8.55802 12.5356 7.63304 14.0789Z" fill="#63B0F9"/>
<path d="M33.0764 21.4131C29.8138 21.4131 27.4131 19.0416 27.4131 15.8592C27.4131 12.7074 29.8292 10.3054 33.0918 10.3054C36.3543 10.3054 38.7704 12.738 38.7704 15.8592C38.7704 19.011 36.3389 21.4131 33.0764 21.4131ZM33.0918 19.47C35.1539 19.47 36.6313 17.94 36.6313 15.8592C36.6313 13.809 35.1539 12.2484 33.0918 12.2484C31.0142 12.2484 29.5368 13.809 29.5368 15.8592C29.5368 17.94 31.0142 19.47 33.0918 19.47ZM40.9552 24.7332V13.1664H42.925V14.1915H43.0327C43.2482 13.8549 43.9869 12.9675 45.4643 12.9675C47.7265 12.9675 49.2808 14.6505 49.2808 17.1597C49.2808 19.6689 47.7419 21.4131 45.5258 21.4131C44.0946 21.4131 43.3251 20.6175 43.0635 20.1738H42.9558V24.7332H40.9552ZM45.0795 19.6077C46.3722 19.6077 47.2494 18.6132 47.2494 17.1903C47.2494 15.7215 46.3722 14.7729 45.0641 14.7729C43.7406 14.7729 42.9096 15.8286 42.9096 17.1903C42.9096 18.6897 43.833 19.6077 45.0795 19.6077ZM55.0051 21.4131C52.6197 21.4131 50.9269 19.6383 50.9269 17.2362C50.9269 14.6964 52.6351 12.9675 55.0051 12.9675C57.6059 12.9675 59.0217 14.88 59.0217 17.1444V17.7717H52.866C52.9275 18.9957 53.7739 19.8219 55.0667 19.8219C56.0516 19.8219 56.8057 19.3629 57.0827 18.705H58.9448C58.5447 20.3421 57.0981 21.4131 55.0051 21.4131ZM52.8968 16.3641H57.1134C57.0211 15.2778 56.1747 14.5587 55.0051 14.5587C53.8817 14.5587 53.0199 15.3543 52.8968 16.3641ZM61.1757 21.2142V13.1664H63.084V14.1456H63.1917C63.5149 13.5489 64.3151 12.9675 65.4693 12.9675C67.2853 12.9675 68.3933 14.2374 68.3933 15.951V21.2142H66.3927V16.4712C66.3927 15.492 65.7617 14.8341 64.8383 14.8341C63.8688 14.8341 63.1763 15.5991 63.1763 16.6089V21.2142H61.1757ZM70.3779 21.2142V19.3935L75.9797 12.3708V12.2637H70.578V10.5043H78.5343V12.3096L72.9326 19.3323V19.4547H78.5651V21.2142H70.3779ZM83.9816 21.4131C81.5962 21.4131 79.9034 19.6383 79.9034 17.2362C79.9034 14.6964 81.6116 12.9675 83.9816 12.9675C86.5824 12.9675 87.9982 14.88 87.9982 17.1444V17.7717H81.8425C81.904 18.9957 82.7504 19.8219 84.0431 19.8219C85.0281 19.8219 85.7821 19.3629 86.0592 18.705H87.9213C87.5211 20.3421 86.0745 21.4131 83.9816 21.4131ZM81.8732 16.3641H86.0899C85.9976 15.2778 85.1512 14.5587 83.9816 14.5587C82.8582 14.5587 81.9964 15.3543 81.8732 16.3641ZM90.1522 24.7332V13.1664H92.122V14.1915H92.2297C92.4452 13.8549 93.1839 12.9675 94.6612 12.9675C96.9235 12.9675 98.4778 14.6505 98.4778 17.1597C98.4778 19.6689 96.9389 21.4131 94.7228 21.4131C93.2916 21.4131 92.5221 20.6175 92.2605 20.1738H92.1528V24.7332H90.1522ZM94.2765 19.6077C95.5692 19.6077 96.4464 18.6132 96.4464 17.1903C96.4464 15.7215 95.5692 14.7729 94.2611 14.7729C92.9376 14.7729 92.1066 15.8286 92.1066 17.1903C92.1066 18.6897 93.03 19.6077 94.2765 19.6077ZM100.632 24.7332V13.1664H102.602V14.1915H102.709C102.925 13.8549 103.663 12.9675 105.141 12.9675C107.403 12.9675 108.957 14.6505 108.957 17.1597C108.957 19.6689 107.418 21.4131 105.202 21.4131C103.771 21.4131 103.002 20.6175 102.74 20.1738H102.632V24.7332H100.632ZM104.756 19.6077C106.049 19.6077 106.926 18.6132 106.926 17.1903C106.926 15.7215 106.049 14.7729 104.741 14.7729C103.417 14.7729 102.586 15.8286 102.586 17.1903C102.586 18.6897 103.51 19.6077 104.756 19.6077ZM114.682 21.4131C112.296 21.4131 110.604 19.6383 110.604 17.2362C110.604 14.6964 112.312 12.9675 114.682 12.9675C117.282 12.9675 118.698 14.88 118.698 17.1444V17.7717H112.543C112.604 18.9957 113.451 19.8219 114.743 19.8219C115.728 19.8219 116.482 19.3629 116.759 18.705H118.621C118.221 20.3421 116.775 21.4131 114.682 21.4131ZM112.573 16.3641H116.79C116.698 15.2778 115.851 14.5587 114.682 14.5587C113.558 14.5587 112.696 15.3543 112.573 16.3641ZM122.822 21.2142C121.406 21.2142 120.606 20.3727 120.606 18.9498V9.73926H122.607V18.7662C122.607 19.2252 122.837 19.47 123.253 19.47H123.576V21.2142H122.822ZM126.5 12.0954C125.776 12.0954 125.268 11.6517 125.268 10.9327C125.268 10.2442 125.776 9.78516 126.5 9.78516C127.223 9.78516 127.731 10.2442 127.731 10.9327C127.731 11.6517 127.223 12.0954 126.5 12.0954ZM125.499 21.2142V13.1664H127.5V21.2142H125.499ZM129.931 21.2142V13.1664H131.839V14.1456H131.947C132.27 13.5489 133.07 12.9675 134.224 12.9675C136.04 12.9675 137.148 14.2374 137.148 15.951V21.2142H135.148V16.4712C135.148 15.492 134.517 14.8341 133.594 14.8341C132.624 14.8341 131.931 15.5991 131.931 16.6089V21.2142H129.931Z" fill="#282846"/>
<path d="M245.912 18.7542H254.974L250.182 11.0447L241.388 24.9838H237.385L248.082 8.24002C248.547 7.5635 249.323 7.15479 250.182 7.15479C251.014 7.15479 251.789 7.54942 252.24 8.21184L262.98 24.9838H258.977L257.088 21.869H247.913L245.912 18.7542ZM287.489 21.869V7.32391H284.093V23.2925C284.093 23.7294 284.262 24.1522 284.586 24.4764C284.91 24.8006 285.347 24.9838 285.826 24.9838H301.316L303.317 21.869H287.489ZM231.296 19.2616C234.594 19.2616 237.272 16.5978 237.272 13.2998C237.272 10.0018 234.594 7.32391 231.296 7.32391H216.437V24.9838H219.832V10.4387H231.071C232.649 10.4387 233.918 11.7213 233.918 13.2998C233.918 14.8783 232.649 16.1609 231.071 16.1609L221.495 16.1468L231.634 24.9838H236.567L229.746 19.2616H231.296ZM195.535 24.9838C190.66 24.9838 186.704 21.0375 186.704 16.1609C186.704 11.2843 190.66 7.32391 195.535 7.32391H205.8C210.677 7.32391 214.63 11.2843 214.63 16.1609C214.63 21.0375 210.677 24.9838 205.8 24.9838H195.535ZM205.572 21.869C208.73 21.869 211.288 19.318 211.288 16.1609C211.288 13.0038 208.73 10.4387 205.572 10.4387H195.762C192.605 10.4387 190.046 13.0038 190.046 16.1609C190.046 19.318 192.605 21.869 195.762 21.869H205.572ZM270.069 24.9838C265.192 24.9838 261.232 21.0375 261.232 16.1609C261.232 11.2843 265.192 7.32391 270.069 7.32391H282.26L280.273 10.4387H270.295C267.137 10.4387 264.572 13.0038 264.572 16.1609C264.572 19.318 267.137 21.869 270.295 21.869H282.542L280.541 24.9838H270.069ZM311.604 21.869C308.997 21.869 306.784 20.1213 306.108 17.7112H320.625L322.626 14.5965H306.108C306.784 12.2005 308.997 10.4387 311.604 10.4387H321.569L323.584 7.32391H311.379C306.502 7.32391 302.542 11.2843 302.542 16.1609C302.542 21.0375 306.502 24.9838 311.379 24.9838H321.851L323.852 21.869H311.604Z" fill="#EA1B22"/>
<path d="M509.385 11.7537C510.46 12.6236 509.322 13.9996 508.373 13.3037C507.202 12.5604 504.545 12.2124 504.213 13.8572C503.786 16.4512 510.666 14.9645 510.555 19.1715C510.445 23.189 504.624 23.2838 502.441 21.4807C501.92 21.0538 501.935 20.3578 502.22 19.9307C502.631 19.5196 503.09 19.3772 503.628 19.82C504.925 20.7057 508.262 21.37 508.499 19.1241C508.294 16.7833 501.714 18.1909 502.204 13.6991C502.568 10.6307 507.202 10.0771 509.385 11.7537ZM499.009 12.3705V18.096C499.009 24.0113 489.471 24.0113 489.471 18.096V12.3705C489.471 10.9471 491.543 10.8838 491.543 12.3705V18.096C491.543 21.2118 496.937 21.4017 496.937 18.096V12.3705C496.937 10.9628 499.009 10.8521 499.009 12.3705ZM433.701 10.9313C436.469 11.0735 439.363 12.9873 439.363 16.7359C439.363 20.4843 436.469 22.4298 433.701 22.4298C430.775 22.5563 427.738 20.6108 427.738 16.7359C427.738 12.845 430.775 10.9313 433.701 10.9313ZM447.636 11.3266C451.653 11.3266 452.475 16.7042 449.122 18.0486L451.226 20.6108C452.048 21.8288 450.404 22.9991 449.455 21.7971L447.066 18.3808H444.583V21.2435C444.583 22.6195 442.48 22.667 442.48 21.2752V12.2915C442.48 11.7378 442.907 11.3266 443.429 11.3266H447.636ZM414.863 11.1844C415.322 11.1844 415.591 11.4532 415.86 11.7537L419.339 16.4512L422.946 11.5797C423.467 10.9313 424.749 11.1844 424.749 12.2756V21.1803C424.749 21.8761 424.306 22.2716 423.8 22.2716C423.23 22.2716 422.787 21.8761 422.787 21.1803V15.3282L420.162 18.6497C419.592 19.3455 418.881 19.3455 418.359 18.6497L416.002 15.3282V21.1803C416.002 21.8761 415.433 22.2716 414.863 22.2716C414.357 22.2716 413.914 21.8761 413.914 21.1803V12.2756C413.914 11.4533 414.61 11.1844 414.863 11.1844ZM459.103 11.1844C461.159 11.1844 463.01 12.5604 463.01 15.2017C463.01 17.7006 461.159 19.0925 459.103 19.0925H456.462V21.1803C456.462 21.8761 456.019 22.2716 455.449 22.2716C454.927 22.2716 454.374 21.8761 454.374 21.1803V12.2756C454.374 11.7537 454.785 11.1844 455.449 11.1844H459.103ZM474.208 11.3266C474.762 11.3266 475.189 11.7378 475.189 12.3073V21.291C475.189 21.8445 474.762 22.2716 474.208 22.2716C473.639 22.2716 473.133 21.8445 473.133 21.291V17.8272H467.976V21.291C467.976 21.8445 467.565 22.2716 467.012 22.2716C466.3 22.2716 465.889 21.8445 465.889 21.291V12.3073C465.889 11.7379 466.3 11.3266 467.012 11.3266C467.565 11.3266 467.976 11.7378 467.976 12.3073V15.7553H473.133V12.3073C473.133 11.7379 473.639 11.3266 474.208 11.3266ZM485.217 11.3266C486.672 11.3266 486.64 13.3827 485.217 13.3827H480.662V15.7553H484.647C486.055 15.7553 486.055 17.8272 484.647 17.8272H480.662V20.1996H485.486C486.925 20.1996 487.035 22.2716 485.486 22.2716H479.539C478.985 22.2716 478.558 21.8445 478.558 21.291V12.3073C478.558 11.7379 478.985 11.3266 479.539 11.3266H485.217ZM433.527 12.9873C431.756 12.9873 429.826 14.2369 429.826 16.7359C429.826 19.219 431.756 20.4843 433.527 20.4843C435.346 20.4843 437.291 19.219 437.291 16.7359C437.291 14.2369 435.346 12.9873 433.527 12.9873ZM459.103 13.1772H456.462V17.1155H459.103C460.163 17.1155 461.001 16.1823 461.001 15.2017C461.001 14.0946 460.163 13.1772 459.103 13.1772ZM447.636 13.2404H444.583V16.5619H447.636C449.692 16.5619 449.818 13.2404 447.636 13.2404Z" fill="#3DB5E6"/>
<path d="M401.368 19.6299C399.826 25.8249 394.184 30.2325 387.539 30.2325C380.864 30.2325 375.271 25.5641 373.792 19.3435C375.57 19.3435 377.233 19.3516 378.005 19.3516C378.369 19.3516 378.439 19.3579 378.46 19.3564C379.041 19.3278 379.769 19.1362 380.254 17.9582L382.099 13.1296L386.199 22.9998C386.567 23.7866 387.183 23.7308 387.55 23.7308H387.584C388.301 23.7308 388.612 23.4799 388.884 22.9609L393.515 13.2036L395.094 17.601L395.191 17.8139C395.525 18.5466 395.765 19.2702 396.591 19.3648C396.762 19.3843 398.74 19.3497 401.407 19.3497C401.407 19.3497 401.407 19.3668 401.368 19.6299Z" fill="#3DB5E6"/>
<path d="M401.821 15.9811C401.821 16.0549 401.821 16.2403 401.819 16.2403H401.816H397.559L395.075 9.30196C394.854 8.78596 394.521 8.01241 393.553 8.01241C392.96 8.01241 392.424 8.50193 392.12 9.30978L387.618 19.7392L383.284 9.37304C382.86 8.45236 382.566 8.01936 381.718 8.01936C381.142 8.01936 380.719 8.23161 380.258 9.32228L377.686 16.3433L373.412 16.3388C373.409 16.232 373.408 16.1252 373.408 16.0184C373.408 8.21367 379.735 1.90601 387.54 1.90601C395.344 1.90601 401.821 8.17643 401.821 15.9811Z" fill="#D8292F"/>
<path d="M690.325 14.7924V17.6518H692.334V20.4889C692.34 20.7062 692.33 20.9381 692.3 21.1377L692.283 21.2346C692.28 21.2562 692.276 21.2784 692.271 21.3012L692.255 21.371C692.252 21.3828 692.248 21.3948 692.245 21.4069L692.222 21.4805C692.041 22.0029 691.497 22.6649 690.274 22.6649C688.972 22.6649 688.449 21.9049 688.306 21.371L688.289 21.3012L688.277 21.2346C688.241 21.0158 688.226 20.7424 688.226 20.4889V11.5281C688.226 11.2463 688.242 10.9409 688.293 10.6921L688.328 10.5409C688.33 10.5304 688.333 10.5198 688.336 10.509L688.355 10.4424C688.358 10.431 688.362 10.4195 688.366 10.4078L688.391 10.3367C688.577 9.84156 689.068 9.18217 690.264 9.18217C691.186 9.18217 691.683 9.55819 691.949 9.94683L691.996 10.0198C692.011 10.0441 692.025 10.0683 692.038 10.0924L692.075 10.1644L692.108 10.235L692.136 10.3038L692.16 10.3702L692.181 10.4337L692.198 10.4938L692.212 10.5499L692.223 10.6016C692.229 10.6273 692.233 10.6545 692.238 10.6829L692.249 10.7706C692.251 10.7856 692.253 10.8008 692.254 10.816L692.266 10.9537L692.274 11.0857L692.281 11.2656L692.283 11.3579V12.446H697.221L697.222 11.7686L697.225 11.5264L697.224 11.3386L697.22 11.12L697.216 11.0022L697.207 10.8188L697.194 10.6308L697.183 10.5052C696.849 7.19501 694.361 5.92145 691.334 5.69984L691.131 5.68662L690.927 5.67644C690.825 5.67211 690.722 5.66889 690.619 5.66676L690.411 5.66394C690.377 5.66359 690.342 5.66359 690.307 5.66359L690.099 5.66501C690.064 5.66548 690.03 5.66608 689.995 5.66679L689.789 5.67256L689.584 5.6813L689.381 5.69309L689.18 5.70797C689.113 5.71346 689.046 5.71947 688.98 5.72603L688.782 5.74731C688.749 5.75113 688.716 5.75509 688.684 5.75918L688.489 5.78543C688.037 5.8506 687.601 5.94344 687.189 6.06757L687.014 6.1227C685.1 6.75037 683.71 8.08486 683.425 10.5052L683.395 10.7738L683.375 10.9818L683.356 11.1999L683.34 11.4169C683.331 11.5587 683.326 11.6923 683.326 11.8027L683.326 20.1515L683.328 20.2552L683.332 20.4127L683.337 20.5231L683.344 20.641L683.352 20.7692L683.364 20.9105L683.386 21.1529L683.404 21.3388C683.681 24.4148 686.013 25.7832 688.865 26.106L689.065 26.1269C689.4 26.1588 689.741 26.1768 690.086 26.1819L690.293 26.1834L690.502 26.1819C690.849 26.1768 691.192 26.1588 691.527 26.1269L691.728 26.106C694.59 25.7832 696.906 24.4148 697.188 21.3388L697.211 21.0676L697.228 20.8381L697.243 20.5809L697.252 20.3594L697.26 20.0458V14.7924H690.325ZM656.278 6.19102H651.319V20.6956C651.327 20.9484 651.319 21.2323 651.276 21.4406L651.261 21.5037L651.243 21.5709C651.237 21.5939 651.229 21.6175 651.221 21.6415L651.195 21.7151C651.008 22.2138 650.532 22.8645 649.392 22.8645C648.323 22.8645 647.835 22.2772 647.63 21.7909L647.6 21.7151C647.596 21.7026 647.591 21.6903 647.587 21.678L647.563 21.6058L647.544 21.5368C647.541 21.5256 647.538 21.5145 647.536 21.5037L647.522 21.4406C647.473 21.2323 647.466 20.9484 647.473 20.6956V6.19102H642.515V20.2455L642.515 20.3584L642.516 20.556L642.523 20.8467L642.537 21.2L642.546 21.3779L642.553 21.4723L642.559 21.5418C642.802 24.142 644.327 25.4955 646.482 26.0618L646.665 26.1078C647.066 26.2035 647.487 26.2732 647.925 26.3197L648.128 26.3396L648.334 26.3562L648.541 26.3697C648.646 26.3756 648.751 26.3804 648.857 26.3841L649.069 26.3899L649.284 26.3928C649.32 26.3932 649.356 26.3932 649.392 26.3932L649.608 26.3917C649.643 26.3912 649.679 26.3906 649.715 26.3899L649.928 26.3841C650.034 26.3804 650.139 26.3756 650.244 26.3697L650.452 26.3562L650.657 26.3396L650.861 26.3197C653.761 26.0117 655.936 24.6914 656.236 21.5418L656.24 21.5105L656.248 21.4279L656.26 21.2634L656.271 21.0642L656.277 20.9203L656.283 20.6995L656.285 20.556L656.284 20.4212L656.281 20.2997C656.28 20.2808 656.279 20.2627 656.278 20.2455V6.19102ZM610.717 6.19102L608.244 21.5171L605.772 6.19102H597.773L597.349 25.7975H602.249L602.382 7.64719L605.753 25.7975H610.725L614.1 7.64719L614.233 25.7975H619.145L618.707 6.19102H610.717ZM581.103 6.19102L577.471 25.7975H582.767L585.504 7.64719L588.175 25.7975H593.435L589.818 6.19102H581.103ZM673.608 21.9765L668.99 6.19102H661.715V25.5931H666.528L666.248 9.30251L671.207 25.5931H678.185V6.19102H673.34L673.608 21.9765ZM629.087 11.2937C629 10.9065 629.025 10.4951 629.07 10.2801C629.083 10.223 629.098 10.1655 629.116 10.1081L629.145 10.022C629.34 9.47849 629.798 8.96792 630.847 8.96792C631.98 8.96792 632.644 9.67385 632.644 10.7333V11.9321H637.477V10.5656C637.477 7.48169 635.459 6.29538 633.302 5.8796L633.125 5.84713L632.947 5.818L632.769 5.79206L632.591 5.76918L632.413 5.7492L632.236 5.73201C632.177 5.72672 632.118 5.72187 632.059 5.71744L631.884 5.70538L631.71 5.69567L631.537 5.68818L631.366 5.68277L631.197 5.6793L630.948 5.67743L630.838 5.67782L630.619 5.68094C630.583 5.68172 630.546 5.68264 630.51 5.68369L630.295 5.69158C630.223 5.69475 630.152 5.69846 630.081 5.70273L629.869 5.71717C626.92 5.94275 624.619 7.15405 624.158 9.99459C624.022 10.8596 623.989 11.6275 624.205 12.6073C624.547 14.2175 625.888 15.3633 627.428 16.3243L627.666 16.4707C627.706 16.4949 627.746 16.519 627.786 16.5429L628.028 16.6854L628.271 16.8255L628.515 16.9636L628.882 17.1671L629.845 17.6948L630.079 17.8245L630.309 17.9538L630.534 18.0829L630.754 18.212C631.803 18.8365 632.644 19.4699 632.947 20.2271C633.114 20.6769 633.077 21.244 632.997 21.6058L632.983 21.6641C632.963 21.7511 632.937 21.8381 632.906 21.9237L632.872 22.0087C632.649 22.529 632.163 22.9725 631.093 22.9725C629.873 22.9725 629.139 22.2711 629.139 21.214L629.137 19.3323H623.934V20.828C623.934 24.3386 626.161 25.8635 628.951 26.3163L629.159 26.3479C629.298 26.3676 629.438 26.3849 629.579 26.3996L629.792 26.4199C630.042 26.4415 630.294 26.4558 630.548 26.4633L630.766 26.4681C630.803 26.4686 630.839 26.469 630.876 26.4693L630.985 26.4697C631.058 26.4697 631.131 26.4692 631.203 26.4681L631.42 26.4634C631.456 26.4623 631.491 26.4611 631.527 26.4598L631.741 26.4503C631.812 26.4465 631.882 26.4423 631.952 26.4374L632.162 26.4213C632.301 26.4094 632.439 26.3952 632.575 26.3788L632.778 26.3524L632.979 26.3225C633.045 26.3119 633.111 26.3008 633.177 26.289L633.372 26.2519C635.733 25.7788 637.49 24.496 637.843 22.0294C637.892 21.6615 637.922 21.3218 637.938 21.0112L637.946 20.8085C637.948 20.7755 637.948 20.7428 637.949 20.7104L637.953 20.5208V20.34L637.95 20.1681L637.944 20.0051L637.936 19.8511C637.935 19.8262 637.933 19.8017 637.931 19.7775L637.921 19.6372L637.908 19.5061L637.895 19.3842L637.873 19.2188L637.851 19.0746L637.822 18.9157L637.809 18.8507C637.468 17.1433 635.973 15.9374 634.313 14.9447L634.075 14.8043L633.835 14.6666L633.594 14.5315L633.232 14.3331L632.752 14.0757L631.934 13.6406L631.598 13.4584C631.561 13.4383 631.524 13.4182 631.488 13.3981L631.273 13.278L631.063 13.1583C630.033 12.561 629.254 11.9744 629.087 11.2937ZM565.323 11.2456C565.234 10.875 565.248 10.4852 565.294 10.2587L565.313 10.1739L565.334 10.09C565.498 9.50124 565.944 8.89441 567.098 8.89441C568.245 8.89441 568.92 9.60713 568.92 10.6751V11.8886H573.811V10.5112C573.811 7.56832 571.98 6.3324 569.934 5.84894L569.756 5.80877C569.607 5.77684 569.457 5.74872 569.306 5.72403L569.126 5.69604L568.946 5.67122L568.766 5.64942L568.586 5.63051C568.526 5.62467 568.466 5.61929 568.407 5.61435L568.229 5.60079L568.052 5.5897L567.876 5.58095L567.703 5.57438L567.531 5.56985L567.277 5.56641H567.193C567.12 5.56641 567.047 5.56692 566.974 5.56795L566.757 5.57262C566.612 5.57679 566.469 5.58307 566.328 5.59153L566.116 5.60587C566.081 5.60854 566.046 5.61134 566.012 5.61429L565.803 5.63363C565.734 5.64064 565.666 5.64822 565.598 5.65637L565.394 5.68256C565.226 5.70584 565.06 5.73276 564.897 5.76345L564.703 5.8021L564.511 5.84442L564.323 5.89046C564.261 5.90644 564.199 5.92304 564.137 5.94028L563.955 5.99391C562.057 6.57733 560.689 7.80092 560.344 9.9241C560.202 10.803 560.177 11.5761 560.383 12.5668C560.746 14.2788 562.224 15.471 563.879 16.4728L564.122 16.6181C564.163 16.6421 564.204 16.6659 564.244 16.6897L564.49 16.8314L564.86 17.0399L565.353 17.3117L566.08 17.7099L566.433 17.9064L566.776 18.1022L566.998 18.2328C567.035 18.2545 567.071 18.2763 567.107 18.2981L567.32 18.4291C568.228 18.998 568.94 19.5839 569.214 20.2709C569.394 20.7176 569.352 21.2845 569.267 21.6581L569.252 21.7185C569.231 21.8045 569.206 21.8905 569.174 21.9752L569.14 22.0594C568.911 22.5889 568.421 23.043 567.338 23.043C566.113 23.043 565.38 22.3295 565.38 21.2578L565.373 19.3711H560.112V20.8703C560.112 25.0786 563.285 26.4618 566.799 26.5657L567.019 26.5706L567.24 26.5722L567.458 26.5706C567.567 26.5691 567.675 26.5663 567.782 26.5624L567.996 26.553C568.102 26.5474 568.208 26.5407 568.313 26.5327L568.522 26.5151L568.728 26.4941C568.797 26.4865 568.865 26.4784 568.933 26.4697L569.135 26.4419C569.202 26.4321 569.268 26.4216 569.334 26.4106L569.531 26.3757C571.976 25.9179 573.799 24.6208 574.166 22.0838C574.216 21.7214 574.248 21.3861 574.266 21.0788L574.275 20.8781L574.281 20.6858C574.283 20.6231 574.283 20.5618 574.284 20.5019L574.283 20.3265L574.28 20.1596L574.274 20.0014L574.266 19.8518L574.256 19.7109L574.244 19.5788L574.225 19.3973L574.205 19.2359L574.177 19.0523L574.145 18.8744C573.806 17.1872 572.356 15.9869 570.724 14.9997L570.484 14.8567C570.444 14.8331 570.404 14.8097 570.363 14.7863L570.121 14.6475L569.877 14.5113L569.633 14.3775L569.39 14.2458L568.315 13.6753L567.971 13.4911L567.748 13.3694L567.53 13.2484L567.319 13.1278C567.284 13.1077 567.25 13.0877 567.215 13.0676L567.014 12.9474C566.126 12.4064 565.474 11.8652 565.323 11.2456Z" fill="#1428A0"/>
<path d="M749.659 23.3182C748.63 23.3204 747.68 22.7689 747.172 21.8747C746.67 20.9859 746.7 19.8932 747.25 19.0334L752.372 10.9891C752.906 10.1089 753.872 9.58399 754.901 9.61508C755.929 9.63972 756.864 10.2162 757.348 11.1237C757.826 12.0266 757.766 13.113 757.194 13.9606L752.075 22.0049C751.547 22.8271 750.636 23.3225 749.659 23.3182Z" fill="#F62B54"/>
<path d="M758.446 23.3178C757.413 23.3178 756.462 22.7654 755.963 21.8776C755.463 20.9913 755.493 19.9013 756.041 19.0439L761.154 11.018C761.68 10.1252 762.649 9.58798 763.685 9.61472C764.727 9.63751 765.671 10.2203 766.148 11.132C766.623 12.0436 766.553 13.1365 765.964 13.982L760.852 22.0078C760.326 22.8265 759.419 23.3203 758.446 23.3178Z" fill="#FFCC00"/>
<path d="M767.036 23.3861C768.493 23.3861 769.673 22.2301 769.673 20.8041C769.673 19.3781 768.493 18.2222 767.036 18.2222C765.579 18.2222 764.399 19.3781 764.399 20.8041C764.399 22.2301 765.579 23.3861 767.036 23.3861Z" fill="#00CA72"/>
<path d="M881.607 18.3707C882.404 18.3707 882.88 18.9373 882.88 19.8652V23.0451H883.962V19.7925C883.962 18.2144 883.219 17.2995 881.821 17.2995C881.274 17.2995 880.405 17.4493 879.888 18.4554C879.643 17.8508 879.085 17.4297 878.437 17.3592C878.236 17.3225 878.032 17.3105 877.829 17.3234C877.384 17.3592 876.592 17.636 876.295 18.2633V17.42H875.212V23.0451H876.295V20.0095C876.295 18.8287 877.068 18.3707 877.842 18.3707C878.567 18.3707 879.043 18.9253 879.043 19.8533V23.0451H880.12V20.0095C880.12 19.0697 880.684 18.3599 881.607 18.3707ZM871.237 22.1053C871.732 22.1161 872.209 21.9186 872.555 21.5604C872.903 21.2023 873.087 20.715 873.069 20.2147C873.069 19.0816 872.235 18.3707 871.237 18.3707C870.237 18.3707 869.405 19.0816 869.405 20.2147C869.385 20.7139 869.57 21.2001 869.915 21.5572C870.26 21.9153 870.735 22.1139 871.228 22.1053H871.237ZM871.237 23.1602C869.654 23.1602 868.334 21.9913 868.334 20.2081C868.334 18.425 869.654 17.293 871.237 17.293C872.819 17.293 874.151 18.425 874.151 20.2081C874.151 21.9913 872.812 23.1656 871.229 23.1656L871.237 23.1602ZM862.761 20.2081L862.75 20.2147C862.75 18.4315 864.105 17.2995 865.699 17.293C866.508 17.2774 867.286 17.6055 867.84 18.196L867.019 18.8949C866.667 18.5493 866.192 18.3586 865.699 18.3653C864.7 18.3653 863.832 19.0762 863.832 20.2081C863.832 20.9733 864.287 21.6625 864.984 21.9555C865.682 22.2485 866.485 22.0857 867.019 21.5452L867.852 22.2442C867.296 22.8408 866.514 23.1737 865.699 23.1602C864.117 23.1602 862.761 21.9913 862.761 20.2081ZM859.295 21.9653C859.293 21.7666 859.37 21.5752 859.508 21.4332C859.647 21.2911 859.837 21.21 860.035 21.2077C860.234 21.21 860.424 21.2911 860.562 21.4332C860.701 21.5752 860.778 21.7666 860.776 21.9653C860.756 22.3606 860.431 22.672 860.035 22.6761C859.64 22.672 859.315 22.3606 859.295 21.9653Z" fill="#333333"/>
<path d="M862.256 10.2695H858.402L855.701 17.2339L853.014 10.2695H849.16L853.845 21.2745L850.931 28.5504H854.757L862.256 10.2695ZM838.818 16.3906C838.818 18.1488 840.355 19.3058 841.864 19.3058C843.348 19.3058 844.806 18.2292 844.806 16.3896C844.806 14.55 843.348 13.4723 841.864 13.4723C840.355 13.4723 838.818 14.6303 838.818 16.3896V16.3906ZM844.806 22.5356V21.1432C844.024 22.3262 842.201 22.7733 841.265 22.7733C838.168 22.7733 835.069 20.3314 835.069 16.3896C835.069 12.4488 838.167 10.0069 841.265 10.0069C842.046 10.0069 843.869 10.2673 844.806 11.6348V10.2739H848.398V22.5378L844.806 22.5367V22.5356ZM834.047 22.5356H830.455V21.0119C829.854 22.1406 828.399 22.7983 826.888 22.7983C823.764 22.7983 821.004 20.3032 821.004 16.4395C821.004 12.5031 823.764 10.0047 826.888 10.0047C828.397 10.0047 829.857 10.6342 830.455 11.764V3.58838H834.047V22.5356ZM830.376 16.3624C830.376 14.5239 829.049 13.4462 827.566 13.4462C826.029 13.4462 824.752 14.6021 824.752 16.3624C824.752 18.1792 826.029 19.3297 827.564 19.3297C829.076 19.3318 830.376 18.1228 830.376 16.3624ZM812.122 16.0455C812.122 14.181 813.085 13.5504 814.361 13.5504C815.584 13.5504 816.469 14.3644 816.469 15.9923V22.5335H820.088V15.2055C820.088 11.713 818.369 10.0047 815.635 10.0047C814.203 10.0047 812.772 10.8187 812.121 12.0538V10.2695H808.504V22.5335H812.122V16.0455ZM801.157 22.744C797.721 22.744 794.854 20.2229 794.854 16.3613C794.854 12.4977 797.717 10.0014 801.157 10.0014C804.596 10.0014 807.484 12.4977 807.484 16.3613C807.484 20.225 804.593 22.7451 801.157 22.7451V22.744ZM801.157 19.1734C802.665 19.1734 803.917 18.0685 803.917 16.3624C803.917 14.7073 802.666 13.5775 801.157 13.5775C800.422 13.566 799.715 13.8568 799.201 14.3817C798.684 14.9094 798.403 15.6241 798.423 16.3624C798.424 18.0707 799.673 19.1734 801.157 19.1734ZM788.368 13.5515C789.434 13.5515 790.372 14.3926 790.372 15.9934V22.5356H793.964V15.5702C793.964 11.8671 792.164 10.0025 789.278 10.0025C788.421 10.0025 786.806 10.263 785.634 12.1818C784.956 10.7633 783.655 10.0275 781.732 10.0275C780.368 10.0206 779.126 10.8116 778.556 12.0505V10.2706H774.936V22.5346H778.553V16.0455C778.553 14.181 779.569 13.5504 780.662 13.5504C781.704 13.5504 782.639 14.3644 782.666 15.9142V22.5346H786.285V16.0455C786.285 14.2624 787.223 13.5526 788.368 13.5526V13.5515Z" fill="#333333"/>
<path d="M958.264 17.0697L958.282 17.0712L960.178 17.2693C960.311 17.2837 960.433 17.3486 960.52 17.4502L960.534 17.4674L960.516 17.4764C960.604 17.5882 960.643 17.7313 960.624 17.8726C960.21 21.1654 958.649 24.2071 956.216 26.4638C953.691 28.8055 950.375 30.1065 946.931 30.1065C945.259 30.1092 943.6 29.8013 942.041 29.1986L941.956 29.1654C941.828 29.1182 941.725 29.0212 941.671 28.8971L941.663 28.8773C941.61 28.7537 941.607 28.6147 941.654 28.4894L942.402 26.6639C942.504 26.4058 942.791 26.2758 943.051 26.3673L943.068 26.3737C946.892 27.8505 951.224 27.0188 954.23 24.2305C956.143 22.4725 957.377 20.0975 957.715 17.5214C957.751 17.2554 957.982 17.0619 958.246 17.0689L958.264 17.0697ZM1003.03 9.32205C1004.65 9.32205 1005.92 9.81521 1006.72 10.7623L1006.75 10.7944V9.99294C1006.76 9.76923 1006.93 9.58842 1007.15 9.56659L1007.17 9.56517H1009.33C1009.55 9.58051 1009.73 9.75517 1009.75 9.97502L1009.75 9.99294V21.9656C1009.82 23.6539 1009.3 25.3139 1008.28 26.662C1007.12 28.0758 1005.35 28.7917 1003.03 28.7917C999.811 28.7917 997.267 26.752 996.848 23.8387C996.827 23.6284 996.955 23.4328 997.155 23.3669L997.172 23.3614L999.28 22.8661C999.291 22.8637 999.302 22.8616 999.313 22.86C999.544 22.8261 999.759 22.9861 999.793 23.2174C999.985 24.8515 1001.39 26.0707 1003.03 26.0315C1005.53 26.0315 1006.7 24.765 1006.72 22.1182L1006.72 22.0376V20.9885C1005.79 22.0361 1004.44 22.6151 1003.03 22.569C999.451 22.569 996.853 19.7863 996.853 15.959C996.82 14.237 997.426 12.5638 998.555 11.2627C999.701 10.0034 1001.33 9.29679 1003.03 9.32205ZM938.124 23.8837L938.151 23.8835L938.178 23.8837C939.038 23.8936 939.731 24.5892 939.74 25.4464L939.74 25.4732C939.74 25.4821 939.74 25.4911 939.74 25.5C939.725 26.3777 939.002 27.0771 938.124 27.0622C937.246 27.0472 936.547 26.3237 936.562 25.446C936.576 24.5862 937.271 23.8974 938.124 23.8837ZM1040.37 9.15546L1040.48 9.15627C1044.33 9.20948 1046.72 11.8914 1046.72 16.1841C1046.72 16.4112 1046.71 16.6382 1046.68 16.864C1046.66 17.0717 1046.49 17.2319 1046.29 17.2417L1046.27 17.2422H1037.11C1037.17 19.1658 1038.76 20.6877 1040.68 20.6598C1042.17 20.7535 1043.53 19.8051 1043.96 18.3725C1044.04 18.1668 1044.26 18.0562 1044.47 18.1152L1044.49 18.1203L1046.31 18.7642C1046.42 18.7967 1046.5 18.8683 1046.54 18.9624L1046.55 18.9803C1046.6 19.0795 1046.61 19.1947 1046.58 19.3C1045.73 21.814 1043.33 23.4775 1040.68 23.3975C1038.94 23.4148 1037.27 22.7354 1036.04 21.5108C1034.69 20.0932 1033.97 18.1925 1034.04 16.2382C1034.04 11.8474 1037.2 9.2086 1040.28 9.15626L1040.37 9.15546ZM988.545 9.15546H988.55C992.471 9.15546 994.907 11.8481 994.907 16.1841C994.907 16.4112 994.895 16.6382 994.871 16.864C994.853 17.0728 994.682 17.2341 994.475 17.2419L994.457 17.2422H985.299C985.355 19.1711 986.953 20.6952 988.883 20.6598C990.375 20.7552 991.735 19.8062 992.161 18.3725C992.237 18.1652 992.46 18.0538 992.671 18.115L992.688 18.1203L994.516 18.7642C994.623 18.7987 994.709 18.8774 994.754 18.9803C994.797 19.0826 994.797 19.1977 994.754 19.3C993.906 21.8124 991.515 23.4755 988.865 23.3975C987.123 23.4172 985.446 22.7376 984.209 21.5108C982.863 20.0921 982.145 18.1922 982.214 16.2382C982.214 11.803 985.434 9.15546 988.545 9.15546ZM974.677 9.15091C976.437 9.15091 977.86 9.57868 978.914 10.4206C979.626 10.9884 980.154 11.7546 980.431 12.6225L980.432 12.626C980.468 12.7756 980.38 12.9263 980.234 12.9697L980.22 12.9737L978.036 13.6942C977.939 13.7325 977.831 13.7325 977.734 13.6942C977.651 13.6555 977.589 13.5834 977.563 13.4961L977.551 13.4531C977.352 12.742 976.702 11.6004 974.677 11.6004C973.236 11.6004 972.371 12.4289 972.371 13.2304L972.372 13.2621C972.383 13.7833 972.666 14.4375 973.909 14.6862L973.947 14.6937L976.352 15.144C979.009 15.6789 980.54 17.1229 980.57 19.1353L980.571 19.1964L980.562 19.1605L980.561 19.2215C980.523 21.2388 978.571 23.3614 974.978 23.3614C970.768 23.3614 969.116 20.9795 968.81 19.5747C968.79 19.4277 968.879 19.2889 969.02 19.2457L969.035 19.2415L971.286 18.5391C971.326 18.5325 971.368 18.5325 971.408 18.5391C971.465 18.538 971.522 18.5502 971.573 18.5744L971.592 18.5841C971.675 18.6237 971.736 18.6979 971.759 18.7866C972.043 20.1375 973.263 20.9435 975.019 20.9435C976.653 20.9435 977.396 20.088 977.396 19.3135C977.396 18.5476 976.749 17.9798 975.633 17.7453L975.595 17.7376L973.069 17.2468C970.714 16.801 969.247 15.3376 969.247 13.433C969.247 11.1141 971.737 9.15091 974.677 9.15091ZM1065.49 5.40019H1067.46C1067.69 5.41413 1067.87 5.60243 1067.88 5.83306L1067.88 5.85044V9.54717H1070.25C1070.48 9.56336 1070.66 9.75083 1070.67 9.97973L1070.67 9.99742V11.9606L1070.67 11.9777C1070.66 12.1978 1070.48 12.3766 1070.26 12.3878L1070.25 12.3884H1067.88V18.9578C1067.88 20.0474 1068.31 20.4977 1069.42 20.4977C1069.65 20.4938 1069.87 20.4767 1070.1 20.4466L1070.18 20.4346C1070.3 20.4139 1070.43 20.4485 1070.52 20.5293C1070.61 20.6081 1070.66 20.7165 1070.66 20.8318L1070.67 20.8535V22.704C1070.67 22.8926 1070.54 23.0597 1070.36 23.1138C1069.85 23.259 1069.31 23.3318 1068.77 23.3306L1068.7 23.3299C1066.35 23.3299 1064.88 21.8338 1064.85 19.4141L1064.85 19.3405V12.4154H1062.8C1062.58 12.4022 1062.4 12.227 1062.38 12.0057L1062.38 11.9876V10.0154C1062.38 9.78275 1062.56 9.58911 1062.79 9.56654L1062.8 9.56517L1063.35 9.5651L1063.41 9.56405C1064.06 9.54558 1065.04 9.28499 1065.06 7.84979L1065.06 7.80457V5.85044C1065.06 5.61777 1065.24 5.42414 1065.47 5.40156L1065.49 5.40019ZM1027.24 9.15346L1027.3 9.15546H1027.29C1029.61 9.15546 1031.95 10.7706 1032 14.298L1032 14.4055V22.7446C1031.99 22.9683 1031.81 23.149 1031.59 23.1709L1031.57 23.1723H1029.42C1029.19 23.1591 1029.01 22.9839 1028.99 22.7626L1028.99 22.7446V14.6757L1028.99 14.6136C1028.98 13.5855 1028.63 11.9336 1026.51 11.9336C1024.95 11.9336 1023.83 13.1516 1023.81 14.9235L1023.81 14.9774V22.7446C1023.8 22.9683 1023.63 23.149 1023.4 23.1709L1023.39 23.1723H1021.2C1020.98 23.1591 1020.8 22.9839 1020.78 22.7626L1020.78 22.7446V14.6757L1020.78 14.6136C1020.77 13.5855 1020.42 11.9336 1018.3 11.9336C1016.67 11.9336 1015.57 13.1427 1015.55 14.9495L1015.55 15.0044V22.7446C1015.54 22.9683 1015.36 23.149 1015.14 23.1709L1015.12 23.1723H1012.97C1012.75 23.157 1012.57 22.9823 1012.55 22.7625L1012.55 22.7446V9.96591C1012.56 9.74378 1012.73 9.5636 1012.95 9.53973L1012.97 9.53814H1015.04C1015.27 9.5513 1015.45 9.72656 1015.47 9.94787L1015.47 9.96591V10.7359C1016.4 9.71213 1017.73 9.13693 1019.11 9.15546C1020.72 9.10843 1022.22 9.95687 1023 11.3572C1023.93 9.93081 1025.54 9.09635 1027.24 9.15346ZM1059.54 10.7448C1060.37 11.8334 1060.79 13.1723 1060.75 14.537L1060.75 14.5946V22.7446C1060.74 22.9667 1060.56 23.1469 1060.34 23.1708L1060.33 23.1723H1058.14C1057.92 23.1591 1057.74 22.9839 1057.72 22.7626L1057.72 22.7446V15.0315C1057.72 13.0142 1056.77 11.9876 1054.97 11.9876C1054.17 11.9619 1053.41 12.3163 1052.92 12.9422C1052.44 13.6292 1052.2 14.4491 1052.22 15.284L1052.22 15.3331V22.7446C1052.21 22.9683 1052.03 23.149 1051.81 23.1709L1051.79 23.1723H1049.62C1049.39 23.1591 1049.21 22.9839 1049.19 22.7626L1049.19 22.7446V9.95687C1049.2 9.73316 1049.38 9.55243 1049.6 9.53053L1049.62 9.5291H1051.75C1051.97 9.54444 1052.14 9.71918 1052.16 9.93896L1052.16 9.95687V10.8574C1053.08 9.75059 1054.45 9.12341 1055.88 9.15546C1057.28 9.09569 1058.63 9.68178 1059.54 10.7448ZM934.04 17.616H949.543C949.828 17.6184 950.058 17.8465 950.065 18.1292L950.065 18.1473V20.088C950.067 20.3729 949.843 20.6069 949.561 20.6188L949.543 20.6193H934.04C933.755 20.6169 933.525 20.3887 933.518 20.1061V20.088V18.1473V18.1292C933.525 17.8527 933.745 17.6284 934.021 17.6165L934.04 17.616ZM1003.41 12.0146C1001.28 12.0146 999.932 13.5276 999.932 15.959C999.932 18.3905 1001.27 19.8988 1003.41 19.8988C1005.45 19.8988 1006.83 18.3139 1006.83 15.959C1006.83 13.5995 1005.45 12.0146 1003.41 12.0146ZM985.394 14.6454L985.389 14.6937H991.796C991.64 12.982 990.434 11.9146 988.627 11.8934L988.572 11.8931C986.98 11.8672 985.624 13.0316 985.401 14.5978L985.394 14.6454ZM1037.22 14.6454L1037.22 14.6937H1043.63C1043.47 12.982 1042.26 11.9146 1040.46 11.8934L1040.4 11.8931C1038.81 11.8672 1037.45 13.0316 1037.23 14.5978L1037.22 14.6454ZM951.483 2.8066C951.618 2.85502 951.726 2.95573 951.785 3.08578C951.839 3.21707 951.839 3.36427 951.785 3.49549L951.11 5.29663C951.016 5.56369 950.724 5.70463 950.457 5.6118C946.918 4.37706 942.992 5.07861 940.101 7.46237C938.298 8.97081 937.019 11.01 936.444 13.2889C936.385 13.519 936.178 13.6799 935.94 13.6806H935.823L933.968 13.2349C933.83 13.2024 933.711 13.1144 933.639 12.9917H933.63C933.555 12.869 933.534 12.7208 933.572 12.582C934.308 9.66487 935.957 7.059 938.277 5.14348C941.966 2.10613 946.976 1.21969 951.483 2.8066ZM944.617 10.5873H960.12C960.397 10.5896 960.625 10.8069 960.641 11.0821L960.642 11.1006V13.0413C960.644 13.3262 960.42 13.5602 960.138 13.5721L960.12 13.5726H944.617C944.334 13.5678 944.106 13.3405 944.099 13.0596L944.099 13.0413V11.1186C944.096 10.8355 944.318 10.6024 944.598 10.5879L944.617 10.5873ZM955.379 4.66618L955.405 4.66597L955.432 4.6662C956.293 4.67606 956.985 5.37172 956.995 6.22882L956.995 6.25566C956.995 6.26462 956.995 6.27358 956.994 6.28246C956.98 7.16017 956.256 7.85956 955.378 7.84465C954.5 7.82975 953.801 7.10611 953.816 6.22848C953.831 5.3686 954.525 4.67992 955.379 4.66618Z" fill="#4FB58B"/>
<path d="M1120.52 24.3274C1120.36 24.2324 1120.22 23.9995 1120.22 23.8104V8.32749C1120.22 8.1381 1120.36 7.90557 1120.52 7.81035L1134.1 0.0712809C1134.27 -0.0237603 1134.54 -0.0237603 1134.7 0.0712809L1148.28 7.81121C1148.44 7.90625 1148.58 8.13879 1148.58 8.32818V23.8111C1148.58 24 1148.44 24.2327 1148.28 24.3281L1134.7 32.0674C1134.54 32.1624 1134.27 32.1624 1134.1 32.0674L1120.52 24.3274ZM1161.34 9.86843V16.1484H1164.02C1165.97 16.1484 1166.84 15.3544 1166.84 14.0551V11.9617C1166.84 10.6626 1165.97 9.86843 1164.02 9.86843H1161.34ZM1161.34 18.1454V23.7517C1161.34 24.0884 1161.25 24.2327 1160.95 24.2327H1159.62C1159.34 24.2327 1159.23 24.0884 1159.23 23.7517V8.35276C1159.23 8.0159 1159.34 7.87137 1159.62 7.87137H1164.02C1167.75 7.87137 1168.94 9.60376 1168.94 11.5768V14.4402C1168.94 16.413 1167.75 18.1454 1164.02 18.1454H1161.34ZM1173.82 9.86843V15.7634H1176.51C1178.46 15.7634 1179.32 14.9934 1179.32 13.6701V11.9617C1179.32 10.6626 1178.46 9.86843 1176.51 9.86843H1173.82ZM1173.82 17.7605V23.7517C1173.82 24.0884 1173.74 24.2327 1173.43 24.2327H1172.11C1171.83 24.2327 1171.72 24.0884 1171.72 23.7517V8.35276C1171.72 8.0159 1171.83 7.87137 1172.11 7.87137H1176.51C1180.23 7.87137 1181.42 9.60376 1181.42 11.5768V14.0791C1181.42 15.5468 1180.75 16.8702 1178.89 17.4478L1181.49 23.7517C1181.6 24.0404 1181.4 24.2327 1181.1 24.2327H1179.8C1179.5 24.2327 1179.45 24.0404 1179.32 23.7517L1176.88 17.7605H1173.82ZM1192.81 11.7693C1192.81 10.47 1191.9 9.67595 1189.84 9.67595C1187.8 9.67595 1186.89 10.47 1186.89 11.7693V20.3348C1186.89 21.6343 1187.8 22.4281 1189.84 22.4281C1191.9 22.4281 1192.81 21.6343 1192.81 20.3348V11.7693ZM1184.65 11.3843C1184.65 9.41127 1185.93 7.67905 1189.84 7.67905C1193.77 7.67905 1195.05 9.41127 1195.05 11.3843V20.72C1195.05 22.693 1193.77 24.4254 1189.84 24.4254C1185.93 24.4254 1184.65 22.693 1184.65 20.72V11.3843ZM1207.12 7.87137C1207.42 7.87137 1207.55 7.99184 1207.55 8.32853V9.41127C1207.55 9.74813 1207.42 9.86843 1207.12 9.86843H1203.46V23.7517C1203.46 24.0884 1203.35 24.2327 1203.05 24.2327H1201.63C1201.34 24.2327 1201.22 24.0884 1201.22 23.7517V9.86843H1197.56C1197.24 9.86843 1197.13 9.74813 1197.13 9.41127V8.32853C1197.13 7.99184 1197.24 7.87137 1197.56 7.87137H1207.12ZM1217.77 11.7693C1217.77 10.47 1216.86 9.67595 1214.8 9.67595C1212.76 9.67595 1211.85 10.47 1211.85 11.7693V20.3348C1211.85 21.6343 1212.76 22.4281 1214.8 22.4281C1216.86 22.4281 1217.77 21.6343 1217.77 20.3348V11.7693ZM1209.61 11.3843C1209.61 9.41127 1210.89 7.67905 1214.8 7.67905C1218.73 7.67905 1220.01 9.41127 1220.01 11.3843V20.72C1220.01 22.693 1218.73 24.4254 1214.8 24.4254C1210.89 24.4254 1209.61 22.693 1209.61 20.72V11.3843ZM1233.24 23.7756C1233.24 24.0884 1233.15 24.2327 1232.85 24.2327H1231.66C1231.44 24.2327 1231.36 24.1605 1231.27 24.0162L1226.18 14.1034C1225.7 13.2129 1225.44 12.467 1225.4 12.3708V23.7756C1225.4 24.0884 1225.29 24.2327 1225.01 24.2327H1223.8C1223.52 24.2327 1223.41 24.0884 1223.41 23.7756V8.32853C1223.41 8.0159 1223.52 7.87137 1223.8 7.87137H1225.01C1225.18 7.87137 1225.29 7.94355 1225.36 8.06385L1230.58 18.1936C1230.88 18.771 1231.25 19.7333 1231.25 19.7333V8.32853C1231.25 8.0159 1231.38 7.87137 1231.66 7.87137H1232.85C1233.15 7.87137 1233.24 8.0159 1233.24 8.32853V23.7756ZM1236.97 24.2327C1236.68 24.2327 1236.58 24.0884 1236.58 23.7517V8.35276C1236.58 8.0159 1236.68 7.87137 1236.97 7.87137H1244.37C1244.65 7.87137 1244.78 7.99184 1244.78 8.32853V9.41127C1244.78 9.74813 1244.65 9.86843 1244.37 9.86843H1238.68V14.7288H1243.98C1244.28 14.7288 1244.41 14.8491 1244.41 15.1859V16.2206C1244.41 16.5334 1244.28 16.6777 1243.98 16.6777H1238.68V22.2358H1244.61C1244.89 22.2358 1245.02 22.3321 1245.02 22.6688V23.7756C1245.02 24.1126 1244.89 24.2327 1244.61 24.2327H1236.97ZM1256.96 7.87137C1257.24 7.87137 1257.37 7.99184 1257.37 8.32853V9.41127C1257.37 9.74813 1257.24 9.86843 1256.96 9.86843H1253.49V23.7517C1253.49 24.0884 1253.38 24.2327 1253.1 24.2327H1251.76C1251.48 24.2327 1251.37 24.0884 1251.37 23.7517V9.86843H1247.91C1247.6 9.86843 1247.49 9.74813 1247.49 9.41127V8.32853C1247.49 7.99184 1247.6 7.87137 1247.91 7.87137H1256.96Z" fill="#E15B29"/>
</svg>
