<svg width="384" height="276" viewBox="0 0 384 276" fill="none" xmlns="http://www.w3.org/2000/svg">
<g filter="url(#filter0_dddddd_1_711)">
<rect x="56" y="1" width="272" height="150" rx="10" fill="white"/>
</g>
<path d="M75.6629 31.7615L75.6629 21.8175L71.8309 21.8175L71.8309 20.2415L81.1669 20.2415L81.1669 21.8175L77.3349 21.8175L77.3349 31.7615L75.6629 31.7615ZM84.9179 32.0015C84.0539 32.0015 83.3046 31.8068 82.6699 31.4175C82.0352 31.0281 81.5446 30.4921 81.1979 29.8095C80.8566 29.1215 80.6859 28.3295 80.6859 27.4335C80.6859 26.5321 80.8619 25.7401 81.2139 25.0575C81.5659 24.3695 82.0592 23.8361 82.6939 23.4575C83.3286 23.0735 84.0699 22.8815 84.9179 22.8815C85.7819 22.8815 86.5312 23.0761 87.1659 23.4655C87.8006 23.8548 88.2912 24.3908 88.6379 25.0735C88.9846 25.7561 89.1579 26.5428 89.1579 27.4335C89.1579 28.3348 88.9819 29.1295 88.6299 29.8175C88.2832 30.5001 87.7926 31.0361 87.1579 31.4255C86.5232 31.8095 85.7766 32.0015 84.9179 32.0015ZM84.9179 30.4255C85.7446 30.4255 86.3606 30.1481 86.7659 29.5935C87.1766 29.0335 87.3819 28.3135 87.3819 27.4335C87.3819 26.5321 87.1739 25.8121 86.7579 25.2735C86.3472 24.7295 85.7339 24.4575 84.9179 24.4575C84.3579 24.4575 83.8966 24.5855 83.5339 24.8415C83.1712 25.0921 82.9019 25.4415 82.7259 25.8895C82.5499 26.3321 82.4619 26.8468 82.4619 27.4335C82.4619 28.3401 82.6699 29.0655 83.0859 29.6095C83.5019 30.1535 84.1126 30.4255 84.9179 30.4255ZM95.8599 31.7615C95.3159 31.8681 94.7826 31.9135 94.2599 31.8975C93.7372 31.8815 93.2706 31.7801 92.8599 31.5935C92.4492 31.4068 92.1399 31.1135 91.9319 30.7135C91.7452 30.3561 91.6439 29.9935 91.6279 29.6255C91.6172 29.2521 91.6119 28.8308 91.6119 28.3615L91.6119 20.7215L93.2919 20.7215L93.2919 28.2815C93.2919 28.6281 93.2946 28.9295 93.2999 29.1855C93.3106 29.4415 93.3666 29.6575 93.4679 29.8335C93.6599 30.1641 93.9639 30.3535 94.3799 30.4015C94.8012 30.4441 95.2946 30.4255 95.8599 30.3455L95.8599 31.7615ZM89.9559 24.4655L89.9559 23.1215L95.8599 23.1215L95.8599 24.4655L89.9559 24.4655ZM100.122 32.0015C99.4815 32.0015 98.9455 31.8841 98.5135 31.6495C98.0815 31.4095 97.7535 31.0948 97.5295 30.7055C97.3109 30.3108 97.2015 29.8788 97.2015 29.4095C97.2015 28.9721 97.2789 28.5881 97.4335 28.2575C97.5882 27.9268 97.8175 27.6468 98.1215 27.4175C98.4255 27.1828 98.7989 26.9935 99.2415 26.8495C99.6255 26.7375 100.06 26.6388 100.546 26.5535C101.031 26.4681 101.54 26.3881 102.074 26.3135C102.612 26.2388 103.146 26.1641 103.674 26.0895L103.066 26.4255C103.076 25.7481 102.932 25.2468 102.634 24.9215C102.34 24.5908 101.834 24.4255 101.114 24.4255C100.66 24.4255 100.244 24.5321 99.8655 24.7455C99.4869 24.9535 99.2229 25.3001 99.0735 25.7855L97.5135 25.3055C97.7269 24.5641 98.1322 23.9748 98.7295 23.5375C99.3322 23.1001 100.132 22.8815 101.13 22.8815C101.903 22.8815 102.575 23.0148 103.146 23.2815C103.722 23.5428 104.143 23.9588 104.41 24.5295C104.548 24.8121 104.634 25.1108 104.666 25.4255C104.698 25.7401 104.714 26.0788 104.714 26.4415L104.714 31.7615L103.234 31.7615L103.234 29.7855L103.522 30.0415C103.164 30.7028 102.708 31.1961 102.154 31.5215C101.604 31.8415 100.927 32.0015 100.122 32.0015ZM100.418 30.6335C100.892 30.6335 101.3 30.5508 101.642 30.3855C101.983 30.2148 102.258 29.9988 102.466 29.7375C102.674 29.4761 102.81 29.2041 102.874 28.9215C102.964 28.6655 103.015 28.3775 103.026 28.0575C103.042 27.7375 103.05 27.4815 103.05 27.2895L103.594 27.4895C103.066 27.5695 102.586 27.6415 102.154 27.7055C101.722 27.7695 101.33 27.8335 100.978 27.8975C100.631 27.9561 100.322 28.0281 100.05 28.1135C99.8202 28.1935 99.6149 28.2895 99.4335 28.4015C99.2575 28.5135 99.1162 28.6495 99.0095 28.8095C98.9082 28.9695 98.8575 29.1641 98.8575 29.3935C98.8575 29.6175 98.9135 29.8255 99.0255 30.0175C99.1375 30.2041 99.3082 30.3535 99.5375 30.4655C99.7669 30.5775 100.06 30.6335 100.418 30.6335ZM106.951 31.7615L106.951 20.0015L108.623 20.0015L108.623 31.7615L106.951 31.7615ZM114.228 31.7615L114.228 20.2415L118.756 20.2415C119.487 20.2415 120.1 20.3908 120.596 20.6895C121.092 20.9881 121.466 21.3748 121.716 21.8495C121.967 22.3188 122.092 22.8148 122.092 23.3375C122.092 23.9721 121.935 24.5161 121.62 24.9695C121.311 25.4228 120.892 25.7321 120.364 25.8975L120.348 25.5055C121.084 25.6868 121.65 26.0415 122.044 26.5695C122.439 27.0921 122.636 27.7028 122.636 28.4015C122.636 29.0788 122.5 29.6681 122.228 30.1695C121.962 30.6708 121.57 31.0628 121.052 31.3455C120.54 31.6228 119.919 31.7615 119.188 31.7615L114.228 31.7615ZM115.924 30.1695L118.932 30.1695C119.311 30.1695 119.65 30.0975 119.948 29.9535C120.252 29.8095 120.49 29.6041 120.66 29.3375C120.836 29.0655 120.924 28.7428 120.924 28.3695C120.924 28.0228 120.847 27.7108 120.692 27.4335C120.543 27.1508 120.324 26.9295 120.036 26.7695C119.754 26.6041 119.42 26.5215 119.036 26.5215L115.924 26.5215L115.924 30.1695ZM115.924 24.9455L118.732 24.9455C119.042 24.9455 119.319 24.8841 119.564 24.7615C119.815 24.6335 120.012 24.4521 120.156 24.2175C120.306 23.9775 120.38 23.6895 120.38 23.3535C120.38 22.9055 120.231 22.5375 119.932 22.2495C119.634 21.9615 119.234 21.8175 118.732 21.8175L115.924 21.8175L115.924 24.9455ZM126.668 32.0015C126.028 32.0015 125.492 31.8841 125.06 31.6495C124.628 31.4095 124.3 31.0948 124.076 30.7055C123.858 30.3108 123.748 29.8788 123.748 29.4095C123.748 28.9721 123.826 28.5881 123.98 28.2575C124.135 27.9268 124.364 27.6468 124.668 27.4175C124.972 27.1828 125.346 26.9935 125.788 26.8495C126.172 26.7375 126.607 26.6388 127.092 26.5535C127.578 26.4681 128.087 26.3881 128.62 26.3135C129.159 26.2388 129.692 26.1641 130.22 26.0895L129.612 26.4255C129.623 25.7481 129.479 25.2468 129.18 24.9215C128.887 24.5908 128.38 24.4255 127.66 24.4255C127.207 24.4255 126.791 24.5321 126.412 24.7455C126.034 24.9535 125.77 25.3001 125.62 25.7855L124.06 25.3055C124.274 24.5641 124.679 23.9748 125.276 23.5375C125.879 23.1001 126.679 22.8815 127.676 22.8815C128.45 22.8815 129.122 23.0148 129.692 23.2815C130.268 23.5428 130.69 23.9588 130.956 24.5295C131.095 24.8121 131.18 25.1108 131.212 25.4255C131.244 25.7401 131.26 26.0788 131.26 26.4415L131.26 31.7615L129.78 31.7615L129.78 29.7855L130.068 30.0415C129.711 30.7028 129.255 31.1961 128.7 31.5215C128.151 31.8415 127.474 32.0015 126.668 32.0015ZM126.964 30.6335C127.439 30.6335 127.847 30.5508 128.188 30.3855C128.53 30.2148 128.804 29.9988 129.012 29.7375C129.22 29.4761 129.356 29.2041 129.42 28.9215C129.511 28.6655 129.562 28.3775 129.572 28.0575C129.588 27.7375 129.596 27.4815 129.596 27.2895L130.14 27.4895C129.612 27.5695 129.132 27.6415 128.7 27.7055C128.268 27.7695 127.876 27.8335 127.524 27.8975C127.178 27.9561 126.868 28.0281 126.596 28.1135C126.367 28.1935 126.162 28.2895 125.98 28.4015C125.804 28.5135 125.663 28.6495 125.556 28.8095C125.455 28.9695 125.404 29.1641 125.404 29.3935C125.404 29.6175 125.46 29.8255 125.572 30.0175C125.684 30.2041 125.855 30.3535 126.084 30.4655C126.314 30.5775 126.607 30.6335 126.964 30.6335ZM133.498 31.7615L133.498 20.0015L135.17 20.0015L135.17 31.7615L133.498 31.7615ZM140.012 32.0015C139.372 32.0015 138.836 31.8841 138.404 31.6495C137.972 31.4095 137.644 31.0948 137.42 30.7055C137.201 30.3108 137.092 29.8788 137.092 29.4095C137.092 28.9721 137.169 28.5881 137.324 28.2575C137.479 27.9268 137.708 27.6468 138.012 27.4175C138.316 27.1828 138.689 26.9935 139.132 26.8495C139.516 26.7375 139.951 26.6388 140.436 26.5535C140.921 26.4681 141.431 26.3881 141.964 26.3135C142.503 26.2388 143.036 26.1641 143.564 26.0895L142.956 26.4255C142.967 25.7481 142.823 25.2468 142.524 24.9215C142.231 24.5908 141.724 24.4255 141.004 24.4255C140.551 24.4255 140.135 24.5321 139.756 24.7455C139.377 24.9535 139.113 25.3001 138.964 25.7855L137.404 25.3055C137.617 24.5641 138.023 23.9748 138.62 23.5375C139.223 23.1001 140.023 22.8815 141.02 22.8815C141.793 22.8815 142.465 23.0148 143.036 23.2815C143.612 23.5428 144.033 23.9588 144.3 24.5295C144.439 24.8121 144.524 25.1108 144.556 25.4255C144.588 25.7401 144.604 26.0788 144.604 26.4415L144.604 31.7615L143.124 31.7615L143.124 29.7855L143.412 30.0415C143.055 30.7028 142.599 31.1961 142.044 31.5215C141.495 31.8415 140.817 32.0015 140.012 32.0015ZM140.308 30.6335C140.783 30.6335 141.191 30.5508 141.532 30.3855C141.873 30.2148 142.148 29.9988 142.356 29.7375C142.564 29.4761 142.7 29.2041 142.764 28.9215C142.855 28.6655 142.905 28.3775 142.916 28.0575C142.932 27.7375 142.94 27.4815 142.94 27.2895L143.484 27.4895C142.956 27.5695 142.476 27.6415 142.044 27.7055C141.612 27.7695 141.22 27.8335 140.868 27.8975C140.521 27.9561 140.212 28.0281 139.94 28.1135C139.711 28.1935 139.505 28.2895 139.324 28.4015C139.148 28.5135 139.007 28.6495 138.9 28.8095C138.799 28.9695 138.748 29.1641 138.748 29.3935C138.748 29.6175 138.804 29.8255 138.916 30.0175C139.028 30.2041 139.199 30.3535 139.428 30.4655C139.657 30.5775 139.951 30.6335 140.308 30.6335ZM152.746 31.7615L152.746 27.5135C152.746 27.1775 152.716 26.8335 152.658 26.4815C152.604 26.1241 152.498 25.7935 152.338 25.4895C152.183 25.1855 151.962 24.9401 151.674 24.7535C151.391 24.5668 151.02 24.4735 150.562 24.4735C150.263 24.4735 149.98 24.5241 149.714 24.6255C149.447 24.7215 149.212 24.8788 149.01 25.0975C148.812 25.3161 148.655 25.6041 148.538 25.9615C148.426 26.3188 148.37 26.7535 148.37 27.2655L147.33 26.8735C147.33 26.0895 147.476 25.3988 147.77 24.8015C148.063 24.1988 148.484 23.7295 149.034 23.3935C149.583 23.0575 150.247 22.8895 151.026 22.8895C151.623 22.8895 152.124 22.9855 152.53 23.1775C152.935 23.3695 153.263 23.6228 153.514 23.9375C153.77 24.2468 153.964 24.5855 154.098 24.9535C154.231 25.3215 154.322 25.6815 154.37 26.0335C154.418 26.3855 154.442 26.6948 154.442 26.9615L154.442 31.7615L152.746 31.7615ZM146.674 31.7615L146.674 23.1215L148.17 23.1215L148.17 25.6175L148.37 25.6175L148.37 31.7615L146.674 31.7615ZM160.112 32.0015C159.227 32.0015 158.475 31.8041 157.856 31.4095C157.237 31.0148 156.763 30.4735 156.432 29.7855C156.107 29.0975 155.941 28.3161 155.936 27.4415C155.941 26.5508 156.112 25.7641 156.448 25.0815C156.784 24.3935 157.264 23.8548 157.888 23.4655C158.512 23.0761 159.261 22.8815 160.136 22.8815C161.08 22.8815 161.885 23.1161 162.552 23.5855C163.224 24.0548 163.667 24.6975 163.88 25.5135L162.216 25.9935C162.051 25.5081 161.779 25.1321 161.4 24.8655C161.027 24.5935 160.597 24.4575 160.112 24.4575C159.563 24.4575 159.112 24.5881 158.76 24.8495C158.408 25.1055 158.147 25.4575 157.976 25.9055C157.805 26.3535 157.717 26.8655 157.712 27.4415C157.717 28.3321 157.92 29.0521 158.32 29.6015C158.725 30.1508 159.323 30.4255 160.112 30.4255C160.651 30.4255 161.085 30.3028 161.416 30.0575C161.752 29.8068 162.008 29.4495 162.184 28.9855L163.88 29.3855C163.597 30.2281 163.131 30.8761 162.48 31.3295C161.829 31.7775 161.04 32.0015 160.112 32.0015ZM169.107 32.0015C168.249 32.0015 167.494 31.8148 166.843 31.4415C166.198 31.0628 165.694 30.5375 165.331 29.8655C164.974 29.1881 164.795 28.4041 164.795 27.5135C164.795 26.5695 164.971 25.7508 165.323 25.0575C165.681 24.3641 166.177 23.8281 166.811 23.4495C167.446 23.0708 168.185 22.8815 169.027 22.8815C169.907 22.8815 170.657 23.0868 171.275 23.4975C171.894 23.9028 172.355 24.4815 172.659 25.2335C172.969 25.9855 173.091 26.8788 173.027 27.9135L171.355 27.9135L171.355 27.3055C171.345 26.3028 171.153 25.5615 170.779 25.0815C170.411 24.6015 169.849 24.3615 169.091 24.3615C168.254 24.3615 167.625 24.6255 167.203 25.1535C166.782 25.6815 166.571 26.4441 166.571 27.4415C166.571 28.3908 166.782 29.1268 167.203 29.6495C167.625 30.1668 168.233 30.4255 169.027 30.4255C169.55 30.4255 170.001 30.3081 170.379 30.0735C170.763 29.8335 171.062 29.4921 171.275 29.0495L172.915 29.5695C172.579 30.3428 172.07 30.9428 171.387 31.3695C170.705 31.7908 169.945 32.0015 169.107 32.0015ZM166.027 27.9135L166.027 26.6095L172.195 26.6095L172.195 27.9135L166.027 27.9135Z" fill="black"/>
<path d="M78.5497 52.9838L76.7367 52.9838L76.7367 50.6528L78.5497 50.6528L78.5497 52.9838ZM78.5497 62.4268L76.7367 62.4268L76.7367 59.9698L78.5497 59.9698L78.5497 62.4268ZM77.4997 61.1878C77.0844 61.1878 76.6947 61.1598 76.3307 61.1038C75.9714 61.0524 75.6424 60.9848 75.3437 60.9008C75.0497 60.8121 74.7907 60.7211 74.5667 60.6278L74.3777 58.6118C74.7464 58.7844 75.1827 58.9454 75.6867 59.0948C76.1907 59.2394 76.725 59.3118 77.2897 59.3118C77.8357 59.3118 78.223 59.2441 78.4517 59.1088C78.685 58.9688 78.8017 58.7518 78.8017 58.4578L78.8017 58.4088C78.8017 58.2128 78.748 58.0541 78.6407 57.9328C78.538 57.8068 78.363 57.6924 78.1157 57.5898C77.873 57.4824 77.544 57.3681 77.1287 57.2468C76.5034 57.0601 75.9807 56.8524 75.5607 56.6238C75.1454 56.3951 74.835 56.1104 74.6297 55.7698C74.4244 55.4244 74.3217 54.9881 74.3217 54.4608L74.3217 54.3698C74.3217 53.5578 74.597 52.9371 75.1477 52.5078C75.703 52.0784 76.5174 51.8638 77.5907 51.8638C78.2347 51.8638 78.79 51.9198 79.2567 52.0318C79.728 52.1438 80.127 52.2768 80.4537 52.4308L80.6427 54.3068C80.2834 54.1341 79.875 53.9894 79.4177 53.8728C78.965 53.7514 78.4797 53.6908 77.9617 53.6908C77.5977 53.6908 77.3107 53.7211 77.1007 53.7818C76.8954 53.8424 76.7507 53.9311 76.6667 54.0478C76.5827 54.1598 76.5407 54.2974 76.5407 54.4608L76.5407 54.4888C76.5407 54.6568 76.5874 54.8038 76.6807 54.9298C76.7787 55.0558 76.9514 55.1771 77.1987 55.2938C77.4507 55.4104 77.8077 55.5364 78.2697 55.6718C78.8904 55.8538 79.4037 56.0498 79.8097 56.2598C80.2204 56.4651 80.526 56.7334 80.7267 57.0648C80.932 57.3914 81.0347 57.8278 81.0347 58.3738L81.0347 58.4858C81.0347 59.3864 80.743 60.0631 80.1597 60.5158C79.5764 60.9638 78.6897 61.1878 77.4997 61.1878ZM86.1933 60.9988L86.1933 55.8748L86.2773 53.5508L86.1093 53.5508L83.9813 57.6108L83.9813 58.4788L83.1483 57.7298L89.2733 57.7298L89.2733 59.5078L81.8673 59.5078L81.8673 57.4848L84.8213 52.0528L88.2723 52.0528L88.2723 60.9988L86.1933 60.9988ZM92.3584 58.7168C92.3771 58.8288 92.3934 58.9571 92.4074 59.1018C92.4214 59.2418 92.4284 59.3934 92.4284 59.5568C92.4284 60.1588 92.3374 60.7141 92.1554 61.2228C91.9734 61.7361 91.6747 62.2261 91.2594 62.6928L89.7894 62.3498C89.9994 61.9624 90.1581 61.5494 90.2654 61.1108C90.3774 60.6721 90.4334 60.1821 90.4334 59.6408C90.4334 59.4774 90.4287 59.3234 90.4194 59.1788C90.4147 59.0341 90.4031 58.8801 90.3844 58.7168L92.3584 58.7168ZM93.571 60.9988L93.571 59.0248L95.762 57.1208C96.1307 56.7988 96.434 56.5164 96.672 56.2738C96.9147 56.0311 97.0967 55.8001 97.218 55.5808C97.3394 55.3614 97.4 55.1304 97.4 54.8878L97.4 54.8248C97.4 54.6054 97.3534 54.4164 97.26 54.2578C97.1667 54.0944 97.0104 53.9684 96.791 53.8798C96.5764 53.7911 96.2894 53.7468 95.93 53.7468C95.4867 53.7468 95.069 53.8121 94.677 53.9428C94.285 54.0688 93.9374 54.2088 93.634 54.3628L93.823 52.4728C94.0237 52.3654 94.2547 52.2674 94.516 52.1788C94.782 52.0854 95.0784 52.0108 95.405 51.9548C95.7364 51.8988 96.0957 51.8708 96.483 51.8708C97.5284 51.8708 98.3147 52.1041 98.842 52.5708C99.3694 53.0374 99.633 53.6908 99.633 54.5308L99.633 54.6288C99.633 55.0674 99.5654 55.4618 99.43 55.8118C99.2947 56.1618 99.0847 56.5024 98.8 56.8338C98.52 57.1604 98.1584 57.5174 97.715 57.9048L96.392 59.0808L96.392 59.4798L95.454 59.1578L99.724 59.1578L99.724 60.9988L93.571 60.9988ZM104.326 61.1948C103.113 61.1948 102.193 60.8728 101.568 60.2288C100.947 59.5848 100.637 58.6398 100.637 57.3938L100.637 55.6508C100.637 54.4141 100.947 53.4738 101.568 52.8298C102.189 52.1858 103.108 51.8638 104.326 51.8638C105.544 51.8638 106.463 52.1858 107.084 52.8298C107.709 53.4738 108.022 54.4141 108.022 55.6508L108.022 57.3938C108.022 58.6398 107.709 59.5848 107.084 60.2288C106.463 60.8728 105.544 61.1948 104.326 61.1948ZM104.326 59.3888C104.835 59.3888 105.206 59.2278 105.439 58.9058C105.672 58.5838 105.789 58.1124 105.789 57.4918L105.789 55.5668C105.789 54.9414 105.672 54.4701 105.439 54.1528C105.206 53.8308 104.835 53.6698 104.326 53.6698C103.817 53.6698 103.446 53.8308 103.213 54.1528C102.984 54.4701 102.87 54.9414 102.87 55.5668L102.87 57.4918C102.87 58.1124 102.987 58.5838 103.22 58.9058C103.458 59.2278 103.827 59.3888 104.326 59.3888ZM112.857 61.1948C111.644 61.1948 110.725 60.8728 110.099 60.2288C109.479 59.5848 109.168 58.6398 109.168 57.3938L109.168 55.6508C109.168 54.4141 109.479 53.4738 110.099 52.8298C110.72 52.1858 111.639 51.8638 112.857 51.8638C114.075 51.8638 114.995 52.1858 115.615 52.8298C116.241 53.4738 116.553 54.4141 116.553 55.6508L116.553 57.3938C116.553 58.6398 116.241 59.5848 115.615 60.2288C114.995 60.8728 114.075 61.1948 112.857 61.1948ZM112.857 59.3888C113.366 59.3888 113.737 59.2278 113.97 58.9058C114.204 58.5838 114.32 58.1124 114.32 57.4918L114.32 55.5668C114.32 54.9414 114.204 54.4701 113.97 54.1528C113.737 53.8308 113.366 53.6698 112.857 53.6698C112.349 53.6698 111.978 53.8308 111.744 54.1528C111.516 54.4701 111.401 54.9414 111.401 55.5668L111.401 57.4918C111.401 58.1124 111.518 58.5838 111.751 58.9058C111.989 59.2278 112.358 59.3888 112.857 59.3888Z" fill="black"/>
<path d="M141.099 54.5243L141.099 52.4663L142.499 52.3403L142.499 54.5243L144.543 54.5243L144.431 55.7983L142.499 55.7983L142.499 57.8423L141.099 57.9683L141.099 55.7983L139.069 55.7983L139.181 54.5243L141.099 54.5243ZM148.768 49.7083L148.558 55.1683L148.726 58.8083L146.766 58.8083L146.934 55.4063L146.822 51.9203L144.862 51.9343L144.862 51.0243L148.768 49.7083ZM150.359 55.3363L153.691 50.0863L156.001 49.8063L155.805 55.2243L157.149 55.1683L157.009 56.5823L155.889 56.5543L155.973 58.8083L154.013 58.8083L154.153 56.5263L150.247 56.5403L150.359 55.3363ZM154.111 51.6123L151.885 55.2103L154.181 55.1963L154.111 51.6123ZM142.065 67.0783C142.746 67.0783 143.297 67.3443 143.717 67.8763C144.146 68.399 144.361 69.085 144.361 69.9343C144.361 71.0077 144.104 71.857 143.591 72.4823C143.087 73.0983 142.391 73.4063 141.505 73.4063C140.833 73.4063 140.282 73.1403 139.853 72.6083C139.423 72.0763 139.209 71.3483 139.209 70.4243C139.209 69.5003 139.475 68.7117 140.007 68.0583C140.548 67.405 141.234 67.0783 142.065 67.0783ZM141.827 72.3423C142.228 72.3423 142.503 72.2023 142.653 71.9223C142.802 71.633 142.877 71.1057 142.877 70.3403C142.877 69.5657 142.797 69.0337 142.639 68.7443C142.489 68.4457 142.209 68.2963 141.799 68.2963C141.397 68.2963 141.113 68.4317 140.945 68.7023C140.777 68.973 140.693 69.4723 140.693 70.2003C140.693 70.9283 140.781 71.4697 140.959 71.8243C141.145 72.1697 141.435 72.3423 141.827 72.3423ZM149.807 70.5223C150.488 70.5223 151.039 70.7883 151.459 71.3203C151.888 71.843 152.103 72.529 152.103 73.3783C152.103 74.4517 151.846 75.301 151.333 75.9263C150.829 76.5423 150.133 76.8503 149.247 76.8503C148.575 76.8503 148.024 76.5843 147.595 76.0523C147.165 75.5203 146.951 74.7923 146.951 73.8683C146.951 72.9443 147.217 72.1557 147.749 71.5023C148.29 70.849 148.976 70.5223 149.807 70.5223ZM149.569 75.7863C149.97 75.7863 150.245 75.6463 150.395 75.3663C150.544 75.077 150.619 74.5497 150.619 73.7843C150.619 73.0097 150.539 72.4777 150.381 72.1883C150.231 71.8897 149.951 71.7403 149.541 71.7403C149.139 71.7403 148.855 71.8757 148.687 72.1463C148.519 72.417 148.435 72.9163 148.435 73.6443C148.435 74.3723 148.523 74.9137 148.701 75.2683C148.887 75.6137 149.177 75.7863 149.569 75.7863ZM143.115 78.4743L142.009 78.0263L147.903 66.1963L149.009 66.6443L143.115 78.4743Z" fill="#00E1F0"/>
<path d="M79.869 68.8843L79.7861 71.0385L79.8524 72.4746L79.0791 72.4746L79.1454 71.1324L79.1012 69.7571L78.3279 69.7626L78.3279 69.4035L79.869 68.8843ZM82.1705 68.8899C82.5498 68.8899 82.8535 69.0408 83.0818 69.3428C83.3138 69.6411 83.4298 70.0369 83.4298 70.5303C83.4298 71.1527 83.2899 71.6424 83.01 71.9996C82.7339 72.3568 82.3527 72.5354 81.8667 72.5354C81.4948 72.5354 81.191 72.3844 80.9553 72.0824C80.7233 71.7768 80.6073 71.3791 80.6073 70.8894C80.6073 70.3039 80.7528 69.8252 81.0437 69.4533C81.3383 69.0777 81.7139 68.8899 82.1705 68.8899ZM82.0434 71.9941C82.2791 71.9941 82.443 71.9038 82.535 71.7234C82.6308 71.543 82.6786 71.2226 82.6786 70.7623C82.6786 70.302 82.6308 69.9798 82.535 69.7957C82.4393 69.6079 82.2717 69.514 82.0324 69.514C81.793 69.514 81.62 69.6024 81.5132 69.7791C81.4101 69.9522 81.3585 70.256 81.3585 70.6905C81.3585 71.1214 81.4138 71.4472 81.5242 71.6682C81.6347 71.8854 81.8078 71.9941 82.0434 71.9941ZM85.6408 72.5298L84.6024 70.9998L84.6024 71.0385L84.6632 72.3365L83.9175 72.4746L83.9838 71.1324L83.9175 68.3375L84.6742 68.1994L84.6024 70.8673L85.7071 69.6576L86.2263 70.0111L85.2597 70.917L86.2705 72.1101L85.6408 72.5298Z" fill="#718EBF"/>
<path d="M81.9262 86.4849L83.2408 84.4136L84.1521 84.3031L84.0748 86.4407L84.6051 86.4186L84.5498 86.9765L84.1079 86.9655L84.1411 87.8547L83.3678 87.8547L83.423 86.9544L81.882 86.9599L81.9262 86.4849ZM83.4065 85.0157L82.5282 86.4352L83.4341 86.4297L83.4065 85.0157ZM86.8759 87.91L85.8375 86.38L85.8375 86.4186L85.8983 87.7166L85.1526 87.8547L85.2189 86.5125L85.1526 83.7176L85.9093 83.5796L85.8375 86.2474L86.9422 85.0378L87.4614 85.3913L86.4948 86.2971L87.5056 87.4902L86.8759 87.91Z" fill="#718EBF"/>
<path d="M82.1186 100.655C82.1186 100.449 81.9934 100.346 81.743 100.346C81.5883 100.346 81.4171 100.379 81.2293 100.445C81.0452 100.508 80.8979 100.572 80.7874 100.639L80.6272 100.732L80.7763 99.9426C80.92 99.8653 81.093 99.7972 81.2956 99.7382C81.4981 99.6757 81.6767 99.6444 81.8313 99.6444C82.1443 99.6444 82.3947 99.7254 82.5825 99.8874C82.774 100.046 82.8698 100.257 82.8698 100.523C82.8698 100.88 82.682 101.252 82.3064 101.638L81.3453 102.633L83.0686 102.533L82.9747 103.268L81.8258 103.218L80.5223 103.257L80.6106 102.677L81.7706 101.34C82.0026 101.079 82.1186 100.85 82.1186 100.655ZM85.2547 103.29L84.2163 101.76L84.2163 101.799L84.2771 103.097L83.5314 103.235L83.5977 101.892L83.5314 99.0975L84.2881 98.9594L84.2163 101.627L85.321 100.418L85.8402 100.771L84.8736 101.677L85.8844 102.87L85.2547 103.29Z" fill="#718EBF"/>
<path d="M84.5645 115.841C84.9438 115.841 85.2476 115.992 85.4759 116.293C85.7079 116.592 85.8239 116.988 85.8239 117.481C85.8239 118.103 85.684 118.593 85.4041 118.95C85.1279 119.307 84.7468 119.486 84.2607 119.486C83.8888 119.486 83.585 119.335 83.3494 119.033C83.1174 118.727 83.0014 118.33 83.0014 117.84C83.0014 117.255 83.1468 116.776 83.4377 116.404C83.7323 116.028 84.1079 115.841 84.5645 115.841ZM84.4375 118.945C84.6732 118.945 84.837 118.855 84.9291 118.674C85.0248 118.494 85.0727 118.173 85.0727 117.713C85.0727 117.253 85.0248 116.931 84.9291 116.746C84.8333 116.559 84.6658 116.465 84.4264 116.465C84.1871 116.465 84.014 116.553 83.9072 116.73C83.8041 116.903 83.7526 117.207 83.7526 117.641C83.7526 118.072 83.8078 118.398 83.9183 118.619C84.0288 118.836 84.2018 118.945 84.4375 118.945Z" fill="#718EBF"/>
<path d="M106.487 128.038C106.8 128.351 107.113 128.507 107.426 128.507C107.588 128.507 107.717 128.47 107.813 128.397C107.912 128.319 107.962 128.222 107.962 128.104C107.962 127.983 107.903 127.881 107.785 127.8C107.667 127.716 107.524 127.642 107.354 127.579C107.188 127.517 107.023 127.447 106.857 127.369C106.691 127.288 106.55 127.174 106.432 127.027C106.314 126.88 106.255 126.701 106.255 126.491C106.255 126.16 106.393 125.874 106.669 125.635C106.945 125.392 107.273 125.271 107.652 125.271C107.825 125.271 107.993 125.289 108.155 125.326C108.317 125.363 108.474 125.416 108.625 125.486L108.249 126.292C108.146 126.211 108.004 126.138 107.824 126.071C107.647 126.001 107.49 125.966 107.354 125.966C107.222 125.966 107.113 126 107.028 126.066C106.947 126.129 106.907 126.213 106.907 126.32C106.907 126.427 106.966 126.523 107.083 126.607C107.201 126.688 107.343 126.76 107.509 126.823C107.678 126.885 107.846 126.955 108.011 127.033C108.181 127.106 108.324 127.217 108.442 127.364C108.56 127.511 108.619 127.69 108.619 127.9C108.619 128.246 108.481 128.55 108.205 128.811C107.929 129.069 107.606 129.198 107.238 129.198C106.962 129.198 106.717 129.131 106.504 128.999C106.316 128.885 106.183 128.783 106.106 128.695L106.056 128.634L106.487 128.038Z" fill="#718EBF"/>
<path d="M95.1763 114.066C95.1763 112.922 96.1036 111.995 97.2476 111.995L115.492 111.995C116.636 111.995 117.563 112.922 117.563 114.066L117.563 121.709L95.1763 121.709L95.1763 114.066Z" fill="#E8F2FF"/>
<path d="M133.91 127.413L133.965 127.413L134.772 125.314L135.534 125.337L135.556 127.712L135.661 129.137L134.915 129.137L134.943 127.701L134.882 126.248L134.219 128.076L133.54 128.109L132.921 126.248L132.872 127.701L132.91 129.137L132.225 129.137L132.303 127.795L132.336 125.425L133.214 125.287L133.91 127.413Z" fill="#718EBF"/>
<path d="M122.041 109.209C122.041 108.065 122.968 107.138 124.112 107.138L142.357 107.138C143.5 107.138 144.428 108.065 144.428 109.209L144.428 121.708L122.041 121.708L122.041 109.209Z" fill="#E8F2FF"/>
<path d="M158.949 125.961L159.01 125.326L161.633 125.326L161.573 125.961L160.612 125.878L160.59 127.701L160.656 129.137L159.883 129.137L159.949 127.795L159.927 125.884L158.949 125.961Z" fill="#718EBF"/>
<path d="M148.906 89.782C148.906 88.6381 149.833 87.7107 150.977 87.7107L169.221 87.7107C170.365 87.7107 171.293 88.638 171.293 89.782L171.293 121.709L148.906 121.709L148.906 89.782Z" fill="#E8F2FF"/>
<path d="M188.336 128.448L188.397 128.448L188.656 127.498L189.187 125.294L189.811 125.393L189.209 127.586L188.839 129.094L187.828 129.166L187.513 127.691L187.325 126.962L187.159 127.586L186.789 129.094L185.795 129.166L185.464 127.691L184.889 125.432L185.607 125.294L186.055 127.426L186.303 128.448L186.364 128.448L186.657 127.426L187.06 125.935L186.933 125.432L187.662 125.294L188.098 127.426L188.336 128.448Z" fill="#718EBF"/>
<path d="M175.77 98.6873C175.77 97.5433 176.697 96.616 177.841 96.616L196.086 96.616C197.229 96.616 198.157 97.5433 198.157 98.6873L198.157 121.71L175.77 121.71L175.77 98.6873Z" fill="#05796B"/>
<path d="M212.677 125.962L212.738 125.327L215.361 125.327L215.301 125.962L214.34 125.879L214.318 127.702L214.384 129.138L213.611 129.138L213.677 127.796L213.655 125.885L212.677 125.962Z" fill="#718EBF"/>
<path d="M202.634 76.0205C202.634 74.8766 203.561 73.9492 204.705 73.9492L222.949 73.9492C224.093 73.9492 225.021 74.8766 225.021 76.0205L225.021 121.709L202.634 121.709L202.634 76.0205Z" fill="#05796B"/>
<path d="M243.163 125.918L241.987 125.918L241.954 126.935L243.009 126.935L242.948 127.52L241.937 127.52L241.932 127.702L241.998 129.138L241.225 129.138L241.291 127.796L241.225 125.327L243.224 125.327L243.163 125.918Z" fill="#718EBF"/>
<path d="M229.499 114.068C229.499 112.924 230.426 111.996 231.57 111.996L249.814 111.996C250.958 111.996 251.885 112.924 251.885 114.068L251.885 121.71L229.499 121.71L229.499 114.068Z" fill="#E8F2FF"/>
<path d="M267.673 128.038C267.986 128.351 268.299 128.507 268.612 128.507C268.774 128.507 268.903 128.47 268.999 128.397C269.098 128.319 269.148 128.222 269.148 128.104C269.148 127.983 269.089 127.881 268.971 127.8C268.853 127.716 268.71 127.642 268.54 127.579C268.374 127.517 268.209 127.447 268.043 127.369C267.877 127.288 267.736 127.174 267.618 127.027C267.5 126.88 267.441 126.701 267.441 126.491C267.441 126.16 267.579 125.874 267.855 125.635C268.131 125.392 268.459 125.271 268.838 125.271C269.012 125.271 269.179 125.289 269.341 125.326C269.503 125.363 269.66 125.416 269.811 125.486L269.435 126.292C269.332 126.211 269.19 126.138 269.01 126.071C268.833 126.001 268.676 125.966 268.54 125.966C268.408 125.966 268.299 126 268.214 126.066C268.133 126.129 268.093 126.213 268.093 126.32C268.093 126.427 268.152 126.523 268.27 126.607C268.387 126.688 268.529 126.76 268.695 126.823C268.864 126.885 269.032 126.955 269.197 127.033C269.367 127.106 269.51 127.217 269.628 127.364C269.746 127.511 269.805 127.69 269.805 127.9C269.805 128.246 269.667 128.55 269.391 128.811C269.115 129.069 268.792 129.198 268.424 129.198C268.148 129.198 267.903 129.131 267.69 128.999C267.502 128.885 267.369 128.783 267.292 128.695L267.242 128.634L267.673 128.038Z" fill="#718EBF"/>
<path d="M256.362 98.6861C256.362 97.5421 257.29 96.6147 258.434 96.6147L276.678 96.6147C277.822 96.6147 278.749 97.5421 278.749 98.6861L278.749 121.709L256.362 121.709L256.362 98.6861Z" fill="#05796B"/>
<path d="M295.656 128.038C295.969 128.351 296.282 128.508 296.595 128.508C296.757 128.508 296.886 128.471 296.982 128.397C297.081 128.32 297.131 128.222 297.131 128.105C297.131 127.983 297.072 127.882 296.954 127.801C296.837 127.716 296.693 127.642 296.524 127.58C296.358 127.517 296.192 127.447 296.026 127.37C295.861 127.289 295.719 127.175 295.601 127.027C295.483 126.88 295.424 126.702 295.424 126.492C295.424 126.16 295.562 125.875 295.839 125.636C296.115 125.393 296.443 125.271 296.822 125.271C296.995 125.271 297.162 125.289 297.324 125.326C297.487 125.363 297.643 125.416 297.794 125.486L297.418 126.293C297.315 126.212 297.174 126.138 296.993 126.072C296.816 126.002 296.66 125.967 296.524 125.967C296.391 125.967 296.282 126 296.198 126.066C296.117 126.129 296.076 126.214 296.076 126.32C296.076 126.427 296.135 126.523 296.253 126.608C296.371 126.689 296.513 126.761 296.678 126.823C296.848 126.886 297.015 126.956 297.181 127.033C297.35 127.107 297.494 127.217 297.612 127.364C297.73 127.512 297.788 127.69 297.788 127.9C297.788 128.246 297.65 128.55 297.374 128.812C297.098 129.069 296.776 129.198 296.408 129.198C296.131 129.198 295.887 129.132 295.673 128.999C295.485 128.885 295.353 128.784 295.275 128.696L295.226 128.635L295.656 128.038Z" fill="#718EBF"/>
<path d="M283.226 86.5445C283.226 85.4005 284.153 84.4731 285.297 84.4731L303.542 84.4731C304.686 84.4731 305.613 85.4005 305.613 86.5444L305.613 121.709L283.226 121.709L283.226 86.5445Z" fill="#05796B"/>
<defs>
<filter id="filter0_dddddd_1_711" x="0.765118" y="0.10499" width="382.47" height="275.174" filterUnits="userSpaceOnUse" color-interpolation-filters="sRGB">
<feFlood flood-opacity="0" result="BackgroundImageFix"/>
<feColorMatrix in="SourceAlpha" type="matrix" values="0 0 0 0 0 0 0 0 0 0 0 0 0 0 0 0 0 0 127 0" result="hardAlpha"/>
<feOffset dy="1.27859"/>
<feGaussianBlur stdDeviation="1.0868"/>
<feColorMatrix type="matrix" values="0 0 0 0 0 0 0 0 0 0 0 0 0 0 0 0 0 0 0.01 0"/>
<feBlend mode="normal" in2="BackgroundImageFix" result="effect1_dropShadow_1_711"/>
<feColorMatrix in="SourceAlpha" type="matrix" values="0 0 0 0 0 0 0 0 0 0 0 0 0 0 0 0 0 0 127 0" result="hardAlpha"/>
<feOffset dy="5.62578"/>
<feGaussianBlur stdDeviation="2.25031"/>
<feColorMatrix type="matrix" values="0 0 0 0 0 0 0 0 0 0 0 0 0 0 0 0 0 0 0.0117778 0"/>
<feBlend mode="normal" in2="effect1_dropShadow_1_711" result="effect2_dropShadow_1_711"/>
<feColorMatrix in="SourceAlpha" type="matrix" values="0 0 0 0 0 0 0 0 0 0 0 0 0 0 0 0 0 0 127 0" result="hardAlpha"/>
<feOffset dy="13.8087"/>
<feGaussianBlur stdDeviation="4.48783"/>
<feColorMatrix type="matrix" values="0 0 0 0 0 0 0 0 0 0 0 0 0 0 0 0 0 0 0.015 0"/>
<feBlend mode="normal" in2="effect2_dropShadow_1_711" result="effect3_dropShadow_1_711"/>
<feColorMatrix in="SourceAlpha" type="matrix" values="0 0 0 0 0 0 0 0 0 0 0 0 0 0 0 0 0 0 127 0" result="hardAlpha"/>
<feOffset dy="26.5946"/>
<feGaussianBlur stdDeviation="8.79667"/>
<feColorMatrix type="matrix" values="0 0 0 0 0 0 0 0 0 0 0 0 0 0 0 0 0 0 0.0182222 0"/>
<feBlend mode="normal" in2="effect3_dropShadow_1_711" result="effect4_dropShadow_1_711"/>
<feColorMatrix in="SourceAlpha" type="matrix" values="0 0 0 0 0 0 0 0 0 0 0 0 0 0 0 0 0 0 127 0" result="hardAlpha"/>
<feOffset dy="44.7505"/>
<feGaussianBlur stdDeviation="16.1741"/>
<feColorMatrix type="matrix" values="0 0 0 0 0 0 0 0 0 0 0 0 0 0 0 0 0 0 0.0227778 0"/>
<feBlend mode="normal" in2="effect4_dropShadow_1_711" result="effect5_dropShadow_1_711"/>
<feColorMatrix in="SourceAlpha" type="matrix" values="0 0 0 0 0 0 0 0 0 0 0 0 0 0 0 0 0 0 127 0" result="hardAlpha"/>
<feOffset dy="69.0436"/>
<feGaussianBlur stdDeviation="27.6174"/>
<feColorMatrix type="matrix" values="0 0 0 0 0 0 0 0 0 0 0 0 0 0 0 0 0 0 0.03 0"/>
<feBlend mode="normal" in2="effect5_dropShadow_1_711" result="effect6_dropShadow_1_711"/>
<feBlend mode="normal" in="SourceGraphic" in2="effect6_dropShadow_1_711" result="shape"/>
</filter>
</defs>
</svg>
