<svg width="18" height="19" viewBox="0 0 18 19" fill="none" xmlns="http://www.w3.org/2000/svg">
<path d="M2.45971 0.929688C1.08972 0.929688 -0.00927734 2.02868 -0.00927734 3.39868V6.46069C-0.00927734 7.83069 1.08972 8.92969 2.45971 8.92969H5.52172C6.89172 8.92969 7.99071 7.83069 7.99071 6.46069V3.39868C7.99071 2.02868 6.89172 0.929688 5.52172 0.929688H2.45971ZM11.9907 0.929688C10.8857 0.929688 9.99071 1.82469 9.99071 2.92969V6.92969C9.99071 8.03469 10.8857 8.92969 11.9907 8.92969H15.9907C17.0957 8.92969 17.9907 8.03469 17.9907 6.92969V2.92969C17.9907 1.82469 17.0957 0.929688 15.9907 0.929688H11.9907ZM11.9907 2.92969H15.9907V6.92969H11.9907V2.92969ZM5.14672 3.58569C5.34272 3.38969 5.63871 3.38969 5.83471 3.58569C6.03071 3.78269 6.03071 4.07768 5.83471 4.27368L3.83471 6.27368C3.63871 6.46968 3.34272 6.46968 3.14672 6.27368L2.14672 5.27368C1.95073 5.07668 1.95073 4.78169 2.14672 4.58569C2.34272 4.38969 2.63871 4.38969 2.83471 4.58569L3.49072 5.2417L5.14672 3.58569ZM1.99072 10.9297C0.885721 10.9297 -0.00927734 11.8247 -0.00927734 12.9297V16.9297C-0.00927734 18.0347 0.885721 18.9297 1.99072 18.9297H5.99071C7.09571 18.9297 7.99071 18.0347 7.99071 16.9297V12.9297C7.99071 11.8247 7.09571 10.9297 5.99071 10.9297H1.99072ZM11.9907 10.9297C10.8857 10.9297 9.99071 11.8247 9.99071 12.9297V16.9297C9.99071 18.0347 10.8857 18.9297 11.9907 18.9297H15.9907C17.0957 18.9297 17.9907 18.0347 17.9907 16.9297V12.9297C17.9907 11.8247 17.0957 10.9297 15.9907 10.9297H11.9907ZM1.99072 12.9297H5.99071V16.9297H1.99072V12.9297ZM11.9907 12.9297H15.9907V16.9297H11.9907V12.9297Z" fill="black"/>
</svg>
