<svg width="19" height="20" viewBox="0 0 19 20" fill="none" xmlns="http://www.w3.org/2000/svg">
<path d="M13.5525 0.442896C12.7458 0.417896 11.9042 0.706917 11.2602 1.35092L10.1247 2.49392C7.95575 2.36592 6.15945 2.9349 4.74005 3.9429C3.95275 4.5019 3.42355 5.05791 3.14625 5.47391C3.08275 5.56991 3.04905 5.67589 3.02125 5.78689L0.021246 17.7869C-0.161754 18.5189 0.507646 19.1879 1.24005 19.0049L13.24 16.0049C13.3512 15.9779 13.4571 15.9439 13.5525 15.8799C13.9674 15.6039 14.5262 15.0729 15.0837 14.2869C16.0926 12.8649 16.6662 11.0729 16.5255 8.9119L17.7123 7.7319C19.0004 6.4439 18.7505 4.38391 17.6691 3.30191L15.6857 1.32992C15.145 0.789921 14.3592 0.467896 13.5525 0.442896ZM13.5212 2.4429C13.8179 2.4529 14.1386 2.58094 14.3166 2.75894L16.2712 4.75491C16.6272 5.11091 16.7433 5.8619 16.3059 6.2999L15.49 7.12991C14.3996 6.03991 12.8959 4.51494 11.9116 3.52994L12.7233 2.72891C12.942 2.50991 13.2246 2.4339 13.5212 2.4429ZM9.99965 4.4899C10.8257 5.3099 13.6697 8.13591 14.527 8.98691C14.6442 10.6679 14.2326 12.0389 13.4587 13.1299C13.2217 13.4649 12.9583 13.7459 12.7087 13.9739C12.6124 14.0619 12.573 14.0899 12.5212 14.1299L4.25975 16.1849L8.47205 11.9759C8.61895 12.0109 8.83265 12.0369 8.99005 12.0369C10.0946 12.0369 10.99 11.1409 10.99 10.0369C10.99 8.9319 10.0946 8.0369 8.99005 8.0369C7.88545 8.0369 6.99005 8.9319 6.99005 10.0369C6.99005 10.1939 7.02265 10.4029 7.05705 10.5499L2.83225 14.7909L4.89625 6.50491C4.93655 6.45291 4.96405 6.4149 5.05255 6.3179C5.28155 6.0669 5.56115 5.8059 5.89625 5.5679C6.97785 4.7999 8.34105 4.3849 9.99965 4.4899Z" fill="black"/>
</svg>
