<svg width="20" height="21" viewBox="0 0 20 21" fill="none" xmlns="http://www.w3.org/2000/svg">
<path d="M9.99896 0.0141602C6.63396 0.0141602 3.69296 2.19216 2.56396 5.04916C1.12796 5.22216 -0.0010376 6.52915 -0.0010376 8.01415V12.0141C-0.0010376 13.6711 1.34196 15.0141 2.99896 15.0141C4.65596 15.0141 5.99896 13.6711 5.99896 12.0141V8.01415C5.99896 6.95315 5.39497 5.97614 4.56497 5.44314C5.46797 3.48314 7.57496 2.01416 9.99896 2.01416C12.429 2.01416 14.481 3.42216 15.418 5.45016C14.57 5.99116 13.999 6.96815 13.999 8.01415V12.0141C13.999 12.6501 14.246 13.3551 14.617 13.8451C13.99 14.5821 13.33 15.0851 12.558 15.4551C11.996 14.5561 11.045 14.0141 9.99896 14.0141C8.34196 14.0141 6.99896 15.3571 6.99896 17.0141C6.99896 18.6711 8.34196 20.0141 9.99896 20.0141C11.509 20.0141 12.75 18.8941 12.96 17.4421C14.131 17.0021 15.41 16.1291 16.308 14.9261C16.547 14.9861 16.742 15.0141 16.999 15.0141C18.656 15.0141 19.999 13.6711 19.999 12.0141V8.01415C19.999 6.51415 18.867 5.26316 17.429 5.04116C16.249 2.09616 13.345 0.0141602 9.99896 0.0141602ZM2.99896 7.01415C3.55096 7.01415 3.99896 7.46215 3.99896 8.01415V12.0141C3.99896 12.5661 3.55096 13.0141 2.99896 13.0141C2.44696 13.0141 1.99896 12.5661 1.99896 12.0141V8.01415C1.99896 7.46215 2.44696 7.01415 2.99896 7.01415ZM16.999 7.01415C17.551 7.01415 17.999 7.46215 17.999 8.01415V12.0141C17.999 12.5661 17.551 13.0141 16.999 13.0141C16.447 13.0141 15.999 12.5661 15.999 12.0141V8.01415C15.999 7.46215 16.447 7.01415 16.999 7.01415ZM9.99896 16.0141C10.551 16.0141 10.999 16.4621 10.999 17.0141C10.999 17.5661 10.551 18.0141 9.99896 18.0141C9.44696 18.0141 8.99896 17.5661 8.99896 17.0141C8.99896 16.4621 9.44696 16.0141 9.99896 16.0141Z" fill="black"/>
</svg>
