<svg width="20" height="19" viewBox="0 0 20 19" fill="none" xmlns="http://www.w3.org/2000/svg">
<path d="M13.4989 0.929688C11.0136 0.929688 8.9989 2.94469 8.9989 5.42969C8.9989 7.91469 11.0136 9.92969 13.4989 9.92969C15.9842 9.92969 17.9989 7.91469 17.9989 5.42969C17.9989 2.94469 15.9842 0.929688 13.4989 0.929688ZM5.9989 1.92969C3.7898 1.92969 1.9989 3.72069 1.9989 5.92969C1.9989 8.13869 3.7898 9.92969 5.9989 9.92969C6.8283 9.92969 7.6139 9.67669 8.2801 9.21069C8.7328 8.89469 8.8465 8.25769 8.5301 7.80469C8.2137 7.35169 7.6078 7.26969 7.1551 7.58569C6.8222 7.81869 6.4151 7.92969 5.9989 7.92969C4.8943 7.92969 3.9989 7.03469 3.9989 5.92969C3.9989 4.82469 4.8943 3.92969 5.9989 3.92969C6.3251 3.92969 6.6235 4.00168 6.9051 4.14868C7.3951 4.40368 8.0253 4.2317 8.2801 3.7417C8.535 3.2527 8.3326 2.62168 7.8427 2.36768C7.2776 2.07368 6.6483 1.92969 5.9989 1.92969ZM13.4989 2.92969C14.8796 2.92969 15.9989 4.04869 15.9989 5.42969C15.9989 6.81069 14.8796 7.92969 13.4989 7.92969C12.1182 7.92969 10.9989 6.81069 10.9989 5.42969C10.9989 4.04869 12.1182 2.92969 13.4989 2.92969ZM3.0614 11.2737C1.2273 12.0307 -0.00109863 13.8857 -0.00109863 15.9297V17.9297C-0.00109863 18.4817 0.446601 18.9297 0.998901 18.9297H4.9989C5.5512 18.9297 5.9989 18.4817 5.9989 17.9297C5.9989 17.3777 5.5512 16.9297 4.9989 16.9297H1.9989V15.9297C1.9989 14.8057 2.6656 13.7737 3.4319 13.3197C4.1526 13.6237 4.915 13.8537 5.593 13.9107C6.1434 13.9577 6.6397 13.5427 6.6864 12.9917C6.7331 12.4417 6.3354 11.9757 5.7851 11.9287C5.3461 11.8917 4.8663 11.7597 4.3114 11.5237C4.1774 11.4667 4.0996 11.4217 3.8427 11.3047C3.5908 11.1897 3.3172 11.1677 3.0614 11.2737ZM10.0614 11.2737C8.2273 12.0307 6.9989 13.8857 6.9989 15.9297V17.9297C6.9989 18.4817 7.4466 18.9297 7.9989 18.9297H18.9989C19.5512 18.9297 19.9989 18.4817 19.9989 17.9297V15.9297C19.9989 13.9337 18.7637 12.1237 16.9364 11.3357C16.6792 11.2247 16.3795 11.2217 16.1239 11.3357C15.2391 11.7327 14.3771 11.9297 13.4989 11.9297C12.6237 11.9297 11.7587 11.7217 10.8427 11.3047C10.5908 11.1897 10.3172 11.1677 10.0614 11.2737ZM10.4459 13.3197C11.3907 13.6777 12.5298 13.9297 13.4989 13.9297C14.4604 13.9297 15.5524 13.6947 16.4781 13.3527C17.3807 13.8667 17.9989 14.8287 17.9989 15.9297V16.9297H8.9989V15.9297C8.9989 14.7647 9.6548 13.7827 10.4459 13.3197Z" fill="black"/>
</svg>
