<svg width="20" height="19" viewBox="0 0 20 19" fill="none" xmlns="http://www.w3.org/2000/svg">
<path d="M3.99907 -0.00927734C3.95007 -0.00927734 3.72807 0.0277262 3.65507 0.0537263C3.39507 0.144726 3.19906 0.320727 3.09306 0.553727L0.184063 6.38572C0.184063 6.38572 0.00606568 6.62672 -0.000934319 6.99372C-0.00793432 7.36072 0.262066 7.65373 0.262066 7.65373L9.21806 18.6237C9.61806 19.1127 10.3801 19.1127 10.7801 18.6237C11.0591 18.2827 19.7711 7.60475 19.7711 7.60475C19.7711 7.60475 19.9931 7.32272 19.9991 6.99372C20.0061 6.66472 19.8311 6.43174 19.8311 6.43174L16.9051 0.553727C16.7991 0.320727 16.6031 0.144726 16.3431 0.0537263C16.2701 0.0277262 16.0491 -0.00927734 15.9991 -0.00927734H3.99907ZM5.40507 1.99173H14.5931L13.1871 5.99372H6.81205L5.40507 1.99173ZM3.84306 3.55472L4.71806 5.99372H2.62407L3.84306 3.55472ZM16.1551 3.55472L17.3741 5.99372H15.2801L16.1551 3.55472ZM3.12407 7.99372H5.40507L7.15507 12.9337L3.12407 7.99372ZM7.53007 7.99372H12.4681L9.99906 14.9977L7.53007 7.99372ZM14.5931 7.99372H16.8741C15.9161 9.16473 14.5261 10.8797 12.8431 12.9337L14.5931 7.99372Z" fill="black"/>
</svg>
