<svg width="16" height="21" viewBox="0 0 16 21" fill="none" xmlns="http://www.w3.org/2000/svg">
<path d="M5.00057 0.953125C4.55897 0.953125 4.15866 1.24912 4.03176 1.67212L1.03176 11.6721C0.839361 12.3131 1.33066 12.9531 2.00056 12.9531H5.87557L5.00057 19.8281C4.86967 20.8751 6.25857 21.3931 6.84457 20.5161L14.8446 8.51611C15.2876 7.85111 14.7996 6.95312 14.0006 6.95312H9.37557L10.9386 2.26611C11.1536 1.61811 10.6836 0.953125 10.0006 0.953125C9.37557 0.953125 5.62557 0.953125 5.00057 0.953125ZM5.75057 2.95312C6.56857 2.95312 7.54957 2.95312 8.62557 2.95312L7.06256 7.64111C6.84756 8.28811 7.31757 8.95312 8.00057 8.95312H12.1256L7.53156 15.8281L8.00057 12.0781C8.07557 11.4811 7.60157 10.9531 7.00057 10.9531H3.34437L5.75057 2.95312Z" fill="black"/>
</svg>
