<svg width="20" height="18" viewBox="0 0 20 18" fill="none" xmlns="http://www.w3.org/2000/svg">
<path d="M8.9989 -0.00927734C6.7898 -0.00927734 4.9989 1.78172 4.9989 3.99072H3.9989C1.7898 3.99072 -0.00109863 5.78172 -0.00109863 7.99072V13.9907C-0.00109863 16.1997 1.7898 17.9907 3.9989 17.9907H15.9989C18.208 17.9907 19.9989 16.1997 19.9989 13.9907V7.99072C19.9989 5.78172 18.208 3.99072 15.9989 3.99072H14.9989C14.9989 1.78172 13.208 -0.00927734 10.9989 -0.00927734H8.9989ZM8.9989 1.99072H10.9989C12.1035 1.99072 12.9989 2.88572 12.9989 3.99072H6.9989C6.9989 2.88572 7.8943 1.99072 8.9989 1.99072ZM3.9989 5.99072H15.9989C17.1035 5.99072 17.9989 6.88572 17.9989 7.99072V8.27173L12.6551 10.0527C11.2201 10.5317 8.7777 10.5317 7.3427 10.0527L1.9989 8.27173V7.99072C1.9989 6.88572 2.8943 5.99072 3.9989 5.99072ZM1.9989 10.3657L6.7177 11.9597C8.5632 12.5747 11.4346 12.5747 13.2801 11.9597L17.9989 10.3657V13.9907C17.9989 15.0957 17.1035 15.9907 15.9989 15.9907H3.9989C2.8943 15.9907 1.9989 15.0957 1.9989 13.9907V10.3657Z" fill="black"/>
</svg>
