<svg width="17" height="21" viewBox="0 0 17 21" fill="none" xmlns="http://www.w3.org/2000/svg">
<path d="M14.1271 11.0997C14.1271 9.36911 15.0589 7.85945 16.4413 7.05989C15.7194 6.16078 14.6336 5.355 13.4367 5.11856C11.8045 4.79578 10.8735 5.33322 10.2712 5.54867C9.66887 5.76411 8.86887 5.95778 8.86887 5.95778C8.86887 5.95778 8.06964 5.76411 7.46657 5.54867C6.86504 5.33322 5.934 4.795 4.30182 5.11778C2.66963 5.44056 1.24435 6.82267 0.665037 8.05467C-0.452204 10.4323 0.00756602 13.4237 0.796838 15.575C1.58534 17.7271 3.6704 20.734 5.28726 20.9759C6.43745 21.1478 7.14933 20.3412 8.86887 20.1367C10.5884 20.3412 11.3003 21.1478 12.4505 20.9759C14.0673 20.734 16.1524 17.7271 16.9409 15.575C16.9601 15.5221 16.98 15.4677 16.9991 15.4132C15.3156 14.7272 14.1271 13.0542 14.1271 11.0997ZM8.46044 4.725C8.46044 4.725 10.0597 4.94045 11.5118 3.26667C12.9639 1.59289 12.5509 0.00933541 12.5509 0.00933541C12.5509 0.00933541 10.9516 -0.206109 9.49952 1.46767C8.04741 3.14145 8.46044 4.725 8.46044 4.725Z" fill="white"/>
</svg>
