<svg width="231" height="176" viewBox="0 0 231 176" fill="none" xmlns="http://www.w3.org/2000/svg">
<path fill-rule="evenodd" clip-rule="evenodd" d="M1.5 16C1.5 10.201 6.20101 5.5 12 5.5C17.799 5.5 22.5 10.201 22.5 16C22.5 21.799 17.799 26.5 12 26.5C6.20101 26.5 1.5 21.799 1.5 16ZM15.7127 14.7197C16.0055 14.4268 16.0055 13.9519 15.7127 13.659C15.4198 13.3661 14.9449 13.3661 14.652 13.659L10.9397 17.3713L9.34869 15.7804C9.0558 15.4875 8.58092 15.4875 8.28803 15.7804C7.99514 16.0732 7.99514 16.5481 8.28803 16.841L10.4093 18.9623C10.7022 19.2552 11.1771 19.2552 11.47 18.9623L15.7127 14.7197Z" fill="white"/>
<path d="M49.856 22.24C48.7093 22.24 47.736 21.9867 46.936 21.48C46.136 20.9733 45.5253 20.2693 45.104 19.368C44.688 18.4667 44.48 17.424 44.48 16.24C44.48 15.056 44.688 14.0133 45.104 13.112C45.5253 12.2107 46.136 11.5067 46.936 11C47.736 10.4933 48.7093 10.24 49.856 10.24C51.1893 10.24 52.2853 10.5787 53.144 11.256C54.008 11.9333 54.6027 12.8453 54.928 13.992L53.48 14.376C53.2453 13.5173 52.8267 12.84 52.224 12.344C51.6213 11.848 50.832 11.6 49.856 11.6C48.9973 11.6 48.2827 11.7947 47.712 12.184C47.1413 12.5733 46.712 13.1173 46.424 13.816C46.136 14.5093 45.9893 15.3173 45.984 16.24C45.9787 17.1573 46.12 17.9653 46.408 18.664C46.696 19.3573 47.128 19.9013 47.704 20.296C48.28 20.6853 48.9973 20.88 49.856 20.88C50.832 20.88 51.6213 20.632 52.224 20.136C52.8267 19.6347 53.2453 18.9573 53.48 18.104L54.928 18.488C54.6027 19.6293 54.008 20.5413 53.144 21.224C52.2853 21.9013 51.1893 22.24 49.856 22.24ZM59.1625 22.224C58.6078 22.224 58.1305 22.136 57.7305 21.96C57.3358 21.784 57.0078 21.5493 56.7465 21.256C56.4852 20.9627 56.2798 20.6373 56.1305 20.28C55.9812 19.9227 55.8745 19.5573 55.8105 19.184C55.7518 18.8107 55.7225 18.4613 55.7225 18.136V13.36H57.1625V17.688C57.1625 18.0933 57.1998 18.4853 57.2745 18.864C57.3492 19.2427 57.4745 19.584 57.6505 19.888C57.8318 20.192 58.0718 20.432 58.3705 20.608C58.6745 20.784 59.0532 20.872 59.5065 20.872C59.8638 20.872 60.1892 20.8107 60.4825 20.688C60.7758 20.5653 61.0265 20.384 61.2345 20.144C61.4425 19.8987 61.6025 19.5893 61.7145 19.216C61.8265 18.8427 61.8825 18.408 61.8825 17.912L62.8185 18.2C62.8185 19.032 62.6665 19.7493 62.3625 20.352C62.0638 20.9547 61.6398 21.4187 61.0905 21.744C60.5465 22.064 59.9038 22.224 59.1625 22.224ZM62.0425 22V19.688H61.8825V13.36H63.3145V22H62.0425ZM68.0184 22.232C66.989 22.232 66.1437 22.008 65.4824 21.56C64.8264 21.1067 64.4237 20.4747 64.2744 19.664L65.7304 19.432C65.8477 19.9013 66.117 20.2747 66.5384 20.552C66.9597 20.824 67.4824 20.96 68.1064 20.96C68.6984 20.96 69.1624 20.8373 69.4984 20.592C69.8344 20.3467 70.0024 20.0133 70.0024 19.592C70.0024 19.3467 69.9464 19.1493 69.8344 19C69.7224 18.8453 69.4904 18.7013 69.1384 18.568C68.7917 18.4347 68.2664 18.2747 67.5624 18.088C66.7997 17.8853 66.1997 17.6747 65.7624 17.456C65.325 17.2373 65.013 16.984 64.8264 16.696C64.6397 16.408 64.5464 16.0587 64.5464 15.648C64.5464 15.1413 64.685 14.6987 64.9624 14.32C65.2397 13.936 65.6264 13.64 66.1224 13.432C66.6237 13.224 67.205 13.12 67.8664 13.12C68.5224 13.12 69.109 13.224 69.6264 13.432C70.1437 13.64 70.5597 13.936 70.8744 14.32C71.1944 14.6987 71.3837 15.1413 71.4424 15.648L69.9864 15.912C69.917 15.448 69.693 15.0827 69.3144 14.816C68.941 14.5493 68.4584 14.408 67.8664 14.392C67.3064 14.3707 66.8504 14.4693 66.4984 14.688C66.1517 14.9067 65.9784 15.2027 65.9784 15.576C65.9784 15.784 66.0424 15.9627 66.1704 16.112C66.3037 16.2613 66.5464 16.4027 66.8984 16.536C67.2557 16.6693 67.773 16.8213 68.4504 16.992C69.213 17.184 69.813 17.3947 70.2504 17.624C70.693 17.848 71.0077 18.1147 71.1944 18.424C71.381 18.728 71.4744 19.104 71.4744 19.552C71.4744 20.384 71.1677 21.04 70.5544 21.52C69.941 21.9947 69.0957 22.232 68.0184 22.232ZM77.2628 22C76.7508 22.1013 76.2441 22.1413 75.7428 22.12C75.2468 22.104 74.8041 22.0053 74.4148 21.824C74.0254 21.6373 73.7294 21.3493 73.5268 20.96C73.3561 20.6187 73.2628 20.2747 73.2468 19.928C73.2361 19.576 73.2308 19.1787 73.2308 18.736V10.96H74.6548V18.672C74.6548 19.024 74.6574 19.3253 74.6628 19.576C74.6734 19.8267 74.7294 20.0427 74.8308 20.224C75.0228 20.5653 75.3268 20.7653 75.7428 20.824C76.1641 20.8827 76.6708 20.8667 77.2628 20.776V22ZM71.4788 14.536V13.36H77.2628V14.536H71.4788ZM81.5375 22.24C80.6788 22.24 79.9375 22.0453 79.3135 21.656C78.6948 21.2667 78.2175 20.728 77.8815 20.04C77.5455 19.352 77.3775 18.5627 77.3775 17.672C77.3775 16.7653 77.5482 15.9707 77.8895 15.288C78.2308 14.6053 78.7135 14.0747 79.3375 13.696C79.9615 13.312 80.6948 13.12 81.5375 13.12C82.4015 13.12 83.1455 13.3147 83.7695 13.704C84.3935 14.088 84.8708 14.624 85.2015 15.312C85.5375 15.9947 85.7055 16.7813 85.7055 17.672C85.7055 18.5733 85.5375 19.368 85.2015 20.056C84.8655 20.7387 84.3855 21.2747 83.7615 21.664C83.1375 22.048 82.3962 22.24 81.5375 22.24ZM81.5375 20.888C82.4335 20.888 83.1002 20.5893 83.5375 19.992C83.9748 19.3947 84.1935 18.6213 84.1935 17.672C84.1935 16.696 83.9722 15.92 83.5295 15.344C83.0868 14.7627 82.4228 14.472 81.5375 14.472C80.9348 14.472 80.4388 14.608 80.0495 14.88C79.6602 15.152 79.3695 15.528 79.1775 16.008C78.9855 16.488 78.8895 17.0427 78.8895 17.672C78.8895 18.6427 79.1135 19.4213 79.5615 20.008C80.0095 20.5947 80.6682 20.888 81.5375 20.888ZM96.9949 22L97.0029 16.472C97.0029 15.8267 96.8295 15.3227 96.4829 14.96C96.1415 14.592 95.6962 14.408 95.1469 14.408C94.8269 14.408 94.5229 14.4827 94.2349 14.632C93.9469 14.776 93.7122 15.0053 93.5309 15.32C93.3495 15.6293 93.2589 16.0267 93.2589 16.512L92.5069 16.208C92.4962 15.5947 92.6215 15.0587 92.8829 14.6C93.1495 14.136 93.5122 13.776 93.9709 13.52C94.4295 13.264 94.9469 13.136 95.5229 13.136C96.4242 13.136 97.1335 13.4107 97.6509 13.96C98.1682 14.504 98.4269 15.2373 98.4269 16.16L98.4189 22H96.9949ZM86.6589 22V13.36H87.9309V15.672H88.0909V22H86.6589ZM91.8349 22L91.8429 16.528C91.8429 15.8667 91.6722 15.3493 91.3309 14.976C90.9895 14.5973 90.5362 14.408 89.9709 14.408C89.4109 14.408 88.9575 14.6 88.6109 14.984C88.2642 15.368 88.0909 15.8773 88.0909 16.512L87.3389 16.064C87.3389 15.504 87.4722 15.0027 87.7389 14.56C88.0055 14.1173 88.3682 13.7707 88.8269 13.52C89.2855 13.264 89.8055 13.136 90.3869 13.136C90.9682 13.136 91.4749 13.2587 91.9069 13.504C92.3389 13.7493 92.6722 14.1013 92.9069 14.56C93.1415 15.0133 93.2589 15.5547 93.2589 16.184L93.2509 22H91.8349ZM103.377 22.24C102.529 22.24 101.787 22.0533 101.153 21.68C100.523 21.3013 100.033 20.776 99.6805 20.104C99.3285 19.4267 99.1525 18.6373 99.1525 17.736C99.1525 16.792 99.3258 15.976 99.6725 15.288C100.019 14.5947 100.502 14.0613 101.121 13.688C101.745 13.3093 102.475 13.12 103.313 13.12C104.182 13.12 104.921 13.32 105.529 13.72C106.142 14.12 106.601 14.6907 106.905 15.432C107.214 16.1733 107.347 17.056 107.305 18.08H105.865V17.568C105.849 16.5067 105.633 15.7147 105.217 15.192C104.801 14.664 104.182 14.4 103.361 14.4C102.481 14.4 101.811 14.6827 101.353 15.248C100.894 15.8133 100.665 16.624 100.665 17.68C100.665 18.6987 100.894 19.488 101.353 20.048C101.811 20.608 102.465 20.888 103.313 20.888C103.883 20.888 104.379 20.7573 104.801 20.496C105.222 20.2347 105.553 19.8587 105.793 19.368L107.161 19.84C106.825 20.6027 106.318 21.1947 105.641 21.616C104.969 22.032 104.214 22.24 103.377 22.24ZM100.185 18.08V16.936H106.569V18.08H100.185ZM108.286 22V13.36H109.558V15.448L109.35 15.176C109.451 14.9093 109.582 14.664 109.742 14.44C109.907 14.216 110.091 14.032 110.294 13.888C110.518 13.7067 110.771 13.568 111.054 13.472C111.336 13.376 111.624 13.32 111.918 13.304C112.211 13.2827 112.486 13.3013 112.742 13.36V14.696C112.443 14.616 112.115 14.5947 111.758 14.632C111.4 14.6693 111.07 14.8 110.766 15.024C110.488 15.2213 110.272 15.4613 110.118 15.744C109.968 16.0267 109.864 16.3333 109.806 16.664C109.747 16.9893 109.718 17.3227 109.718 17.664V22H108.286ZM119.946 22.24C119.13 22.24 118.394 22.1013 117.738 21.824C117.087 21.5467 116.548 21.152 116.122 20.64C115.7 20.1227 115.426 19.512 115.298 18.808L116.77 18.576C116.956 19.3013 117.343 19.8693 117.93 20.28C118.522 20.6853 119.218 20.888 120.018 20.888C120.535 20.888 121.002 20.808 121.418 20.648C121.839 20.4827 122.172 20.248 122.418 19.944C122.663 19.64 122.786 19.28 122.786 18.864C122.786 18.608 122.74 18.3893 122.65 18.208C122.564 18.0213 122.444 17.864 122.29 17.736C122.14 17.6027 121.97 17.4907 121.778 17.4C121.586 17.3093 121.386 17.2347 121.178 17.176L118.242 16.304C117.922 16.208 117.612 16.088 117.314 15.944C117.015 15.7947 116.748 15.6107 116.514 15.392C116.279 15.168 116.092 14.9013 115.954 14.592C115.815 14.2773 115.746 13.9067 115.746 13.48C115.746 12.7973 115.922 12.216 116.274 11.736C116.631 11.2507 117.114 10.88 117.722 10.624C118.33 10.368 119.015 10.2427 119.778 10.248C120.551 10.2533 121.242 10.392 121.85 10.664C122.463 10.9307 122.97 11.3147 123.37 11.816C123.775 12.3173 124.047 12.9173 124.186 13.616L122.674 13.88C122.594 13.4107 122.415 13.008 122.138 12.672C121.866 12.3307 121.524 12.0693 121.114 11.888C120.703 11.7013 120.252 11.6053 119.762 11.6C119.292 11.5947 118.868 11.6693 118.49 11.824C118.111 11.9787 117.81 12.1947 117.586 12.472C117.362 12.744 117.25 13.0587 117.25 13.416C117.25 13.768 117.351 14.0533 117.554 14.272C117.756 14.4853 118.004 14.656 118.298 14.784C118.596 14.9067 118.887 15.008 119.17 15.088L121.362 15.72C121.612 15.7893 121.9 15.8853 122.226 16.008C122.556 16.1307 122.876 16.304 123.186 16.528C123.495 16.7467 123.751 17.04 123.954 17.408C124.156 17.7707 124.258 18.2293 124.258 18.784C124.258 19.3387 124.146 19.832 123.922 20.264C123.703 20.696 123.396 21.0587 123.002 21.352C122.607 21.64 122.148 21.8587 121.626 22.008C121.103 22.1627 120.543 22.24 119.946 22.24ZM128.416 22.224C127.861 22.224 127.384 22.136 126.984 21.96C126.589 21.784 126.261 21.5493 126 21.256C125.738 20.9627 125.533 20.6373 125.384 20.28C125.234 19.9227 125.128 19.5573 125.064 19.184C125.005 18.8107 124.976 18.4613 124.976 18.136V13.36H126.416V17.688C126.416 18.0933 126.453 18.4853 126.528 18.864C126.602 19.2427 126.728 19.584 126.904 19.888C127.085 20.192 127.325 20.432 127.624 20.608C127.928 20.784 128.306 20.872 128.76 20.872C129.117 20.872 129.442 20.8107 129.736 20.688C130.029 20.5653 130.28 20.384 130.488 20.144C130.696 19.8987 130.856 19.5893 130.968 19.216C131.08 18.8427 131.136 18.408 131.136 17.912L132.072 18.2C132.072 19.032 131.92 19.7493 131.616 20.352C131.317 20.9547 130.893 21.4187 130.344 21.744C129.8 22.064 129.157 22.224 128.416 22.224ZM131.296 22V19.688H131.136V13.36H132.568V22H131.296ZM137.975 22.24C137.165 22.24 136.482 22.04 135.927 21.64C135.373 21.2347 134.951 20.688 134.663 20C134.381 19.3067 134.239 18.5307 134.239 17.672C134.239 16.8027 134.381 16.024 134.663 15.336C134.951 14.648 135.373 14.1067 135.927 13.712C136.487 13.3173 137.173 13.12 137.983 13.12C138.783 13.12 139.471 13.32 140.047 13.72C140.629 14.1147 141.074 14.656 141.383 15.344C141.693 16.032 141.847 16.808 141.847 17.672C141.847 18.536 141.693 19.312 141.383 20C141.074 20.688 140.629 21.2347 140.047 21.64C139.471 22.04 138.781 22.24 137.975 22.24ZM133.999 25.84V13.36H135.271V19.72H135.431V25.84H133.999ZM137.799 20.936C138.37 20.936 138.842 20.792 139.215 20.504C139.589 20.216 139.869 19.8267 140.055 19.336C140.242 18.84 140.335 18.2853 140.335 17.672C140.335 17.064 140.242 16.5147 140.055 16.024C139.874 15.5333 139.591 15.144 139.207 14.856C138.829 14.568 138.346 14.424 137.759 14.424C137.199 14.424 136.735 14.5627 136.367 14.84C135.999 15.112 135.725 15.4933 135.543 15.984C135.362 16.4693 135.271 17.032 135.271 17.672C135.271 18.3013 135.359 18.864 135.535 19.36C135.717 19.8507 135.994 20.2373 136.367 20.52C136.741 20.7973 137.218 20.936 137.799 20.936ZM146.769 22.24C145.959 22.24 145.276 22.04 144.721 21.64C144.167 21.2347 143.745 20.688 143.457 20C143.175 19.3067 143.033 18.5307 143.033 17.672C143.033 16.8027 143.175 16.024 143.457 15.336C143.745 14.648 144.167 14.1067 144.721 13.712C145.281 13.3173 145.967 13.12 146.777 13.12C147.577 13.12 148.265 13.32 148.841 13.72C149.423 14.1147 149.868 14.656 150.177 15.344C150.487 16.032 150.641 16.808 150.641 17.672C150.641 18.536 150.487 19.312 150.177 20C149.868 20.688 149.423 21.2347 148.841 21.64C148.265 22.04 147.575 22.24 146.769 22.24ZM142.793 25.84V13.36H144.065V19.72H144.225V25.84H142.793ZM146.593 20.936C147.164 20.936 147.636 20.792 148.009 20.504C148.383 20.216 148.663 19.8267 148.849 19.336C149.036 18.84 149.129 18.2853 149.129 17.672C149.129 17.064 149.036 16.5147 148.849 16.024C148.668 15.5333 148.385 15.144 148.001 14.856C147.623 14.568 147.14 14.424 146.553 14.424C145.993 14.424 145.529 14.5627 145.161 14.84C144.793 15.112 144.519 15.4933 144.337 15.984C144.156 16.4693 144.065 17.032 144.065 17.672C144.065 18.3013 144.153 18.864 144.329 19.36C144.511 19.8507 144.788 20.2373 145.161 20.52C145.535 20.7973 146.012 20.936 146.593 20.936ZM155.275 22.24C154.416 22.24 153.675 22.0453 153.051 21.656C152.432 21.2667 151.955 20.728 151.619 20.04C151.283 19.352 151.115 18.5627 151.115 17.672C151.115 16.7653 151.286 15.9707 151.627 15.288C151.968 14.6053 152.451 14.0747 153.075 13.696C153.699 13.312 154.432 13.12 155.275 13.12C156.139 13.12 156.883 13.3147 157.507 13.704C158.131 14.088 158.608 14.624 158.939 15.312C159.275 15.9947 159.443 16.7813 159.443 17.672C159.443 18.5733 159.275 19.368 158.939 20.056C158.603 20.7387 158.123 21.2747 157.499 21.664C156.875 22.048 156.134 22.24 155.275 22.24ZM155.275 20.888C156.171 20.888 156.838 20.5893 157.275 19.992C157.712 19.3947 157.931 18.6213 157.931 17.672C157.931 16.696 157.71 15.92 157.267 15.344C156.824 14.7627 156.16 14.472 155.275 14.472C154.672 14.472 154.176 14.608 153.787 14.88C153.398 15.152 153.107 15.528 152.915 16.008C152.723 16.488 152.627 17.0427 152.627 17.672C152.627 18.6427 152.851 19.4213 153.299 20.008C153.747 20.5947 154.406 20.888 155.275 20.888ZM160.404 22V13.36H161.676V15.448L161.468 15.176C161.57 14.9093 161.7 14.664 161.86 14.44C162.026 14.216 162.21 14.032 162.412 13.888C162.636 13.7067 162.89 13.568 163.172 13.472C163.455 13.376 163.743 13.32 164.036 13.304C164.33 13.2827 164.604 13.3013 164.86 13.36V14.696C164.562 14.616 164.234 14.5947 163.876 14.632C163.519 14.6693 163.188 14.8 162.884 15.024C162.607 15.2213 162.391 15.4613 162.236 15.744C162.087 16.0267 161.983 16.3333 161.924 16.664C161.866 16.9893 161.836 17.3227 161.836 17.664V22H160.404ZM170.397 22C169.885 22.1013 169.378 22.1413 168.877 22.12C168.381 22.104 167.938 22.0053 167.549 21.824C167.16 21.6373 166.864 21.3493 166.661 20.96C166.49 20.6187 166.397 20.2747 166.381 19.928C166.37 19.576 166.365 19.1787 166.365 18.736V10.96H167.789V18.672C167.789 19.024 167.792 19.3253 167.797 19.576C167.808 19.8267 167.864 20.0427 167.965 20.224C168.157 20.5653 168.461 20.7653 168.877 20.824C169.298 20.8827 169.805 20.8667 170.397 20.776V22ZM164.613 14.536V13.36H170.397V14.536H164.613Z" fill="white"/>
<path fill-rule="evenodd" clip-rule="evenodd" d="M1.5 64C1.5 58.201 6.20101 53.5 12 53.5C17.799 53.5 22.5 58.201 22.5 64C22.5 69.799 17.799 74.5 12 74.5C6.20101 74.5 1.5 69.799 1.5 64ZM15.7127 62.7197C16.0055 62.4268 16.0055 61.9519 15.7127 61.659C15.4198 61.3661 14.9449 61.3661 14.652 61.659L10.9397 65.3713L9.34869 63.7804C9.0558 63.4875 8.58092 63.4875 8.28803 63.7804C7.99514 64.0732 7.99514 64.5481 8.28803 64.841L10.4093 66.9623C10.7022 67.2552 11.1771 67.2552 11.47 66.9623L15.7127 62.7197Z" fill="white"/>
<path d="M49.664 70.24C48.7733 70.24 47.9867 70.056 47.304 69.688C46.6213 69.32 46.0853 68.8053 45.696 68.144C45.312 67.4773 45.12 66.696 45.12 65.8V58.488L46.56 58.48V65.68C46.56 66.224 46.6507 66.6987 46.832 67.104C47.0187 67.504 47.264 67.8373 47.568 68.104C47.872 68.3707 48.2053 68.5707 48.568 68.704C48.936 68.832 49.3013 68.896 49.664 68.896C50.032 68.896 50.4 68.8293 50.768 68.696C51.136 68.5627 51.4693 68.3653 51.768 68.104C52.072 67.8373 52.3147 67.5013 52.496 67.096C52.6773 66.6907 52.768 66.2187 52.768 65.68V58.48H54.208V65.8C54.208 66.6907 54.0133 67.4693 53.624 68.136C53.24 68.8027 52.7067 69.32 52.024 69.688C51.3413 70.056 50.5547 70.24 49.664 70.24ZM59.6161 70.24C58.8055 70.24 58.1228 70.04 57.5681 69.64C57.0135 69.2347 56.5921 68.688 56.3041 68C56.0215 67.3067 55.8801 66.5307 55.8801 65.672C55.8801 64.8027 56.0215 64.024 56.3041 63.336C56.5921 62.648 57.0135 62.1067 57.5681 61.712C58.1281 61.3173 58.8135 61.12 59.6241 61.12C60.4241 61.12 61.1121 61.32 61.6881 61.72C62.2695 62.1147 62.7148 62.656 63.0241 63.344C63.3335 64.032 63.4881 64.808 63.4881 65.672C63.4881 66.536 63.3335 67.312 63.0241 68C62.7148 68.688 62.2695 69.2347 61.6881 69.64C61.1121 70.04 60.4215 70.24 59.6161 70.24ZM55.6401 73.84V61.36H56.9121V67.72H57.0721V73.84H55.6401ZM59.4401 68.936C60.0108 68.936 60.4828 68.792 60.8561 68.504C61.2295 68.216 61.5095 67.8267 61.6961 67.336C61.8828 66.84 61.9761 66.2853 61.9761 65.672C61.9761 65.064 61.8828 64.5147 61.6961 64.024C61.5148 63.5333 61.2321 63.144 60.8481 62.856C60.4695 62.568 59.9868 62.424 59.4001 62.424C58.8401 62.424 58.3761 62.5627 58.0081 62.84C57.6401 63.112 57.3655 63.4933 57.1841 63.984C57.0028 64.4693 56.9121 65.032 56.9121 65.672C56.9121 66.3013 57.0001 66.864 57.1761 67.36C57.3575 67.8507 57.6348 68.2373 58.0081 68.52C58.3815 68.7973 58.8588 68.936 59.4401 68.936ZM69.2659 70C68.7539 70.1013 68.2472 70.1413 67.7459 70.12C67.2499 70.104 66.8072 70.0053 66.4179 69.824C66.0285 69.6373 65.7325 69.3493 65.5299 68.96C65.3592 68.6187 65.2659 68.2747 65.2499 67.928C65.2392 67.576 65.2339 67.1787 65.2339 66.736V58.96H66.6579V66.672C66.6579 67.024 66.6605 67.3253 66.6659 67.576C66.6765 67.8267 66.7325 68.0427 66.8339 68.224C67.0259 68.5653 67.3299 68.7653 67.7459 68.824C68.1672 68.8827 68.6739 68.8667 69.2659 68.776V70ZM63.4819 62.536V61.36H69.2659V62.536H63.4819ZM73.5406 70.24C72.682 70.24 71.9406 70.0453 71.3166 69.656C70.698 69.2667 70.2206 68.728 69.8846 68.04C69.5486 67.352 69.3806 66.5627 69.3806 65.672C69.3806 64.7653 69.5513 63.9707 69.8926 63.288C70.234 62.6053 70.7166 62.0747 71.3406 61.696C71.9646 61.312 72.698 61.12 73.5406 61.12C74.4046 61.12 75.1486 61.3147 75.7726 61.704C76.3966 62.088 76.874 62.624 77.2046 63.312C77.5406 63.9947 77.7086 64.7813 77.7086 65.672C77.7086 66.5733 77.5406 67.368 77.2046 68.056C76.8686 68.7387 76.3886 69.2747 75.7646 69.664C75.1406 70.048 74.3993 70.24 73.5406 70.24ZM73.5406 68.888C74.4366 68.888 75.1033 68.5893 75.5406 67.992C75.978 67.3947 76.1966 66.6213 76.1966 65.672C76.1966 64.696 75.9753 63.92 75.5326 63.344C75.09 62.7627 74.426 62.472 73.5406 62.472C72.938 62.472 72.442 62.608 72.0526 62.88C71.6633 63.152 71.3726 63.528 71.1806 64.008C70.9886 64.488 70.8926 65.0427 70.8926 65.672C70.8926 66.6427 71.1166 67.4213 71.5646 68.008C72.0126 68.5947 72.6713 68.888 73.5406 68.888ZM83.0811 70V60.056L80.9131 61.368V59.776L83.0811 58.48H84.5291V70H83.0811ZM90.6611 70.24C89.9145 70.24 89.2478 70.072 88.6611 69.736C88.0798 69.3947 87.6185 68.9333 87.2771 68.352C86.9411 67.7653 86.7731 67.0987 86.7731 66.352V62.128C86.7731 61.3813 86.9411 60.7147 87.2771 60.128C87.6185 59.5413 88.0798 59.08 88.6611 58.744C89.2478 58.408 89.9145 58.24 90.6611 58.24C91.4078 58.24 92.0745 58.408 92.6611 58.744C93.2478 59.08 93.7091 59.5413 94.0451 60.128C94.3811 60.7147 94.5491 61.3813 94.5491 62.128V66.352C94.5491 67.0987 94.3811 67.7653 94.0451 68.352C93.7091 68.9333 93.2478 69.3947 92.6611 69.736C92.0745 70.072 91.4078 70.24 90.6611 70.24ZM90.6611 68.872C91.1145 68.872 91.5251 68.7627 91.8931 68.544C92.2611 68.3253 92.5545 68.032 92.7731 67.664C92.9918 67.2907 93.1011 66.88 93.1011 66.432V62.04C93.1011 61.5867 92.9918 61.176 92.7731 60.808C92.5545 60.44 92.2611 60.1467 91.8931 59.928C91.5251 59.7093 91.1145 59.6 90.6611 59.6C90.2131 59.6 89.8025 59.7093 89.4291 59.928C89.0611 60.1467 88.7678 60.44 88.5491 60.808C88.3305 61.176 88.2211 61.5867 88.2211 62.04V66.432C88.2211 66.88 88.3305 67.2907 88.5491 67.664C88.7678 68.032 89.0611 68.3253 89.4291 68.544C89.8025 68.7627 90.2131 68.872 90.6611 68.872ZM102.936 70.24C102.045 70.24 101.259 70.056 100.576 69.688C99.8932 69.32 99.3572 68.8053 98.9679 68.144C98.5839 67.4773 98.3919 66.696 98.3919 65.8V58.488L99.8319 58.48V65.68C99.8319 66.224 99.9225 66.6987 100.104 67.104C100.291 67.504 100.536 67.8373 100.84 68.104C101.144 68.3707 101.477 68.5707 101.84 68.704C102.208 68.832 102.573 68.896 102.936 68.896C103.304 68.896 103.672 68.8293 104.04 68.696C104.408 68.5627 104.741 68.3653 105.04 68.104C105.344 67.8373 105.587 67.5013 105.768 67.096C105.949 66.6907 106.04 66.2187 106.04 65.68V58.48H107.48V65.8C107.48 66.6907 107.285 67.4693 106.896 68.136C106.512 68.8027 105.979 69.32 105.296 69.688C104.613 70.056 103.827 70.24 102.936 70.24ZM112.184 70.232C111.155 70.232 110.309 70.008 109.648 69.56C108.992 69.1067 108.589 68.4747 108.44 67.664L109.896 67.432C110.013 67.9013 110.283 68.2747 110.704 68.552C111.125 68.824 111.648 68.96 112.272 68.96C112.864 68.96 113.328 68.8373 113.664 68.592C114 68.3467 114.168 68.0133 114.168 67.592C114.168 67.3467 114.112 67.1493 114 67C113.888 66.8453 113.656 66.7013 113.304 66.568C112.957 66.4347 112.432 66.2747 111.728 66.088C110.965 65.8853 110.365 65.6747 109.928 65.456C109.491 65.2373 109.179 64.984 108.992 64.696C108.805 64.408 108.712 64.0587 108.712 63.648C108.712 63.1413 108.851 62.6987 109.128 62.32C109.405 61.936 109.792 61.64 110.288 61.432C110.789 61.224 111.371 61.12 112.032 61.12C112.688 61.12 113.275 61.224 113.792 61.432C114.309 61.64 114.725 61.936 115.04 62.32C115.36 62.6987 115.549 63.1413 115.608 63.648L114.152 63.912C114.083 63.448 113.859 63.0827 113.48 62.816C113.107 62.5493 112.624 62.408 112.032 62.392C111.472 62.3707 111.016 62.4693 110.664 62.688C110.317 62.9067 110.144 63.2027 110.144 63.576C110.144 63.784 110.208 63.9627 110.336 64.112C110.469 64.2613 110.712 64.4027 111.064 64.536C111.421 64.6693 111.939 64.8213 112.616 64.992C113.379 65.184 113.979 65.3947 114.416 65.624C114.859 65.848 115.173 66.1147 115.36 66.424C115.547 66.728 115.64 67.104 115.64 67.552C115.64 68.384 115.333 69.04 114.72 69.52C114.107 69.9947 113.261 70.232 112.184 70.232ZM120.348 70.24C119.5 70.24 118.759 70.0533 118.124 69.68C117.495 69.3013 117.004 68.776 116.652 68.104C116.3 67.4267 116.124 66.6373 116.124 65.736C116.124 64.792 116.298 63.976 116.644 63.288C116.991 62.5947 117.474 62.0613 118.092 61.688C118.716 61.3093 119.447 61.12 120.284 61.12C121.154 61.12 121.892 61.32 122.5 61.72C123.114 62.12 123.572 62.6907 123.876 63.432C124.186 64.1733 124.319 65.056 124.276 66.08H122.836V65.568C122.82 64.5067 122.604 63.7147 122.188 63.192C121.772 62.664 121.154 62.4 120.332 62.4C119.452 62.4 118.783 62.6827 118.324 63.248C117.866 63.8133 117.636 64.624 117.636 65.68C117.636 66.6987 117.866 67.488 118.324 68.048C118.783 68.608 119.436 68.888 120.284 68.888C120.855 68.888 121.351 68.7573 121.772 68.496C122.194 68.2347 122.524 67.8587 122.764 67.368L124.132 67.84C123.796 68.6027 123.29 69.1947 122.612 69.616C121.94 70.032 121.186 70.24 120.348 70.24ZM117.156 66.08V64.936H123.54V66.08H117.156ZM125.257 70V61.36H126.529V63.448L126.321 63.176C126.423 62.9093 126.553 62.664 126.713 62.44C126.879 62.216 127.063 62.032 127.265 61.888C127.489 61.7067 127.743 61.568 128.025 61.472C128.308 61.376 128.596 61.32 128.889 61.304C129.183 61.2827 129.457 61.3013 129.713 61.36V62.696C129.415 62.616 129.087 62.5947 128.729 62.632C128.372 62.6693 128.041 62.8 127.737 63.024C127.46 63.2213 127.244 63.4613 127.089 63.744C126.94 64.0267 126.836 64.3333 126.777 64.664C126.719 64.9893 126.689 65.3227 126.689 65.664V70H125.257ZM133.378 70.232C132.348 70.232 131.503 70.008 130.842 69.56C130.186 69.1067 129.783 68.4747 129.634 67.664L131.09 67.432C131.207 67.9013 131.476 68.2747 131.898 68.552C132.319 68.824 132.842 68.96 133.466 68.96C134.058 68.96 134.522 68.8373 134.858 68.592C135.194 68.3467 135.362 68.0133 135.362 67.592C135.362 67.3467 135.306 67.1493 135.194 67C135.082 66.8453 134.85 66.7013 134.498 66.568C134.151 66.4347 133.626 66.2747 132.922 66.088C132.159 65.8853 131.559 65.6747 131.122 65.456C130.684 65.2373 130.372 64.984 130.186 64.696C129.999 64.408 129.906 64.0587 129.906 63.648C129.906 63.1413 130.044 62.6987 130.322 62.32C130.599 61.936 130.986 61.64 131.482 61.432C131.983 61.224 132.564 61.12 133.226 61.12C133.882 61.12 134.468 61.224 134.986 61.432C135.503 61.64 135.919 61.936 136.234 62.32C136.554 62.6987 136.743 63.1413 136.802 63.648L135.346 63.912C135.276 63.448 135.052 63.0827 134.674 62.816C134.3 62.5493 133.818 62.408 133.226 62.392C132.666 62.3707 132.21 62.4693 131.858 62.688C131.511 62.9067 131.338 63.2027 131.338 63.576C131.338 63.784 131.402 63.9627 131.53 64.112C131.663 64.2613 131.906 64.4027 132.258 64.536C132.615 64.6693 133.132 64.8213 133.81 64.992C134.572 65.184 135.172 65.3947 135.61 65.624C136.052 65.848 136.367 66.1147 136.554 66.424C136.74 66.728 136.834 67.104 136.834 67.552C136.834 68.384 136.527 69.04 135.914 69.52C135.3 69.9947 134.455 70.232 133.378 70.232Z" fill="white"/>
<path fill-rule="evenodd" clip-rule="evenodd" d="M1.5 112C1.5 106.201 6.20101 101.5 12 101.5C17.799 101.5 22.5 106.201 22.5 112C22.5 117.799 17.799 122.5 12 122.5C6.20101 122.5 1.5 117.799 1.5 112ZM15.7127 110.72C16.0055 110.427 16.0055 109.952 15.7127 109.659C15.4198 109.366 14.9449 109.366 14.652 109.659L10.9397 113.371L9.34869 111.78C9.0558 111.487 8.58092 111.487 8.28803 111.78C7.99514 112.073 7.99514 112.548 8.28803 112.841L10.4093 114.962C10.7022 115.255 11.1771 115.255 11.47 114.962L15.7127 110.72Z" fill="white"/>
<path d="M45.12 118V106.48H46.416L50.768 115.656L55.096 106.48H56.408V117.992H55.056V109.608L51.144 118H50.384L46.472 109.608V118H45.12ZM61.5312 118.24C60.6726 118.24 59.9312 118.045 59.3073 117.656C58.6886 117.267 58.2112 116.728 57.8752 116.04C57.5392 115.352 57.3712 114.563 57.3712 113.672C57.3712 112.765 57.5419 111.971 57.8832 111.288C58.2246 110.605 58.7072 110.075 59.3312 109.696C59.9553 109.312 60.6886 109.12 61.5312 109.12C62.3953 109.12 63.1393 109.315 63.7633 109.704C64.3873 110.088 64.8646 110.624 65.1953 111.312C65.5313 111.995 65.6993 112.781 65.6993 113.672C65.6993 114.573 65.5313 115.368 65.1953 116.056C64.8593 116.739 64.3793 117.275 63.7552 117.664C63.1313 118.048 62.3899 118.24 61.5312 118.24ZM61.5312 116.888C62.4272 116.888 63.0939 116.589 63.5312 115.992C63.9686 115.395 64.1873 114.621 64.1873 113.672C64.1873 112.696 63.9659 111.92 63.5233 111.344C63.0806 110.763 62.4166 110.472 61.5312 110.472C60.9286 110.472 60.4326 110.608 60.0433 110.88C59.6539 111.152 59.3632 111.528 59.1712 112.008C58.9792 112.488 58.8832 113.043 58.8832 113.672C58.8832 114.643 59.1072 115.421 59.5552 116.008C60.0032 116.595 60.6619 116.888 61.5312 116.888ZM72.8126 118V113.672C72.8126 113.261 72.7753 112.867 72.7006 112.488C72.6313 112.109 72.506 111.771 72.3246 111.472C72.1486 111.168 71.9086 110.928 71.6046 110.752C71.306 110.576 70.9273 110.488 70.4686 110.488C70.1113 110.488 69.786 110.549 69.4926 110.672C69.2046 110.789 68.9566 110.971 68.7486 111.216C68.5406 111.461 68.378 111.771 68.2606 112.144C68.1486 112.512 68.0926 112.947 68.0926 113.448L67.1566 113.16C67.1566 112.323 67.306 111.605 67.6046 111.008C67.9086 110.405 68.3326 109.944 68.8766 109.624C69.426 109.299 70.0713 109.136 70.8126 109.136C71.3726 109.136 71.85 109.224 72.2446 109.4C72.6393 109.576 72.9673 109.811 73.2286 110.104C73.49 110.392 73.6953 110.717 73.8446 111.08C73.994 111.437 74.098 111.803 74.1566 112.176C74.2206 112.544 74.2526 112.893 74.2526 113.224V118H72.8126ZM66.6526 118V109.36H67.9326V111.672H68.0926V118H66.6526ZM80.3565 118C79.8445 118.101 79.3378 118.141 78.8365 118.12C78.3405 118.104 77.8978 118.005 77.5085 117.824C77.1192 117.637 76.8232 117.349 76.6205 116.96C76.4498 116.619 76.3565 116.275 76.3405 115.928C76.3298 115.576 76.3245 115.179 76.3245 114.736V106.96H77.7485V114.672C77.7485 115.024 77.7512 115.325 77.7565 115.576C77.7672 115.827 77.8232 116.043 77.9245 116.224C78.1165 116.565 78.4205 116.765 78.8365 116.824C79.2578 116.883 79.7645 116.867 80.3565 116.776V118ZM74.5725 110.536V109.36H80.3565V110.536H74.5725ZM87.4626 118V113.672C87.4626 113.261 87.4253 112.867 87.3506 112.488C87.2813 112.109 87.156 111.771 86.9746 111.472C86.7986 111.168 86.5586 110.928 86.2546 110.752C85.956 110.576 85.5773 110.488 85.1186 110.488C84.7613 110.488 84.436 110.549 84.1426 110.672C83.8546 110.789 83.6066 110.971 83.3986 111.216C83.1906 111.461 83.028 111.771 82.9106 112.144C82.7986 112.512 82.7426 112.947 82.7426 113.448L81.8066 113.16C81.8066 112.323 81.956 111.605 82.2546 111.008C82.5586 110.405 82.9826 109.944 83.5266 109.624C84.076 109.299 84.7213 109.136 85.4626 109.136C86.0226 109.136 86.5 109.224 86.8946 109.4C87.2893 109.576 87.6173 109.811 87.8786 110.104C88.14 110.392 88.3453 110.717 88.4946 111.08C88.644 111.437 88.748 111.803 88.8066 112.176C88.8706 112.544 88.9026 112.893 88.9026 113.224V118H87.4626ZM81.3026 118V106.48H82.5826V112.84H82.7426V118H81.3026ZM90.3425 118V106.24H91.7665V118H90.3425ZM94.5669 121.84L96.2389 117.296L96.2629 118.64L92.4869 109.36H93.9829L96.9429 116.824H96.4309L99.2069 109.36H100.655L95.9509 121.84H94.5669ZM103.579 118V106.48H108.131C108.243 106.48 108.377 106.485 108.531 106.496C108.686 106.501 108.835 106.517 108.979 106.544C109.603 106.64 110.126 106.853 110.547 107.184C110.974 107.515 111.294 107.933 111.507 108.44C111.721 108.941 111.827 109.499 111.827 110.112C111.827 111.003 111.595 111.776 111.131 112.432C110.667 113.083 109.987 113.491 109.091 113.656L108.547 113.744H105.003V118H103.579ZM110.435 118L108.163 113.312L109.571 112.88L112.067 118H110.435ZM105.003 112.392H108.083C108.185 112.392 108.299 112.387 108.427 112.376C108.561 112.365 108.686 112.347 108.803 112.32C109.171 112.235 109.47 112.08 109.699 111.856C109.934 111.627 110.105 111.36 110.211 111.056C110.318 110.747 110.371 110.432 110.371 110.112C110.371 109.792 110.318 109.48 110.211 109.176C110.105 108.867 109.934 108.597 109.699 108.368C109.47 108.139 109.171 107.984 108.803 107.904C108.686 107.872 108.561 107.853 108.427 107.848C108.299 107.837 108.185 107.832 108.083 107.832H105.003V112.392ZM116.773 118.24C115.925 118.24 115.184 118.053 114.549 117.68C113.92 117.301 113.429 116.776 113.077 116.104C112.725 115.427 112.549 114.637 112.549 113.736C112.549 112.792 112.723 111.976 113.069 111.288C113.416 110.595 113.899 110.061 114.517 109.688C115.141 109.309 115.872 109.12 116.709 109.12C117.579 109.12 118.317 109.32 118.925 109.72C119.539 110.12 119.997 110.691 120.301 111.432C120.611 112.173 120.744 113.056 120.701 114.08H119.261V113.568C119.245 112.507 119.029 111.715 118.613 111.192C118.197 110.664 117.579 110.4 116.757 110.4C115.877 110.4 115.208 110.683 114.749 111.248C114.291 111.813 114.061 112.624 114.061 113.68C114.061 114.699 114.291 115.488 114.749 116.048C115.208 116.608 115.861 116.888 116.709 116.888C117.28 116.888 117.776 116.757 118.197 116.496C118.619 116.235 118.949 115.859 119.189 115.368L120.557 115.84C120.221 116.603 119.715 117.195 119.037 117.616C118.365 118.032 117.611 118.24 116.773 118.24ZM113.581 114.08V112.936H119.965V114.08H113.581ZM125.416 118.24C124.605 118.24 123.923 118.04 123.368 117.64C122.813 117.235 122.392 116.688 122.104 116C121.821 115.307 121.68 114.531 121.68 113.672C121.68 112.803 121.821 112.024 122.104 111.336C122.392 110.648 122.813 110.107 123.368 109.712C123.928 109.317 124.613 109.12 125.424 109.12C126.224 109.12 126.912 109.32 127.488 109.72C128.069 110.115 128.515 110.656 128.824 111.344C129.133 112.032 129.288 112.808 129.288 113.672C129.288 114.536 129.133 115.312 128.824 116C128.515 116.688 128.069 117.235 127.488 117.64C126.912 118.04 126.221 118.24 125.416 118.24ZM121.44 121.84V109.36H122.712V115.72H122.872V121.84H121.44ZM125.24 116.936C125.811 116.936 126.283 116.792 126.656 116.504C127.029 116.216 127.309 115.827 127.496 115.336C127.683 114.84 127.776 114.285 127.776 113.672C127.776 113.064 127.683 112.515 127.496 112.024C127.315 111.533 127.032 111.144 126.648 110.856C126.269 110.568 125.787 110.424 125.2 110.424C124.64 110.424 124.176 110.563 123.808 110.84C123.44 111.112 123.165 111.493 122.984 111.984C122.803 112.469 122.712 113.032 122.712 113.672C122.712 114.301 122.8 114.864 122.976 115.36C123.157 115.851 123.435 116.237 123.808 116.52C124.181 116.797 124.659 116.936 125.24 116.936ZM133.922 118.24C133.063 118.24 132.322 118.045 131.698 117.656C131.079 117.267 130.602 116.728 130.266 116.04C129.93 115.352 129.762 114.563 129.762 113.672C129.762 112.765 129.933 111.971 130.274 111.288C130.615 110.605 131.098 110.075 131.722 109.696C132.346 109.312 133.079 109.12 133.922 109.12C134.786 109.12 135.53 109.315 136.154 109.704C136.778 110.088 137.255 110.624 137.586 111.312C137.922 111.995 138.09 112.781 138.09 113.672C138.09 114.573 137.922 115.368 137.586 116.056C137.25 116.739 136.77 117.275 136.146 117.664C135.522 118.048 134.781 118.24 133.922 118.24ZM133.922 116.888C134.818 116.888 135.485 116.589 135.922 115.992C136.359 115.395 136.578 114.621 136.578 113.672C136.578 112.696 136.357 111.92 135.914 111.344C135.471 110.763 134.807 110.472 133.922 110.472C133.319 110.472 132.823 110.608 132.434 110.88C132.045 111.152 131.754 111.528 131.562 112.008C131.37 112.488 131.274 113.043 131.274 113.672C131.274 114.643 131.498 115.421 131.946 116.008C132.394 116.595 133.053 116.888 133.922 116.888ZM139.051 118V109.36H140.323V111.448L140.115 111.176C140.217 110.909 140.347 110.664 140.507 110.44C140.673 110.216 140.857 110.032 141.059 109.888C141.283 109.707 141.537 109.568 141.819 109.472C142.102 109.376 142.39 109.32 142.683 109.304C142.977 109.283 143.251 109.301 143.507 109.36V110.696C143.209 110.616 142.881 110.595 142.523 110.632C142.166 110.669 141.835 110.8 141.531 111.024C141.254 111.221 141.038 111.461 140.883 111.744C140.734 112.027 140.63 112.333 140.571 112.664C140.513 112.989 140.483 113.323 140.483 113.664V118H139.051ZM149.044 118C148.532 118.101 148.025 118.141 147.524 118.12C147.028 118.104 146.585 118.005 146.196 117.824C145.807 117.637 145.511 117.349 145.308 116.96C145.137 116.619 145.044 116.275 145.028 115.928C145.017 115.576 145.012 115.179 145.012 114.736V106.96H146.436V114.672C146.436 115.024 146.439 115.325 146.444 115.576C146.455 115.827 146.511 116.043 146.612 116.224C146.804 116.565 147.108 116.765 147.524 116.824C147.945 116.883 148.452 116.867 149.044 116.776V118ZM143.26 110.536V109.36H149.044V110.536H143.26ZM153.262 118.232C152.233 118.232 151.387 118.008 150.726 117.56C150.07 117.107 149.667 116.475 149.518 115.664L150.974 115.432C151.091 115.901 151.361 116.275 151.782 116.552C152.203 116.824 152.726 116.96 153.35 116.96C153.942 116.96 154.406 116.837 154.742 116.592C155.078 116.347 155.246 116.013 155.246 115.592C155.246 115.347 155.19 115.149 155.078 115C154.966 114.845 154.734 114.701 154.382 114.568C154.035 114.435 153.51 114.275 152.806 114.088C152.043 113.885 151.443 113.675 151.006 113.456C150.569 113.237 150.257 112.984 150.07 112.696C149.883 112.408 149.79 112.059 149.79 111.648C149.79 111.141 149.929 110.699 150.206 110.32C150.483 109.936 150.87 109.64 151.366 109.432C151.867 109.224 152.449 109.12 153.11 109.12C153.766 109.12 154.353 109.224 154.87 109.432C155.387 109.64 155.803 109.936 156.118 110.32C156.438 110.699 156.627 111.141 156.686 111.648L155.23 111.912C155.161 111.448 154.937 111.083 154.558 110.816C154.185 110.549 153.702 110.408 153.11 110.392C152.55 110.371 152.094 110.469 151.742 110.688C151.395 110.907 151.222 111.203 151.222 111.576C151.222 111.784 151.286 111.963 151.414 112.112C151.547 112.261 151.79 112.403 152.142 112.536C152.499 112.669 153.017 112.821 153.694 112.992C154.457 113.184 155.057 113.395 155.494 113.624C155.937 113.848 156.251 114.115 156.438 114.424C156.625 114.728 156.718 115.104 156.718 115.552C156.718 116.384 156.411 117.04 155.798 117.52C155.185 117.995 154.339 118.232 153.262 118.232Z" fill="white"/>
<path fill-rule="evenodd" clip-rule="evenodd" d="M1.5 160C1.5 154.201 6.20101 149.5 12 149.5C17.799 149.5 22.5 154.201 22.5 160C22.5 165.799 17.799 170.5 12 170.5C6.20101 170.5 1.5 165.799 1.5 160ZM15.7127 158.72C16.0055 158.427 16.0055 157.952 15.7127 157.659C15.4198 157.366 14.9449 157.366 14.652 157.659L10.9397 161.371L9.34869 159.78C9.0558 159.487 8.58092 159.487 8.28803 159.78C7.99514 160.073 7.99514 160.548 8.28803 160.841L10.4093 162.962C10.7022 163.255 11.1771 163.255 11.47 162.962L15.7127 158.72Z" fill="white"/>
<path d="M45.12 166V154.48H46.416L50.768 163.656L55.096 154.48H56.408V165.992H55.056V157.608L51.144 166H50.384L46.472 157.608V166H45.12ZM61.1312 166.224C60.5766 166.224 60.0992 166.136 59.6992 165.96C59.3046 165.784 58.9766 165.549 58.7152 165.256C58.4539 164.963 58.2486 164.637 58.0992 164.28C57.9499 163.923 57.8432 163.557 57.7792 163.184C57.7206 162.811 57.6912 162.461 57.6912 162.136V157.36H59.1312V161.688C59.1312 162.093 59.1686 162.485 59.2432 162.864C59.3179 163.243 59.4432 163.584 59.6193 163.888C59.8006 164.192 60.0406 164.432 60.3393 164.608C60.6432 164.784 61.0219 164.872 61.4753 164.872C61.8326 164.872 62.1579 164.811 62.4513 164.688C62.7446 164.565 62.9953 164.384 63.2032 164.144C63.4113 163.899 63.5713 163.589 63.6832 163.216C63.7953 162.843 63.8513 162.408 63.8513 161.912L64.7873 162.2C64.7873 163.032 64.6353 163.749 64.3313 164.352C64.0326 164.955 63.6086 165.419 63.0592 165.744C62.5152 166.064 61.8726 166.224 61.1312 166.224ZM64.0113 166V163.688H63.8513V157.36H65.2832V166H64.0113ZM66.8831 166V154.24H68.3071V166H66.8831ZM74.7315 166C74.2195 166.101 73.7128 166.141 73.2115 166.12C72.7155 166.104 72.2728 166.005 71.8835 165.824C71.4942 165.637 71.1982 165.349 70.9955 164.96C70.8248 164.619 70.7315 164.275 70.7155 163.928C70.7048 163.576 70.6995 163.179 70.6995 162.736V154.96H72.1235V162.672C72.1235 163.024 72.1262 163.325 72.1315 163.576C72.1422 163.827 72.1982 164.043 72.2995 164.224C72.4915 164.565 72.7955 164.765 73.2115 164.824C73.6328 164.883 74.1395 164.867 74.7315 164.776V166ZM68.9475 158.536V157.36H74.7315V158.536H68.9475ZM75.8456 155.832V154.36H77.2696V155.832H75.8456ZM75.8456 166V157.36H77.2696V166H75.8456ZM82.838 166.24C82.0273 166.24 81.3447 166.04 80.79 165.64C80.2353 165.235 79.814 164.688 79.526 164C79.2433 163.307 79.102 162.531 79.102 161.672C79.102 160.803 79.2433 160.024 79.526 159.336C79.814 158.648 80.2353 158.107 80.79 157.712C81.35 157.317 82.0353 157.12 82.846 157.12C83.646 157.12 84.334 157.32 84.91 157.72C85.4913 158.115 85.9367 158.656 86.246 159.344C86.5553 160.032 86.71 160.808 86.71 161.672C86.71 162.536 86.5553 163.312 86.246 164C85.9367 164.688 85.4913 165.235 84.91 165.64C84.334 166.04 83.6433 166.24 82.838 166.24ZM78.862 169.84V157.36H80.134V163.72H80.294V169.84H78.862ZM82.662 164.936C83.2327 164.936 83.7047 164.792 84.078 164.504C84.4513 164.216 84.7313 163.827 84.918 163.336C85.1047 162.84 85.198 162.285 85.198 161.672C85.198 161.064 85.1047 160.515 84.918 160.024C84.7367 159.533 84.454 159.144 84.07 158.856C83.6913 158.568 83.2087 158.424 82.622 158.424C82.062 158.424 81.598 158.563 81.23 158.84C80.862 159.112 80.5873 159.493 80.406 159.984C80.2247 160.469 80.134 161.032 80.134 161.672C80.134 162.301 80.222 162.864 80.398 163.36C80.5793 163.851 80.8567 164.237 81.23 164.52C81.6033 164.797 82.0807 164.936 82.662 164.936ZM87.8238 166V154.24H89.2478V166H87.8238ZM94.5921 166.24C93.7441 166.24 93.0028 166.053 92.3681 165.68C91.7388 165.301 91.2481 164.776 90.8961 164.104C90.5441 163.427 90.3681 162.637 90.3681 161.736C90.3681 160.792 90.5415 159.976 90.8881 159.288C91.2348 158.595 91.7175 158.061 92.3361 157.688C92.9601 157.309 93.6908 157.12 94.5281 157.12C95.3975 157.12 96.1361 157.32 96.7441 157.72C97.3575 158.12 97.8161 158.691 98.1201 159.432C98.4295 160.173 98.5628 161.056 98.5201 162.08H97.0801V161.568C97.0641 160.507 96.8481 159.715 96.4321 159.192C96.0161 158.664 95.3975 158.4 94.5761 158.4C93.6961 158.4 93.0268 158.683 92.5681 159.248C92.1095 159.813 91.8801 160.624 91.8801 161.68C91.8801 162.699 92.1095 163.488 92.5681 164.048C93.0268 164.608 93.6801 164.888 94.5281 164.888C95.0988 164.888 95.5948 164.757 96.0161 164.496C96.4375 164.235 96.7681 163.859 97.0081 163.368L98.3761 163.84C98.0401 164.603 97.5335 165.195 96.8561 165.616C96.1841 166.032 95.4295 166.24 94.5921 166.24ZM91.4001 162.08V160.936H97.7841V162.08H91.4001ZM101.904 166V154.48H105.456C105.574 154.48 105.779 154.483 106.072 154.488C106.366 154.493 106.646 154.515 106.912 154.552C107.803 154.669 108.547 154.995 109.144 155.528C109.747 156.056 110.2 156.728 110.504 157.544C110.808 158.36 110.96 159.259 110.96 160.24C110.96 161.221 110.808 162.12 110.504 162.936C110.2 163.752 109.747 164.427 109.144 164.96C108.547 165.488 107.803 165.811 106.912 165.928C106.646 165.96 106.363 165.981 106.064 165.992C105.771 165.997 105.568 166 105.456 166H101.904ZM103.368 164.64H105.456C105.659 164.64 105.886 164.635 106.136 164.624C106.387 164.608 106.606 164.584 106.792 164.552C107.422 164.435 107.931 164.171 108.32 163.76C108.71 163.349 108.995 162.837 109.176 162.224C109.358 161.611 109.448 160.949 109.448 160.24C109.448 159.515 109.355 158.845 109.168 158.232C108.987 157.619 108.702 157.109 108.312 156.704C107.923 156.299 107.416 156.04 106.792 155.928C106.606 155.891 106.384 155.867 106.128 155.856C105.872 155.845 105.648 155.84 105.456 155.84H103.368V164.64ZM115.739 166.24C114.891 166.24 114.15 166.053 113.515 165.68C112.886 165.301 112.395 164.776 112.043 164.104C111.691 163.427 111.515 162.637 111.515 161.736C111.515 160.792 111.688 159.976 112.035 159.288C112.382 158.595 112.864 158.061 113.483 157.688C114.107 157.309 114.838 157.12 115.675 157.12C116.544 157.12 117.283 157.32 117.891 157.72C118.504 158.12 118.963 158.691 119.267 159.432C119.576 160.173 119.71 161.056 119.667 162.08H118.227V161.568C118.211 160.507 117.995 159.715 117.579 159.192C117.163 158.664 116.544 158.4 115.723 158.4C114.843 158.4 114.174 158.683 113.715 159.248C113.256 159.813 113.027 160.624 113.027 161.68C113.027 162.699 113.256 163.488 113.715 164.048C114.174 164.608 114.827 164.888 115.675 164.888C116.246 164.888 116.742 164.757 117.163 164.496C117.584 164.235 117.915 163.859 118.155 163.368L119.523 163.84C119.187 164.603 118.68 165.195 118.003 165.616C117.331 166.032 116.576 166.24 115.739 166.24ZM112.547 162.08V160.936H118.931V162.08H112.547ZM122.672 166L119.536 157.36H120.976L123.4 164.184L125.816 157.36H127.264L124.128 166H122.672ZM128.071 155.832V154.36H129.495V155.832H128.071ZM128.071 166V157.36H129.495V166H128.071ZM134.735 166.24C133.86 166.24 133.116 166.045 132.503 165.656C131.895 165.261 131.431 164.72 131.111 164.032C130.791 163.344 130.626 162.56 130.615 161.68C130.626 160.779 130.794 159.987 131.119 159.304C131.45 158.616 131.922 158.08 132.535 157.696C133.148 157.312 133.887 157.12 134.751 157.12C135.663 157.12 136.447 157.344 137.103 157.792C137.764 158.24 138.207 158.853 138.431 159.632L137.023 160.056C136.842 159.555 136.546 159.165 136.135 158.888C135.73 158.611 135.263 158.472 134.735 158.472C134.143 158.472 133.655 158.611 133.271 158.888C132.887 159.16 132.602 159.539 132.415 160.024C132.228 160.504 132.132 161.056 132.127 161.68C132.138 162.64 132.359 163.416 132.791 164.008C133.228 164.595 133.876 164.888 134.735 164.888C135.3 164.888 135.77 164.76 136.143 164.504C136.516 164.243 136.799 163.867 136.991 163.376L138.431 163.752C138.132 164.557 137.666 165.173 137.031 165.6C136.396 166.027 135.631 166.24 134.735 166.24ZM142.773 166.24C141.925 166.24 141.184 166.053 140.549 165.68C139.92 165.301 139.429 164.776 139.077 164.104C138.725 163.427 138.549 162.637 138.549 161.736C138.549 160.792 138.723 159.976 139.069 159.288C139.416 158.595 139.899 158.061 140.517 157.688C141.141 157.309 141.872 157.12 142.709 157.12C143.579 157.12 144.317 157.32 144.925 157.72C145.539 158.12 145.997 158.691 146.301 159.432C146.611 160.173 146.744 161.056 146.701 162.08H145.261V161.568C145.245 160.507 145.029 159.715 144.613 159.192C144.197 158.664 143.579 158.4 142.757 158.4C141.877 158.4 141.208 158.683 140.749 159.248C140.291 159.813 140.061 160.624 140.061 161.68C140.061 162.699 140.291 163.488 140.749 164.048C141.208 164.608 141.861 164.888 142.709 164.888C143.28 164.888 143.776 164.757 144.197 164.496C144.619 164.235 144.949 163.859 145.189 163.368L146.557 163.84C146.221 164.603 145.715 165.195 145.037 165.616C144.365 166.032 143.611 166.24 142.773 166.24ZM139.581 162.08V160.936H145.965V162.08H139.581ZM150.947 166.232C149.917 166.232 149.072 166.008 148.411 165.56C147.755 165.107 147.352 164.475 147.203 163.664L148.659 163.432C148.776 163.901 149.045 164.275 149.467 164.552C149.888 164.824 150.411 164.96 151.035 164.96C151.627 164.96 152.091 164.837 152.427 164.592C152.763 164.347 152.931 164.013 152.931 163.592C152.931 163.347 152.875 163.149 152.763 163C152.651 162.845 152.419 162.701 152.067 162.568C151.72 162.435 151.195 162.275 150.491 162.088C149.728 161.885 149.128 161.675 148.691 161.456C148.253 161.237 147.941 160.984 147.755 160.696C147.568 160.408 147.475 160.059 147.475 159.648C147.475 159.141 147.613 158.699 147.891 158.32C148.168 157.936 148.555 157.64 149.051 157.432C149.552 157.224 150.133 157.12 150.795 157.12C151.451 157.12 152.037 157.224 152.555 157.432C153.072 157.64 153.488 157.936 153.803 158.32C154.123 158.699 154.312 159.141 154.371 159.648L152.915 159.912C152.845 159.448 152.621 159.083 152.243 158.816C151.869 158.549 151.387 158.408 150.795 158.392C150.235 158.371 149.779 158.469 149.427 158.688C149.08 158.907 148.907 159.203 148.907 159.576C148.907 159.784 148.971 159.963 149.099 160.112C149.232 160.261 149.475 160.403 149.827 160.536C150.184 160.669 150.701 160.821 151.379 160.992C152.141 161.184 152.741 161.395 153.179 161.624C153.621 161.848 153.936 162.115 154.123 162.424C154.309 162.728 154.403 163.104 154.403 163.552C154.403 164.384 154.096 165.04 153.483 165.52C152.869 165.995 152.024 166.232 150.947 166.232ZM161.858 166.24C161.042 166.24 160.306 166.101 159.65 165.824C158.999 165.547 158.461 165.152 158.034 164.64C157.613 164.123 157.338 163.512 157.21 162.808L158.682 162.576C158.869 163.301 159.255 163.869 159.842 164.28C160.434 164.685 161.13 164.888 161.93 164.888C162.447 164.888 162.914 164.808 163.33 164.648C163.751 164.483 164.085 164.248 164.33 163.944C164.575 163.64 164.698 163.28 164.698 162.864C164.698 162.608 164.653 162.389 164.562 162.208C164.477 162.021 164.357 161.864 164.202 161.736C164.053 161.603 163.882 161.491 163.69 161.4C163.498 161.309 163.298 161.235 163.09 161.176L160.154 160.304C159.834 160.208 159.525 160.088 159.226 159.944C158.927 159.795 158.661 159.611 158.426 159.392C158.191 159.168 158.005 158.901 157.866 158.592C157.727 158.277 157.658 157.907 157.658 157.48C157.658 156.797 157.834 156.216 158.186 155.736C158.543 155.251 159.026 154.88 159.634 154.624C160.242 154.368 160.927 154.243 161.69 154.248C162.463 154.253 163.154 154.392 163.762 154.664C164.375 154.931 164.882 155.315 165.282 155.816C165.687 156.317 165.959 156.917 166.098 157.616L164.586 157.88C164.506 157.411 164.327 157.008 164.05 156.672C163.778 156.331 163.437 156.069 163.026 155.888C162.615 155.701 162.165 155.605 161.674 155.6C161.205 155.595 160.781 155.669 160.402 155.824C160.023 155.979 159.722 156.195 159.498 156.472C159.274 156.744 159.162 157.059 159.162 157.416C159.162 157.768 159.263 158.053 159.466 158.272C159.669 158.485 159.917 158.656 160.21 158.784C160.509 158.907 160.799 159.008 161.082 159.088L163.274 159.72C163.525 159.789 163.813 159.885 164.138 160.008C164.469 160.131 164.789 160.304 165.098 160.528C165.407 160.747 165.663 161.04 165.866 161.408C166.069 161.771 166.17 162.229 166.17 162.784C166.17 163.339 166.058 163.832 165.834 164.264C165.615 164.696 165.309 165.059 164.914 165.352C164.519 165.64 164.061 165.859 163.538 166.008C163.015 166.163 162.455 166.24 161.858 166.24ZM170.328 166.224C169.773 166.224 169.296 166.136 168.896 165.96C168.501 165.784 168.173 165.549 167.912 165.256C167.651 164.963 167.445 164.637 167.296 164.28C167.147 163.923 167.04 163.557 166.976 163.184C166.917 162.811 166.888 162.461 166.888 162.136V157.36H168.328V161.688C168.328 162.093 168.365 162.485 168.44 162.864C168.515 163.243 168.64 163.584 168.816 163.888C168.997 164.192 169.237 164.432 169.536 164.608C169.84 164.784 170.219 164.872 170.672 164.872C171.029 164.872 171.355 164.811 171.648 164.688C171.941 164.565 172.192 164.384 172.4 164.144C172.608 163.899 172.768 163.589 172.88 163.216C172.992 162.843 173.048 162.408 173.048 161.912L173.984 162.2C173.984 163.032 173.832 163.749 173.528 164.352C173.229 164.955 172.805 165.419 172.256 165.744C171.712 166.064 171.069 166.224 170.328 166.224ZM173.208 166V163.688H173.048V157.36H174.48V166H173.208ZM179.888 166.24C179.077 166.24 178.395 166.04 177.84 165.64C177.285 165.235 176.864 164.688 176.576 164C176.293 163.307 176.152 162.531 176.152 161.672C176.152 160.803 176.293 160.024 176.576 159.336C176.864 158.648 177.285 158.107 177.84 157.712C178.4 157.317 179.085 157.12 179.896 157.12C180.696 157.12 181.384 157.32 181.96 157.72C182.541 158.115 182.987 158.656 183.296 159.344C183.605 160.032 183.76 160.808 183.76 161.672C183.76 162.536 183.605 163.312 183.296 164C182.987 164.688 182.541 165.235 181.96 165.64C181.384 166.04 180.693 166.24 179.888 166.24ZM175.912 169.84V157.36H177.184V163.72H177.344V169.84H175.912ZM179.712 164.936C180.283 164.936 180.755 164.792 181.128 164.504C181.501 164.216 181.781 163.827 181.968 163.336C182.155 162.84 182.248 162.285 182.248 161.672C182.248 161.064 182.155 160.515 181.968 160.024C181.787 159.533 181.504 159.144 181.12 158.856C180.741 158.568 180.259 158.424 179.672 158.424C179.112 158.424 178.648 158.563 178.28 158.84C177.912 159.112 177.637 159.493 177.456 159.984C177.275 160.469 177.184 161.032 177.184 161.672C177.184 162.301 177.272 162.864 177.448 163.36C177.629 163.851 177.907 164.237 178.28 164.52C178.653 164.797 179.131 164.936 179.712 164.936ZM188.682 166.24C187.871 166.24 187.188 166.04 186.634 165.64C186.079 165.235 185.658 164.688 185.37 164C185.087 163.307 184.946 162.531 184.946 161.672C184.946 160.803 185.087 160.024 185.37 159.336C185.658 158.648 186.079 158.107 186.634 157.712C187.194 157.317 187.879 157.12 188.69 157.12C189.49 157.12 190.178 157.32 190.754 157.72C191.335 158.115 191.78 158.656 192.09 159.344C192.399 160.032 192.554 160.808 192.554 161.672C192.554 162.536 192.399 163.312 192.09 164C191.78 164.688 191.335 165.235 190.754 165.64C190.178 166.04 189.487 166.24 188.682 166.24ZM184.706 169.84V157.36H185.978V163.72H186.138V169.84H184.706ZM188.506 164.936C189.076 164.936 189.548 164.792 189.922 164.504C190.295 164.216 190.575 163.827 190.762 163.336C190.948 162.84 191.042 162.285 191.042 161.672C191.042 161.064 190.948 160.515 190.762 160.024C190.58 159.533 190.298 159.144 189.914 158.856C189.535 158.568 189.052 158.424 188.466 158.424C187.906 158.424 187.442 158.563 187.074 158.84C186.706 159.112 186.431 159.493 186.25 159.984C186.068 160.469 185.978 161.032 185.978 161.672C185.978 162.301 186.066 162.864 186.242 163.36C186.423 163.851 186.7 164.237 187.074 164.52C187.447 164.797 187.924 164.936 188.506 164.936ZM197.187 166.24C196.329 166.24 195.587 166.045 194.963 165.656C194.345 165.267 193.867 164.728 193.531 164.04C193.195 163.352 193.027 162.563 193.027 161.672C193.027 160.765 193.198 159.971 193.539 159.288C193.881 158.605 194.363 158.075 194.987 157.696C195.611 157.312 196.345 157.12 197.187 157.12C198.051 157.12 198.795 157.315 199.419 157.704C200.043 158.088 200.521 158.624 200.851 159.312C201.187 159.995 201.355 160.781 201.355 161.672C201.355 162.573 201.187 163.368 200.851 164.056C200.515 164.739 200.035 165.275 199.411 165.664C198.787 166.048 198.046 166.24 197.187 166.24ZM197.187 164.888C198.083 164.888 198.75 164.589 199.187 163.992C199.625 163.395 199.843 162.621 199.843 161.672C199.843 160.696 199.622 159.92 199.179 159.344C198.737 158.763 198.073 158.472 197.187 158.472C196.585 158.472 196.089 158.608 195.699 158.88C195.31 159.152 195.019 159.528 194.827 160.008C194.635 160.488 194.539 161.043 194.539 161.672C194.539 162.643 194.763 163.421 195.211 164.008C195.659 164.595 196.318 164.888 197.187 164.888ZM202.317 166V157.36H203.589V159.448L203.381 159.176C203.482 158.909 203.613 158.664 203.773 158.44C203.938 158.216 204.122 158.032 204.325 157.888C204.549 157.707 204.802 157.568 205.085 157.472C205.368 157.376 205.656 157.32 205.949 157.304C206.242 157.283 206.517 157.301 206.773 157.36V158.696C206.474 158.616 206.146 158.595 205.789 158.632C205.432 158.669 205.101 158.8 204.797 159.024C204.52 159.221 204.304 159.461 204.149 159.744C204 160.027 203.896 160.333 203.837 160.664C203.778 160.989 203.749 161.323 203.749 161.664V166H202.317ZM212.31 166C211.798 166.101 211.291 166.141 210.79 166.12C210.294 166.104 209.851 166.005 209.462 165.824C209.072 165.637 208.776 165.349 208.574 164.96C208.403 164.619 208.31 164.275 208.294 163.928C208.283 163.576 208.278 163.179 208.278 162.736V154.96H209.702V162.672C209.702 163.024 209.704 163.325 209.71 163.576C209.72 163.827 209.776 164.043 209.878 164.224C210.07 164.565 210.374 164.765 210.79 164.824C211.211 164.883 211.718 164.867 212.31 164.776V166ZM206.526 158.536V157.36H212.31V158.536H206.526ZM216.648 166.24C215.8 166.24 215.059 166.053 214.424 165.68C213.795 165.301 213.304 164.776 212.952 164.104C212.6 163.427 212.424 162.637 212.424 161.736C212.424 160.792 212.598 159.976 212.944 159.288C213.291 158.595 213.774 158.061 214.392 157.688C215.016 157.309 215.747 157.12 216.584 157.12C217.454 157.12 218.192 157.32 218.8 157.72C219.414 158.12 219.872 158.691 220.176 159.432C220.486 160.173 220.619 161.056 220.576 162.08H219.136V161.568C219.12 160.507 218.904 159.715 218.488 159.192C218.072 158.664 217.454 158.4 216.632 158.4C215.752 158.4 215.083 158.683 214.624 159.248C214.166 159.813 213.936 160.624 213.936 161.68C213.936 162.699 214.166 163.488 214.624 164.048C215.083 164.608 215.736 164.888 216.584 164.888C217.155 164.888 217.651 164.757 218.072 164.496C218.494 164.235 218.824 163.859 219.064 163.368L220.432 163.84C220.096 164.603 219.59 165.195 218.912 165.616C218.24 166.032 217.486 166.24 216.648 166.24ZM213.456 162.08V160.936H219.84V162.08H213.456ZM224.95 166.24C224.144 166.24 223.454 166.04 222.878 165.64C222.302 165.235 221.856 164.688 221.542 164C221.232 163.312 221.078 162.536 221.078 161.672C221.078 160.808 221.232 160.032 221.542 159.344C221.856 158.656 222.302 158.115 222.878 157.72C223.454 157.32 224.142 157.12 224.942 157.12C225.758 157.12 226.443 157.317 226.998 157.712C227.552 158.107 227.971 158.648 228.254 159.336C228.542 160.024 228.686 160.803 228.686 161.672C228.686 162.531 228.542 163.307 228.254 164C227.971 164.688 227.552 165.235 226.998 165.64C226.443 166.04 225.76 166.24 224.95 166.24ZM225.126 164.936C225.707 164.936 226.184 164.797 226.558 164.52C226.931 164.237 227.206 163.851 227.382 163.36C227.563 162.864 227.654 162.301 227.654 161.672C227.654 161.032 227.563 160.469 227.382 159.984C227.206 159.493 226.934 159.112 226.566 158.84C226.198 158.563 225.731 158.424 225.166 158.424C224.579 158.424 224.094 158.568 223.71 158.856C223.331 159.144 223.048 159.533 222.862 160.024C222.68 160.515 222.59 161.064 222.59 161.672C222.59 162.285 222.683 162.84 222.87 163.336C223.056 163.827 223.336 164.216 223.71 164.504C224.088 164.792 224.56 164.936 225.126 164.936ZM227.654 166V159.64H227.494V154.48H228.926V166H227.654Z" fill="white"/>
</svg>
