<svg width="172" height="176" viewBox="0 0 172 176" fill="none" xmlns="http://www.w3.org/2000/svg">
<path fill-rule="evenodd" clip-rule="evenodd" d="M1.5 16C1.5 10.201 6.20101 5.5 12 5.5C17.799 5.5 22.5 10.201 22.5 16C22.5 21.799 17.799 26.5 12 26.5C6.20101 26.5 1.5 21.799 1.5 16ZM15.7127 14.7197C16.0055 14.4268 16.0055 13.9519 15.7127 13.659C15.4198 13.3661 14.9449 13.3661 14.652 13.659L10.9397 17.3713L9.34869 15.7804C9.0558 15.4875 8.58092 15.4875 8.28803 15.7804C7.99514 16.0732 7.99514 16.5481 8.28803 16.841L10.4093 18.9623C10.7022 19.2552 11.1771 19.2552 11.47 18.9623L15.7127 14.7197Z" fill="#05796B"/>
<path d="M49.856 22.24C48.7093 22.24 47.736 21.9867 46.936 21.48C46.136 20.9733 45.5253 20.2693 45.104 19.368C44.688 18.4667 44.48 17.424 44.48 16.24C44.48 15.056 44.688 14.0133 45.104 13.112C45.5253 12.2107 46.136 11.5067 46.936 11C47.736 10.4933 48.7093 10.24 49.856 10.24C51.1893 10.24 52.2853 10.5787 53.144 11.256C54.008 11.9333 54.6027 12.8453 54.928 13.992L53.48 14.376C53.2453 13.5173 52.8267 12.84 52.224 12.344C51.6213 11.848 50.832 11.6 49.856 11.6C48.9973 11.6 48.2827 11.7947 47.712 12.184C47.1413 12.5733 46.712 13.1173 46.424 13.816C46.136 14.5093 45.9893 15.3173 45.984 16.24C45.9787 17.1573 46.12 17.9653 46.408 18.664C46.696 19.3573 47.128 19.9013 47.704 20.296C48.28 20.6853 48.9973 20.88 49.856 20.88C50.832 20.88 51.6213 20.632 52.224 20.136C52.8267 19.6347 53.2453 18.9573 53.48 18.104L54.928 18.488C54.6027 19.6293 54.008 20.5413 53.144 21.224C52.2853 21.9013 51.1893 22.24 49.856 22.24ZM59.1625 22.224C58.6078 22.224 58.1305 22.136 57.7305 21.96C57.3358 21.784 57.0078 21.5493 56.7465 21.256C56.4852 20.9627 56.2798 20.6373 56.1305 20.28C55.9812 19.9227 55.8745 19.5573 55.8105 19.184C55.7518 18.8107 55.7225 18.4613 55.7225 18.136V13.36H57.1625V17.688C57.1625 18.0933 57.1998 18.4853 57.2745 18.864C57.3492 19.2427 57.4745 19.584 57.6505 19.888C57.8318 20.192 58.0718 20.432 58.3705 20.608C58.6745 20.784 59.0532 20.872 59.5065 20.872C59.8638 20.872 60.1892 20.8107 60.4825 20.688C60.7758 20.5653 61.0265 20.384 61.2345 20.144C61.4425 19.8987 61.6025 19.5893 61.7145 19.216C61.8265 18.8427 61.8825 18.408 61.8825 17.912L62.8185 18.2C62.8185 19.032 62.6665 19.7493 62.3625 20.352C62.0638 20.9547 61.6398 21.4187 61.0905 21.744C60.5465 22.064 59.9038 22.224 59.1625 22.224ZM62.0425 22V19.688H61.8825V13.36H63.3145V22H62.0425ZM68.0184 22.232C66.989 22.232 66.1437 22.008 65.4824 21.56C64.8264 21.1067 64.4237 20.4747 64.2744 19.664L65.7304 19.432C65.8477 19.9013 66.117 20.2747 66.5384 20.552C66.9597 20.824 67.4824 20.96 68.1064 20.96C68.6984 20.96 69.1624 20.8373 69.4984 20.592C69.8344 20.3467 70.0024 20.0133 70.0024 19.592C70.0024 19.3467 69.9464 19.1493 69.8344 19C69.7224 18.8453 69.4904 18.7013 69.1384 18.568C68.7917 18.4347 68.2664 18.2747 67.5624 18.088C66.7997 17.8853 66.1997 17.6747 65.7624 17.456C65.325 17.2373 65.013 16.984 64.8264 16.696C64.6397 16.408 64.5464 16.0587 64.5464 15.648C64.5464 15.1413 64.685 14.6987 64.9624 14.32C65.2397 13.936 65.6264 13.64 66.1224 13.432C66.6237 13.224 67.205 13.12 67.8664 13.12C68.5224 13.12 69.109 13.224 69.6264 13.432C70.1437 13.64 70.5597 13.936 70.8744 14.32C71.1944 14.6987 71.3837 15.1413 71.4424 15.648L69.9864 15.912C69.917 15.448 69.693 15.0827 69.3144 14.816C68.941 14.5493 68.4584 14.408 67.8664 14.392C67.3064 14.3707 66.8504 14.4693 66.4984 14.688C66.1517 14.9067 65.9784 15.2027 65.9784 15.576C65.9784 15.784 66.0424 15.9627 66.1704 16.112C66.3037 16.2613 66.5464 16.4027 66.8984 16.536C67.2557 16.6693 67.773 16.8213 68.4504 16.992C69.213 17.184 69.813 17.3947 70.2504 17.624C70.693 17.848 71.0077 18.1147 71.1944 18.424C71.381 18.728 71.4744 19.104 71.4744 19.552C71.4744 20.384 71.1677 21.04 70.5544 21.52C69.941 21.9947 69.0957 22.232 68.0184 22.232ZM77.2628 22C76.7508 22.1013 76.2441 22.1413 75.7428 22.12C75.2468 22.104 74.8041 22.0053 74.4148 21.824C74.0254 21.6373 73.7294 21.3493 73.5268 20.96C73.3561 20.6187 73.2628 20.2747 73.2468 19.928C73.2361 19.576 73.2308 19.1787 73.2308 18.736V10.96H74.6548V18.672C74.6548 19.024 74.6574 19.3253 74.6628 19.576C74.6734 19.8267 74.7294 20.0427 74.8308 20.224C75.0228 20.5653 75.3268 20.7653 75.7428 20.824C76.1641 20.8827 76.6708 20.8667 77.2628 20.776V22ZM71.4788 14.536V13.36H77.2628V14.536H71.4788ZM81.5375 22.24C80.6788 22.24 79.9375 22.0453 79.3135 21.656C78.6948 21.2667 78.2175 20.728 77.8815 20.04C77.5455 19.352 77.3775 18.5627 77.3775 17.672C77.3775 16.7653 77.5482 15.9707 77.8895 15.288C78.2308 14.6053 78.7135 14.0747 79.3375 13.696C79.9615 13.312 80.6948 13.12 81.5375 13.12C82.4015 13.12 83.1455 13.3147 83.7695 13.704C84.3935 14.088 84.8708 14.624 85.2015 15.312C85.5375 15.9947 85.7055 16.7813 85.7055 17.672C85.7055 18.5733 85.5375 19.368 85.2015 20.056C84.8655 20.7387 84.3855 21.2747 83.7615 21.664C83.1375 22.048 82.3962 22.24 81.5375 22.24ZM81.5375 20.888C82.4335 20.888 83.1002 20.5893 83.5375 19.992C83.9748 19.3947 84.1935 18.6213 84.1935 17.672C84.1935 16.696 83.9722 15.92 83.5295 15.344C83.0868 14.7627 82.4228 14.472 81.5375 14.472C80.9348 14.472 80.4388 14.608 80.0495 14.88C79.6602 15.152 79.3695 15.528 79.1775 16.008C78.9855 16.488 78.8895 17.0427 78.8895 17.672C78.8895 18.6427 79.1135 19.4213 79.5615 20.008C80.0095 20.5947 80.6682 20.888 81.5375 20.888ZM96.9949 22L97.0029 16.472C97.0029 15.8267 96.8295 15.3227 96.4829 14.96C96.1415 14.592 95.6962 14.408 95.1469 14.408C94.8269 14.408 94.5229 14.4827 94.2349 14.632C93.9469 14.776 93.7122 15.0053 93.5309 15.32C93.3495 15.6293 93.2589 16.0267 93.2589 16.512L92.5069 16.208C92.4962 15.5947 92.6215 15.0587 92.8829 14.6C93.1495 14.136 93.5122 13.776 93.9709 13.52C94.4295 13.264 94.9469 13.136 95.5229 13.136C96.4242 13.136 97.1335 13.4107 97.6509 13.96C98.1682 14.504 98.4269 15.2373 98.4269 16.16L98.4189 22H96.9949ZM86.6589 22V13.36H87.9309V15.672H88.0909V22H86.6589ZM91.8349 22L91.8429 16.528C91.8429 15.8667 91.6722 15.3493 91.3309 14.976C90.9895 14.5973 90.5362 14.408 89.9709 14.408C89.4109 14.408 88.9575 14.6 88.6109 14.984C88.2642 15.368 88.0909 15.8773 88.0909 16.512L87.3389 16.064C87.3389 15.504 87.4722 15.0027 87.7389 14.56C88.0055 14.1173 88.3682 13.7707 88.8269 13.52C89.2855 13.264 89.8055 13.136 90.3869 13.136C90.9682 13.136 91.4749 13.2587 91.9069 13.504C92.3389 13.7493 92.6722 14.1013 92.9069 14.56C93.1415 15.0133 93.2589 15.5547 93.2589 16.184L93.2509 22H91.8349ZM103.377 22.24C102.529 22.24 101.787 22.0533 101.153 21.68C100.523 21.3013 100.033 20.776 99.6805 20.104C99.3285 19.4267 99.1525 18.6373 99.1525 17.736C99.1525 16.792 99.3258 15.976 99.6725 15.288C100.019 14.5947 100.502 14.0613 101.121 13.688C101.745 13.3093 102.475 13.12 103.313 13.12C104.182 13.12 104.921 13.32 105.529 13.72C106.142 14.12 106.601 14.6907 106.905 15.432C107.214 16.1733 107.347 17.056 107.305 18.08H105.865V17.568C105.849 16.5067 105.633 15.7147 105.217 15.192C104.801 14.664 104.182 14.4 103.361 14.4C102.481 14.4 101.811 14.6827 101.353 15.248C100.894 15.8133 100.665 16.624 100.665 17.68C100.665 18.6987 100.894 19.488 101.353 20.048C101.811 20.608 102.465 20.888 103.313 20.888C103.883 20.888 104.379 20.7573 104.801 20.496C105.222 20.2347 105.553 19.8587 105.793 19.368L107.161 19.84C106.825 20.6027 106.318 21.1947 105.641 21.616C104.969 22.032 104.214 22.24 103.377 22.24ZM100.185 18.08V16.936H106.569V18.08H100.185ZM108.286 22V13.36H109.558V15.448L109.35 15.176C109.451 14.9093 109.582 14.664 109.742 14.44C109.907 14.216 110.091 14.032 110.294 13.888C110.518 13.7067 110.771 13.568 111.054 13.472C111.336 13.376 111.624 13.32 111.918 13.304C112.211 13.2827 112.486 13.3013 112.742 13.36V14.696C112.443 14.616 112.115 14.5947 111.758 14.632C111.4 14.6693 111.07 14.8 110.766 15.024C110.488 15.2213 110.272 15.4613 110.118 15.744C109.968 16.0267 109.864 16.3333 109.806 16.664C109.747 16.9893 109.718 17.3227 109.718 17.664V22H108.286ZM119.946 22.24C119.13 22.24 118.394 22.1013 117.738 21.824C117.087 21.5467 116.548 21.152 116.122 20.64C115.7 20.1227 115.426 19.512 115.298 18.808L116.77 18.576C116.956 19.3013 117.343 19.8693 117.93 20.28C118.522 20.6853 119.218 20.888 120.018 20.888C120.535 20.888 121.002 20.808 121.418 20.648C121.839 20.4827 122.172 20.248 122.418 19.944C122.663 19.64 122.786 19.28 122.786 18.864C122.786 18.608 122.74 18.3893 122.65 18.208C122.564 18.0213 122.444 17.864 122.29 17.736C122.14 17.6027 121.97 17.4907 121.778 17.4C121.586 17.3093 121.386 17.2347 121.178 17.176L118.242 16.304C117.922 16.208 117.612 16.088 117.314 15.944C117.015 15.7947 116.748 15.6107 116.514 15.392C116.279 15.168 116.092 14.9013 115.954 14.592C115.815 14.2773 115.746 13.9067 115.746 13.48C115.746 12.7973 115.922 12.216 116.274 11.736C116.631 11.2507 117.114 10.88 117.722 10.624C118.33 10.368 119.015 10.2427 119.778 10.248C120.551 10.2533 121.242 10.392 121.85 10.664C122.463 10.9307 122.97 11.3147 123.37 11.816C123.775 12.3173 124.047 12.9173 124.186 13.616L122.674 13.88C122.594 13.4107 122.415 13.008 122.138 12.672C121.866 12.3307 121.524 12.0693 121.114 11.888C120.703 11.7013 120.252 11.6053 119.762 11.6C119.292 11.5947 118.868 11.6693 118.49 11.824C118.111 11.9787 117.81 12.1947 117.586 12.472C117.362 12.744 117.25 13.0587 117.25 13.416C117.25 13.768 117.351 14.0533 117.554 14.272C117.756 14.4853 118.004 14.656 118.298 14.784C118.596 14.9067 118.887 15.008 119.17 15.088L121.362 15.72C121.612 15.7893 121.9 15.8853 122.226 16.008C122.556 16.1307 122.876 16.304 123.186 16.528C123.495 16.7467 123.751 17.04 123.954 17.408C124.156 17.7707 124.258 18.2293 124.258 18.784C124.258 19.3387 124.146 19.832 123.922 20.264C123.703 20.696 123.396 21.0587 123.002 21.352C122.607 21.64 122.148 21.8587 121.626 22.008C121.103 22.1627 120.543 22.24 119.946 22.24ZM128.416 22.224C127.861 22.224 127.384 22.136 126.984 21.96C126.589 21.784 126.261 21.5493 126 21.256C125.738 20.9627 125.533 20.6373 125.384 20.28C125.234 19.9227 125.128 19.5573 125.064 19.184C125.005 18.8107 124.976 18.4613 124.976 18.136V13.36H126.416V17.688C126.416 18.0933 126.453 18.4853 126.528 18.864C126.602 19.2427 126.728 19.584 126.904 19.888C127.085 20.192 127.325 20.432 127.624 20.608C127.928 20.784 128.306 20.872 128.76 20.872C129.117 20.872 129.442 20.8107 129.736 20.688C130.029 20.5653 130.28 20.384 130.488 20.144C130.696 19.8987 130.856 19.5893 130.968 19.216C131.08 18.8427 131.136 18.408 131.136 17.912L132.072 18.2C132.072 19.032 131.92 19.7493 131.616 20.352C131.317 20.9547 130.893 21.4187 130.344 21.744C129.8 22.064 129.157 22.224 128.416 22.224ZM131.296 22V19.688H131.136V13.36H132.568V22H131.296ZM137.975 22.24C137.165 22.24 136.482 22.04 135.927 21.64C135.373 21.2347 134.951 20.688 134.663 20C134.381 19.3067 134.239 18.5307 134.239 17.672C134.239 16.8027 134.381 16.024 134.663 15.336C134.951 14.648 135.373 14.1067 135.927 13.712C136.487 13.3173 137.173 13.12 137.983 13.12C138.783 13.12 139.471 13.32 140.047 13.72C140.629 14.1147 141.074 14.656 141.383 15.344C141.693 16.032 141.847 16.808 141.847 17.672C141.847 18.536 141.693 19.312 141.383 20C141.074 20.688 140.629 21.2347 140.047 21.64C139.471 22.04 138.781 22.24 137.975 22.24ZM133.999 25.84V13.36H135.271V19.72H135.431V25.84H133.999ZM137.799 20.936C138.37 20.936 138.842 20.792 139.215 20.504C139.589 20.216 139.869 19.8267 140.055 19.336C140.242 18.84 140.335 18.2853 140.335 17.672C140.335 17.064 140.242 16.5147 140.055 16.024C139.874 15.5333 139.591 15.144 139.207 14.856C138.829 14.568 138.346 14.424 137.759 14.424C137.199 14.424 136.735 14.5627 136.367 14.84C135.999 15.112 135.725 15.4933 135.543 15.984C135.362 16.4693 135.271 17.032 135.271 17.672C135.271 18.3013 135.359 18.864 135.535 19.36C135.717 19.8507 135.994 20.2373 136.367 20.52C136.741 20.7973 137.218 20.936 137.799 20.936ZM146.769 22.24C145.959 22.24 145.276 22.04 144.721 21.64C144.167 21.2347 143.745 20.688 143.457 20C143.175 19.3067 143.033 18.5307 143.033 17.672C143.033 16.8027 143.175 16.024 143.457 15.336C143.745 14.648 144.167 14.1067 144.721 13.712C145.281 13.3173 145.967 13.12 146.777 13.12C147.577 13.12 148.265 13.32 148.841 13.72C149.423 14.1147 149.868 14.656 150.177 15.344C150.487 16.032 150.641 16.808 150.641 17.672C150.641 18.536 150.487 19.312 150.177 20C149.868 20.688 149.423 21.2347 148.841 21.64C148.265 22.04 147.575 22.24 146.769 22.24ZM142.793 25.84V13.36H144.065V19.72H144.225V25.84H142.793ZM146.593 20.936C147.164 20.936 147.636 20.792 148.009 20.504C148.383 20.216 148.663 19.8267 148.849 19.336C149.036 18.84 149.129 18.2853 149.129 17.672C149.129 17.064 149.036 16.5147 148.849 16.024C148.668 15.5333 148.385 15.144 148.001 14.856C147.623 14.568 147.14 14.424 146.553 14.424C145.993 14.424 145.529 14.5627 145.161 14.84C144.793 15.112 144.519 15.4933 144.337 15.984C144.156 16.4693 144.065 17.032 144.065 17.672C144.065 18.3013 144.153 18.864 144.329 19.36C144.511 19.8507 144.788 20.2373 145.161 20.52C145.535 20.7973 146.012 20.936 146.593 20.936ZM155.275 22.24C154.416 22.24 153.675 22.0453 153.051 21.656C152.432 21.2667 151.955 20.728 151.619 20.04C151.283 19.352 151.115 18.5627 151.115 17.672C151.115 16.7653 151.286 15.9707 151.627 15.288C151.968 14.6053 152.451 14.0747 153.075 13.696C153.699 13.312 154.432 13.12 155.275 13.12C156.139 13.12 156.883 13.3147 157.507 13.704C158.131 14.088 158.608 14.624 158.939 15.312C159.275 15.9947 159.443 16.7813 159.443 17.672C159.443 18.5733 159.275 19.368 158.939 20.056C158.603 20.7387 158.123 21.2747 157.499 21.664C156.875 22.048 156.134 22.24 155.275 22.24ZM155.275 20.888C156.171 20.888 156.838 20.5893 157.275 19.992C157.712 19.3947 157.931 18.6213 157.931 17.672C157.931 16.696 157.71 15.92 157.267 15.344C156.824 14.7627 156.16 14.472 155.275 14.472C154.672 14.472 154.176 14.608 153.787 14.88C153.398 15.152 153.107 15.528 152.915 16.008C152.723 16.488 152.627 17.0427 152.627 17.672C152.627 18.6427 152.851 19.4213 153.299 20.008C153.747 20.5947 154.406 20.888 155.275 20.888ZM160.404 22V13.36H161.676V15.448L161.468 15.176C161.57 14.9093 161.7 14.664 161.86 14.44C162.026 14.216 162.21 14.032 162.412 13.888C162.636 13.7067 162.89 13.568 163.172 13.472C163.455 13.376 163.743 13.32 164.036 13.304C164.33 13.2827 164.604 13.3013 164.86 13.36V14.696C164.562 14.616 164.234 14.5947 163.876 14.632C163.519 14.6693 163.188 14.8 162.884 15.024C162.607 15.2213 162.391 15.4613 162.236 15.744C162.087 16.0267 161.983 16.3333 161.924 16.664C161.866 16.9893 161.836 17.3227 161.836 17.664V22H160.404ZM170.397 22C169.885 22.1013 169.378 22.1413 168.877 22.12C168.381 22.104 167.938 22.0053 167.549 21.824C167.16 21.6373 166.864 21.3493 166.661 20.96C166.49 20.6187 166.397 20.2747 166.381 19.928C166.37 19.576 166.365 19.1787 166.365 18.736V10.96H167.789V18.672C167.789 19.024 167.792 19.3253 167.797 19.576C167.808 19.8267 167.864 20.0427 167.965 20.224C168.157 20.5653 168.461 20.7653 168.877 20.824C169.298 20.8827 169.805 20.8667 170.397 20.776V22ZM164.613 14.536V13.36H170.397V14.536H164.613Z" fill="#8593A3"/>
<path fill-rule="evenodd" clip-rule="evenodd" d="M1.5 64C1.5 58.201 6.20101 53.5 12 53.5C17.799 53.5 22.5 58.201 22.5 64C22.5 69.799 17.799 74.5 12 74.5C6.20101 74.5 1.5 69.799 1.5 64ZM15.7127 62.7197C16.0055 62.4268 16.0055 61.9519 15.7127 61.659C15.4198 61.3661 14.9449 61.3661 14.652 61.659L10.9397 65.3713L9.34869 63.7804C9.0558 63.4875 8.58092 63.4875 8.28803 63.7804C7.99514 64.0732 7.99514 64.5481 8.28803 64.841L10.4093 66.9623C10.7022 67.2552 11.1771 67.2552 11.47 66.9623L15.7127 62.7197Z" fill="#05796B"/>
<path d="M45.12 70V58.48H51.84V59.904H46.544V63.528H50.88V64.952H46.544V70H45.12ZM52.4762 70V61.36H53.7483V63.448L53.5402 63.176C53.6416 62.9093 53.7723 62.664 53.9323 62.44C54.0976 62.216 54.2816 62.032 54.4843 61.888C54.7083 61.7067 54.9616 61.568 55.2443 61.472C55.5269 61.376 55.8149 61.32 56.1083 61.304C56.4016 61.2827 56.6763 61.3013 56.9323 61.36V62.696C56.6336 62.616 56.3056 62.5947 55.9482 62.632C55.5909 62.6693 55.2603 62.8 54.9562 63.024C54.6789 63.2213 54.4629 63.4613 54.3082 63.744C54.1589 64.0267 54.0549 64.3333 53.9962 64.664C53.9376 64.9893 53.9082 65.3227 53.9082 65.664V70H52.4762ZM61.2327 70.24C60.3847 70.24 59.6434 70.0533 59.0087 69.68C58.3794 69.3013 57.8887 68.776 57.5367 68.104C57.1847 67.4267 57.0087 66.6373 57.0087 65.736C57.0087 64.792 57.1821 63.976 57.5287 63.288C57.8754 62.5947 58.3581 62.0613 58.9767 61.688C59.6007 61.3093 60.3314 61.12 61.1687 61.12C62.0381 61.12 62.7767 61.32 63.3847 61.72C63.9981 62.12 64.4567 62.6907 64.7607 63.432C65.0701 64.1733 65.2034 65.056 65.1608 66.08H63.7207V65.568C63.7048 64.5067 63.4888 63.7147 63.0728 63.192C62.6568 62.664 62.0381 62.4 61.2167 62.4C60.3367 62.4 59.6674 62.6827 59.2087 63.248C58.7501 63.8133 58.5207 64.624 58.5207 65.68C58.5207 66.6987 58.7501 67.488 59.2087 68.048C59.6674 68.608 60.3207 68.888 61.1687 68.888C61.7394 68.888 62.2354 68.7573 62.6567 68.496C63.0781 68.2347 63.4088 67.8587 63.6487 67.368L65.0168 67.84C64.6807 68.6027 64.1741 69.1947 63.4967 69.616C62.8247 70.032 62.0701 70.24 61.2327 70.24ZM58.0407 66.08V64.936H64.4248V66.08H58.0407ZM69.8859 70.24C69.0379 70.24 68.2965 70.0533 67.6619 69.68C67.0325 69.3013 66.5419 68.776 66.1899 68.104C65.8379 67.4267 65.6619 66.6373 65.6619 65.736C65.6619 64.792 65.8352 63.976 66.1819 63.288C66.5285 62.5947 67.0112 62.0613 67.6299 61.688C68.2539 61.3093 68.9845 61.12 69.8219 61.12C70.6912 61.12 71.4299 61.32 72.0379 61.72C72.6512 62.12 73.1099 62.6907 73.4139 63.432C73.7232 64.1733 73.8565 65.056 73.8139 66.08H72.3739V65.568C72.3579 64.5067 72.1419 63.7147 71.7259 63.192C71.3099 62.664 70.6912 62.4 69.8699 62.4C68.9899 62.4 68.3205 62.6827 67.8619 63.248C67.4032 63.8133 67.1739 64.624 67.1739 65.68C67.1739 66.6987 67.4032 67.488 67.8619 68.048C68.3205 68.608 68.9739 68.888 69.8219 68.888C70.3925 68.888 70.8885 68.7573 71.3099 68.496C71.7312 68.2347 72.0619 67.8587 72.3019 67.368L73.6699 67.84C73.3339 68.6027 72.8272 69.1947 72.1499 69.616C71.4779 70.032 70.7232 70.24 69.8859 70.24ZM66.6939 66.08V64.936H73.0779V66.08H66.6939ZM81.7421 70.24C80.8515 70.24 80.0648 70.056 79.3821 69.688C78.6995 69.32 78.1635 68.8053 77.7741 68.144C77.3901 67.4773 77.1981 66.696 77.1981 65.8V58.488L78.6381 58.48V65.68C78.6381 66.224 78.7288 66.6987 78.9101 67.104C79.0968 67.504 79.3421 67.8373 79.6461 68.104C79.9501 68.3707 80.2835 68.5707 80.6461 68.704C81.0141 68.832 81.3795 68.896 81.7421 68.896C82.1101 68.896 82.4781 68.8293 82.8461 68.696C83.2141 68.5627 83.5475 68.3653 83.8461 68.104C84.1501 67.8373 84.3928 67.5013 84.5741 67.096C84.7555 66.6907 84.8461 66.2187 84.8461 65.68V58.48H86.2861V65.8C86.2861 66.6907 86.0915 67.4693 85.7021 68.136C85.3181 68.8027 84.7848 69.32 84.1021 69.688C83.4195 70.056 82.6328 70.24 81.7421 70.24ZM90.9903 70.232C89.9609 70.232 89.1156 70.008 88.4543 69.56C87.7983 69.1067 87.3956 68.4747 87.2463 67.664L88.7023 67.432C88.8196 67.9013 89.0889 68.2747 89.5103 68.552C89.9316 68.824 90.4543 68.96 91.0783 68.96C91.6703 68.96 92.1343 68.8373 92.4703 68.592C92.8063 68.3467 92.9743 68.0133 92.9743 67.592C92.9743 67.3467 92.9183 67.1493 92.8063 67C92.6943 66.8453 92.4623 66.7013 92.1103 66.568C91.7636 66.4347 91.2383 66.2747 90.5343 66.088C89.7716 65.8853 89.1716 65.6747 88.7343 65.456C88.2969 65.2373 87.9849 64.984 87.7983 64.696C87.6116 64.408 87.5183 64.0587 87.5183 63.648C87.5183 63.1413 87.6569 62.6987 87.9343 62.32C88.2116 61.936 88.5983 61.64 89.0943 61.432C89.5956 61.224 90.1769 61.12 90.8383 61.12C91.4943 61.12 92.0809 61.224 92.5983 61.432C93.1156 61.64 93.5316 61.936 93.8463 62.32C94.1663 62.6987 94.3556 63.1413 94.4143 63.648L92.9583 63.912C92.8889 63.448 92.6649 63.0827 92.2863 62.816C91.9129 62.5493 91.4303 62.408 90.8383 62.392C90.2783 62.3707 89.8223 62.4693 89.4703 62.688C89.1236 62.9067 88.9503 63.2027 88.9503 63.576C88.9503 63.784 89.0143 63.9627 89.1423 64.112C89.2756 64.2613 89.5183 64.4027 89.8703 64.536C90.2276 64.6693 90.7449 64.8213 91.4223 64.992C92.1849 65.184 92.7849 65.3947 93.2223 65.624C93.6649 65.848 93.9796 66.1147 94.1663 66.424C94.3529 66.728 94.4463 67.104 94.4463 67.552C94.4463 68.384 94.1396 69.04 93.5263 69.52C92.9129 69.9947 92.0676 70.232 90.9903 70.232ZM99.1546 70.24C98.3066 70.24 97.5653 70.0533 96.9306 69.68C96.3013 69.3013 95.8106 68.776 95.4586 68.104C95.1066 67.4267 94.9306 66.6373 94.9306 65.736C94.9306 64.792 95.104 63.976 95.4506 63.288C95.7973 62.5947 96.28 62.0613 96.8986 61.688C97.5226 61.3093 98.2533 61.12 99.0906 61.12C99.96 61.12 100.699 61.32 101.307 61.72C101.92 62.12 102.379 62.6907 102.683 63.432C102.992 64.1733 103.125 65.056 103.083 66.08H101.643V65.568C101.627 64.5067 101.411 63.7147 100.995 63.192C100.579 62.664 99.96 62.4 99.1386 62.4C98.2586 62.4 97.5893 62.6827 97.1306 63.248C96.672 63.8133 96.4426 64.624 96.4426 65.68C96.4426 66.6987 96.672 67.488 97.1306 68.048C97.5893 68.608 98.2426 68.888 99.0906 68.888C99.6613 68.888 100.157 68.7573 100.579 68.496C101 68.2347 101.331 67.8587 101.571 67.368L102.939 67.84C102.603 68.6027 102.096 69.1947 101.419 69.616C100.747 70.032 99.992 70.24 99.1546 70.24ZM95.9626 66.08V64.936H102.347V66.08H95.9626ZM104.064 70V61.36H105.336V63.448L105.128 63.176C105.229 62.9093 105.36 62.664 105.52 62.44C105.685 62.216 105.869 62.032 106.072 61.888C106.296 61.7067 106.549 61.568 106.832 61.472C107.114 61.376 107.402 61.32 107.696 61.304C107.989 61.2827 108.264 61.3013 108.52 61.36V62.696C108.221 62.616 107.893 62.5947 107.536 62.632C107.178 62.6693 106.848 62.8 106.544 63.024C106.266 63.2213 106.05 63.4613 105.896 63.744C105.746 64.0267 105.642 64.3333 105.584 64.664C105.525 64.9893 105.496 65.3227 105.496 65.664V70H104.064ZM110.836 70L114.692 58.48H116.676L120.532 70H119.052L115.444 59.312H115.892L112.316 70H110.836ZM112.692 67.304V65.968H118.676V67.304H112.692ZM124.804 70.24C123.929 70.24 123.185 70.0453 122.572 69.656C121.964 69.2613 121.5 68.72 121.18 68.032C120.86 67.344 120.694 66.56 120.684 65.68C120.694 64.7787 120.862 63.9867 121.188 63.304C121.518 62.616 121.99 62.08 122.604 61.696C123.217 61.312 123.956 61.12 124.82 61.12C125.732 61.12 126.516 61.344 127.172 61.792C127.833 62.24 128.276 62.8533 128.5 63.632L127.092 64.056C126.91 63.5547 126.614 63.1653 126.204 62.888C125.798 62.6107 125.332 62.472 124.804 62.472C124.212 62.472 123.724 62.6107 123.34 62.888C122.956 63.16 122.67 63.5387 122.484 64.024C122.297 64.504 122.201 65.056 122.196 65.68C122.206 66.64 122.428 67.416 122.86 68.008C123.297 68.5947 123.945 68.888 124.804 68.888C125.369 68.888 125.838 68.76 126.212 68.504C126.585 68.2427 126.868 67.8667 127.06 67.376L128.5 67.752C128.201 68.5573 127.734 69.1733 127.1 69.6C126.465 70.0267 125.7 70.24 124.804 70.24ZM132.738 70.24C131.863 70.24 131.119 70.0453 130.506 69.656C129.898 69.2613 129.434 68.72 129.114 68.032C128.794 67.344 128.629 66.56 128.618 65.68C128.629 64.7787 128.797 63.9867 129.122 63.304C129.453 62.616 129.925 62.08 130.538 61.696C131.151 61.312 131.89 61.12 132.754 61.12C133.666 61.12 134.45 61.344 135.106 61.792C135.767 62.24 136.21 62.8533 136.434 63.632L135.026 64.056C134.845 63.5547 134.549 63.1653 134.138 62.888C133.733 62.6107 133.266 62.472 132.738 62.472C132.146 62.472 131.658 62.6107 131.274 62.888C130.89 63.16 130.605 63.5387 130.418 64.024C130.231 64.504 130.135 65.056 130.13 65.68C130.141 66.64 130.362 67.416 130.794 68.008C131.231 68.5947 131.879 68.888 132.738 68.888C133.303 68.888 133.773 68.76 134.146 68.504C134.519 68.2427 134.802 67.8667 134.994 67.376L136.434 67.752C136.135 68.5573 135.669 69.1733 135.034 69.6C134.399 70.0267 133.634 70.24 132.738 70.24ZM140.712 70.24C139.854 70.24 139.112 70.0453 138.488 69.656C137.87 69.2667 137.392 68.728 137.056 68.04C136.72 67.352 136.552 66.5627 136.552 65.672C136.552 64.7653 136.723 63.9707 137.064 63.288C137.406 62.6053 137.888 62.0747 138.512 61.696C139.136 61.312 139.87 61.12 140.712 61.12C141.576 61.12 142.32 61.3147 142.944 61.704C143.568 62.088 144.046 62.624 144.376 63.312C144.712 63.9947 144.88 64.7813 144.88 65.672C144.88 66.5733 144.712 67.368 144.376 68.056C144.04 68.7387 143.56 69.2747 142.936 69.664C142.312 70.048 141.571 70.24 140.712 70.24ZM140.712 68.888C141.608 68.888 142.275 68.5893 142.712 67.992C143.15 67.3947 143.368 66.6213 143.368 65.672C143.368 64.696 143.147 63.92 142.704 63.344C142.262 62.7627 141.598 62.472 140.712 62.472C140.11 62.472 139.614 62.608 139.224 62.88C138.835 63.152 138.544 63.528 138.352 64.008C138.16 64.488 138.064 65.0427 138.064 65.672C138.064 66.6427 138.288 67.4213 138.736 68.008C139.184 68.5947 139.843 68.888 140.712 68.888ZM149.122 70.224C148.567 70.224 148.09 70.136 147.69 69.96C147.295 69.784 146.967 69.5493 146.706 69.256C146.445 68.9627 146.239 68.6373 146.09 68.28C145.941 67.9227 145.834 67.5573 145.77 67.184C145.711 66.8107 145.682 66.4613 145.682 66.136V61.36H147.122V65.688C147.122 66.0933 147.159 66.4853 147.234 66.864C147.309 67.2427 147.434 67.584 147.61 67.888C147.791 68.192 148.031 68.432 148.33 68.608C148.634 68.784 149.013 68.872 149.466 68.872C149.823 68.872 150.149 68.8107 150.442 68.688C150.735 68.5653 150.986 68.384 151.194 68.144C151.402 67.8987 151.562 67.5893 151.674 67.216C151.786 66.8427 151.842 66.408 151.842 65.912L152.778 66.2C152.778 67.032 152.626 67.7493 152.322 68.352C152.023 68.9547 151.599 69.4187 151.05 69.744C150.506 70.064 149.863 70.224 149.122 70.224ZM152.002 70V67.688H151.842V61.36H153.274V70H152.002ZM160.866 70V65.672C160.866 65.2613 160.828 64.8667 160.754 64.488C160.684 64.1093 160.559 63.7707 160.378 63.472C160.202 63.168 159.962 62.928 159.658 62.752C159.359 62.576 158.98 62.488 158.522 62.488C158.164 62.488 157.839 62.5493 157.546 62.672C157.258 62.7893 157.01 62.9707 156.802 63.216C156.594 63.4613 156.431 63.7707 156.314 64.144C156.202 64.512 156.146 64.9467 156.146 65.448L155.21 65.16C155.21 64.3227 155.359 63.6053 155.658 63.008C155.962 62.4053 156.386 61.944 156.93 61.624C157.479 61.2987 158.124 61.136 158.866 61.136C159.426 61.136 159.903 61.224 160.298 61.4C160.692 61.576 161.02 61.8107 161.282 62.104C161.543 62.392 161.748 62.7173 161.898 63.08C162.047 63.4373 162.151 63.8027 162.21 64.176C162.274 64.544 162.306 64.8933 162.306 65.224V70H160.866ZM154.706 70V61.36H155.986V63.672H156.146V70H154.706ZM168.41 70C167.898 70.1013 167.391 70.1413 166.89 70.12C166.394 70.104 165.951 70.0053 165.562 69.824C165.172 69.6373 164.876 69.3493 164.674 68.96C164.503 68.6187 164.41 68.2747 164.394 67.928C164.383 67.576 164.378 67.1787 164.378 66.736V58.96H165.802V66.672C165.802 67.024 165.804 67.3253 165.81 67.576C165.82 67.8267 165.876 68.0427 165.978 68.224C166.17 68.5653 166.474 68.7653 166.89 68.824C167.311 68.8827 167.818 68.8667 168.41 68.776V70ZM162.626 62.536V61.36H168.41V62.536H162.626Z" fill="#8593A3"/>
<g opacity="0.64">
<path fill-rule="evenodd" clip-rule="evenodd" d="M1.5 112C1.5 106.201 6.20101 101.5 12 101.5C17.799 101.5 22.5 106.201 22.5 112C22.5 117.799 17.799 122.5 12 122.5C6.20101 122.5 1.5 117.799 1.5 112ZM9.87896 108.818C9.58607 108.525 9.1112 108.525 8.8183 108.818C8.52541 109.111 8.52541 109.586 8.8183 109.879L10.9396 112L8.81831 114.121C8.52542 114.414 8.52542 114.889 8.81831 115.182C9.1112 115.475 9.58608 115.475 9.87897 115.182L12.0003 113.061L14.1216 115.182C14.4145 115.475 14.8894 115.475 15.1823 115.182C15.4752 114.889 15.4752 114.414 15.1823 114.121L13.0609 112L15.1823 109.879C15.4752 109.586 15.4752 109.111 15.1823 108.818C14.8894 108.525 14.4145 108.525 14.1216 108.818L12.0003 110.939L9.87896 108.818Z" fill="#FF6954" fill-opacity="0.32"/>
<path d="M45.12 118V106.48H46.416L50.768 115.656L55.096 106.48H56.408V117.992H55.056V109.608L51.144 118H50.384L46.472 109.608V118H45.12ZM61.5312 118.24C60.6726 118.24 59.9312 118.045 59.3073 117.656C58.6886 117.267 58.2112 116.728 57.8752 116.04C57.5392 115.352 57.3712 114.563 57.3712 113.672C57.3712 112.765 57.5419 111.971 57.8832 111.288C58.2246 110.605 58.7072 110.075 59.3312 109.696C59.9553 109.312 60.6886 109.12 61.5312 109.12C62.3953 109.12 63.1393 109.315 63.7633 109.704C64.3873 110.088 64.8646 110.624 65.1953 111.312C65.5313 111.995 65.6993 112.781 65.6993 113.672C65.6993 114.573 65.5313 115.368 65.1953 116.056C64.8593 116.739 64.3793 117.275 63.7552 117.664C63.1313 118.048 62.3899 118.24 61.5312 118.24ZM61.5312 116.888C62.4272 116.888 63.0939 116.589 63.5312 115.992C63.9686 115.395 64.1873 114.621 64.1873 113.672C64.1873 112.696 63.9659 111.92 63.5233 111.344C63.0806 110.763 62.4166 110.472 61.5312 110.472C60.9286 110.472 60.4326 110.608 60.0433 110.88C59.6539 111.152 59.3632 111.528 59.1712 112.008C58.9792 112.488 58.8832 113.043 58.8832 113.672C58.8832 114.643 59.1072 115.421 59.5552 116.008C60.0032 116.595 60.6619 116.888 61.5312 116.888ZM72.8126 118V113.672C72.8126 113.261 72.7753 112.867 72.7006 112.488C72.6313 112.109 72.506 111.771 72.3246 111.472C72.1486 111.168 71.9086 110.928 71.6046 110.752C71.306 110.576 70.9273 110.488 70.4686 110.488C70.1113 110.488 69.786 110.549 69.4926 110.672C69.2046 110.789 68.9566 110.971 68.7486 111.216C68.5406 111.461 68.378 111.771 68.2606 112.144C68.1486 112.512 68.0926 112.947 68.0926 113.448L67.1566 113.16C67.1566 112.323 67.306 111.605 67.6046 111.008C67.9086 110.405 68.3326 109.944 68.8766 109.624C69.426 109.299 70.0713 109.136 70.8126 109.136C71.3726 109.136 71.85 109.224 72.2446 109.4C72.6393 109.576 72.9673 109.811 73.2286 110.104C73.49 110.392 73.6953 110.717 73.8446 111.08C73.994 111.437 74.098 111.803 74.1566 112.176C74.2206 112.544 74.2526 112.893 74.2526 113.224V118H72.8126ZM66.6526 118V109.36H67.9326V111.672H68.0926V118H66.6526ZM80.3565 118C79.8445 118.101 79.3378 118.141 78.8365 118.12C78.3405 118.104 77.8978 118.005 77.5085 117.824C77.1192 117.637 76.8232 117.349 76.6205 116.96C76.4498 116.619 76.3565 116.275 76.3405 115.928C76.3298 115.576 76.3245 115.179 76.3245 114.736V106.96H77.7485V114.672C77.7485 115.024 77.7512 115.325 77.7565 115.576C77.7672 115.827 77.8232 116.043 77.9245 116.224C78.1165 116.565 78.4205 116.765 78.8365 116.824C79.2578 116.883 79.7645 116.867 80.3565 116.776V118ZM74.5725 110.536V109.36H80.3565V110.536H74.5725ZM87.4626 118V113.672C87.4626 113.261 87.4253 112.867 87.3506 112.488C87.2813 112.109 87.156 111.771 86.9746 111.472C86.7986 111.168 86.5586 110.928 86.2546 110.752C85.956 110.576 85.5773 110.488 85.1186 110.488C84.7613 110.488 84.436 110.549 84.1426 110.672C83.8546 110.789 83.6066 110.971 83.3986 111.216C83.1906 111.461 83.028 111.771 82.9106 112.144C82.7986 112.512 82.7426 112.947 82.7426 113.448L81.8066 113.16C81.8066 112.323 81.956 111.605 82.2546 111.008C82.5586 110.405 82.9826 109.944 83.5266 109.624C84.076 109.299 84.7213 109.136 85.4626 109.136C86.0226 109.136 86.5 109.224 86.8946 109.4C87.2893 109.576 87.6173 109.811 87.8786 110.104C88.14 110.392 88.3453 110.717 88.4946 111.08C88.644 111.437 88.748 111.803 88.8066 112.176C88.8706 112.544 88.9026 112.893 88.9026 113.224V118H87.4626ZM81.3026 118V106.48H82.5826V112.84H82.7426V118H81.3026ZM90.3425 118V106.24H91.7665V118H90.3425ZM94.5669 121.84L96.2389 117.296L96.2629 118.64L92.4869 109.36H93.9829L96.9429 116.824H96.4309L99.2069 109.36H100.655L95.9509 121.84H94.5669ZM103.579 118V106.48H108.131C108.243 106.48 108.377 106.485 108.531 106.496C108.686 106.501 108.835 106.517 108.979 106.544C109.603 106.64 110.126 106.853 110.547 107.184C110.974 107.515 111.294 107.933 111.507 108.44C111.721 108.941 111.827 109.499 111.827 110.112C111.827 111.003 111.595 111.776 111.131 112.432C110.667 113.083 109.987 113.491 109.091 113.656L108.547 113.744H105.003V118H103.579ZM110.435 118L108.163 113.312L109.571 112.88L112.067 118H110.435ZM105.003 112.392H108.083C108.185 112.392 108.299 112.387 108.427 112.376C108.561 112.365 108.686 112.347 108.803 112.32C109.171 112.235 109.47 112.08 109.699 111.856C109.934 111.627 110.105 111.36 110.211 111.056C110.318 110.747 110.371 110.432 110.371 110.112C110.371 109.792 110.318 109.48 110.211 109.176C110.105 108.867 109.934 108.597 109.699 108.368C109.47 108.139 109.171 107.984 108.803 107.904C108.686 107.872 108.561 107.853 108.427 107.848C108.299 107.837 108.185 107.832 108.083 107.832H105.003V112.392ZM116.773 118.24C115.925 118.24 115.184 118.053 114.549 117.68C113.92 117.301 113.429 116.776 113.077 116.104C112.725 115.427 112.549 114.637 112.549 113.736C112.549 112.792 112.723 111.976 113.069 111.288C113.416 110.595 113.899 110.061 114.517 109.688C115.141 109.309 115.872 109.12 116.709 109.12C117.579 109.12 118.317 109.32 118.925 109.72C119.539 110.12 119.997 110.691 120.301 111.432C120.611 112.173 120.744 113.056 120.701 114.08H119.261V113.568C119.245 112.507 119.029 111.715 118.613 111.192C118.197 110.664 117.579 110.4 116.757 110.4C115.877 110.4 115.208 110.683 114.749 111.248C114.291 111.813 114.061 112.624 114.061 113.68C114.061 114.699 114.291 115.488 114.749 116.048C115.208 116.608 115.861 116.888 116.709 116.888C117.28 116.888 117.776 116.757 118.197 116.496C118.619 116.235 118.949 115.859 119.189 115.368L120.557 115.84C120.221 116.603 119.715 117.195 119.037 117.616C118.365 118.032 117.611 118.24 116.773 118.24ZM113.581 114.08V112.936H119.965V114.08H113.581ZM125.416 118.24C124.605 118.24 123.923 118.04 123.368 117.64C122.813 117.235 122.392 116.688 122.104 116C121.821 115.307 121.68 114.531 121.68 113.672C121.68 112.803 121.821 112.024 122.104 111.336C122.392 110.648 122.813 110.107 123.368 109.712C123.928 109.317 124.613 109.12 125.424 109.12C126.224 109.12 126.912 109.32 127.488 109.72C128.069 110.115 128.515 110.656 128.824 111.344C129.133 112.032 129.288 112.808 129.288 113.672C129.288 114.536 129.133 115.312 128.824 116C128.515 116.688 128.069 117.235 127.488 117.64C126.912 118.04 126.221 118.24 125.416 118.24ZM121.44 121.84V109.36H122.712V115.72H122.872V121.84H121.44ZM125.24 116.936C125.811 116.936 126.283 116.792 126.656 116.504C127.029 116.216 127.309 115.827 127.496 115.336C127.683 114.84 127.776 114.285 127.776 113.672C127.776 113.064 127.683 112.515 127.496 112.024C127.315 111.533 127.032 111.144 126.648 110.856C126.269 110.568 125.787 110.424 125.2 110.424C124.64 110.424 124.176 110.563 123.808 110.84C123.44 111.112 123.165 111.493 122.984 111.984C122.803 112.469 122.712 113.032 122.712 113.672C122.712 114.301 122.8 114.864 122.976 115.36C123.157 115.851 123.435 116.237 123.808 116.52C124.181 116.797 124.659 116.936 125.24 116.936ZM133.922 118.24C133.063 118.24 132.322 118.045 131.698 117.656C131.079 117.267 130.602 116.728 130.266 116.04C129.93 115.352 129.762 114.563 129.762 113.672C129.762 112.765 129.933 111.971 130.274 111.288C130.615 110.605 131.098 110.075 131.722 109.696C132.346 109.312 133.079 109.12 133.922 109.12C134.786 109.12 135.53 109.315 136.154 109.704C136.778 110.088 137.255 110.624 137.586 111.312C137.922 111.995 138.09 112.781 138.09 113.672C138.09 114.573 137.922 115.368 137.586 116.056C137.25 116.739 136.77 117.275 136.146 117.664C135.522 118.048 134.781 118.24 133.922 118.24ZM133.922 116.888C134.818 116.888 135.485 116.589 135.922 115.992C136.359 115.395 136.578 114.621 136.578 113.672C136.578 112.696 136.357 111.92 135.914 111.344C135.471 110.763 134.807 110.472 133.922 110.472C133.319 110.472 132.823 110.608 132.434 110.88C132.045 111.152 131.754 111.528 131.562 112.008C131.37 112.488 131.274 113.043 131.274 113.672C131.274 114.643 131.498 115.421 131.946 116.008C132.394 116.595 133.053 116.888 133.922 116.888ZM139.051 118V109.36H140.323V111.448L140.115 111.176C140.217 110.909 140.347 110.664 140.507 110.44C140.673 110.216 140.857 110.032 141.059 109.888C141.283 109.707 141.537 109.568 141.819 109.472C142.102 109.376 142.39 109.32 142.683 109.304C142.977 109.283 143.251 109.301 143.507 109.36V110.696C143.209 110.616 142.881 110.595 142.523 110.632C142.166 110.669 141.835 110.8 141.531 111.024C141.254 111.221 141.038 111.461 140.883 111.744C140.734 112.027 140.63 112.333 140.571 112.664C140.513 112.989 140.483 113.323 140.483 113.664V118H139.051ZM149.044 118C148.532 118.101 148.025 118.141 147.524 118.12C147.028 118.104 146.585 118.005 146.196 117.824C145.807 117.637 145.511 117.349 145.308 116.96C145.137 116.619 145.044 116.275 145.028 115.928C145.017 115.576 145.012 115.179 145.012 114.736V106.96H146.436V114.672C146.436 115.024 146.439 115.325 146.444 115.576C146.455 115.827 146.511 116.043 146.612 116.224C146.804 116.565 147.108 116.765 147.524 116.824C147.945 116.883 148.452 116.867 149.044 116.776V118ZM143.26 110.536V109.36H149.044V110.536H143.26ZM153.262 118.232C152.233 118.232 151.387 118.008 150.726 117.56C150.07 117.107 149.667 116.475 149.518 115.664L150.974 115.432C151.091 115.901 151.361 116.275 151.782 116.552C152.203 116.824 152.726 116.96 153.35 116.96C153.942 116.96 154.406 116.837 154.742 116.592C155.078 116.347 155.246 116.013 155.246 115.592C155.246 115.347 155.19 115.149 155.078 115C154.966 114.845 154.734 114.701 154.382 114.568C154.035 114.435 153.51 114.275 152.806 114.088C152.043 113.885 151.443 113.675 151.006 113.456C150.569 113.237 150.257 112.984 150.07 112.696C149.883 112.408 149.79 112.059 149.79 111.648C149.79 111.141 149.929 110.699 150.206 110.32C150.483 109.936 150.87 109.64 151.366 109.432C151.867 109.224 152.449 109.12 153.11 109.12C153.766 109.12 154.353 109.224 154.87 109.432C155.387 109.64 155.803 109.936 156.118 110.32C156.438 110.699 156.627 111.141 156.686 111.648L155.23 111.912C155.161 111.448 154.937 111.083 154.558 110.816C154.185 110.549 153.702 110.408 153.11 110.392C152.55 110.371 152.094 110.469 151.742 110.688C151.395 110.907 151.222 111.203 151.222 111.576C151.222 111.784 151.286 111.963 151.414 112.112C151.547 112.261 151.79 112.403 152.142 112.536C152.499 112.669 153.017 112.821 153.694 112.992C154.457 113.184 155.057 113.395 155.494 113.624C155.937 113.848 156.251 114.115 156.438 114.424C156.625 114.728 156.718 115.104 156.718 115.552C156.718 116.384 156.411 117.04 155.798 117.52C155.185 117.995 154.339 118.232 153.262 118.232Z" fill="#8593A3"/>
</g>
<g opacity="0.64">
<path fill-rule="evenodd" clip-rule="evenodd" d="M1.5 160C1.5 154.201 6.20101 149.5 12 149.5C17.799 149.5 22.5 154.201 22.5 160C22.5 165.799 17.799 170.5 12 170.5C6.20101 170.5 1.5 165.799 1.5 160ZM9.87896 156.818C9.58607 156.525 9.1112 156.525 8.8183 156.818C8.52541 157.111 8.52541 157.586 8.8183 157.879L10.9396 160L8.81831 162.121C8.52542 162.414 8.52542 162.889 8.81831 163.182C9.1112 163.475 9.58608 163.475 9.87897 163.182L12.0003 161.061L14.1216 163.182C14.4145 163.475 14.8894 163.475 15.1823 163.182C15.4752 162.889 15.4752 162.414 15.1823 162.121L13.0609 160L15.1823 157.879C15.4752 157.586 15.4752 157.111 15.1823 156.818C14.8894 156.525 14.4145 156.525 14.1216 156.818L12.0003 158.939L9.87896 156.818Z" fill="#FF6954" fill-opacity="0.32"/>
<path d="M45.12 166V154.48H46.416L50.768 163.656L55.096 154.48H56.408V165.992H55.056V157.608L51.144 166H50.384L46.472 157.608V166H45.12ZM61.1312 166.224C60.5766 166.224 60.0992 166.136 59.6992 165.96C59.3046 165.784 58.9766 165.549 58.7152 165.256C58.4539 164.963 58.2486 164.637 58.0992 164.28C57.9499 163.923 57.8432 163.557 57.7792 163.184C57.7206 162.811 57.6912 162.461 57.6912 162.136V157.36H59.1312V161.688C59.1312 162.093 59.1686 162.485 59.2432 162.864C59.3179 163.243 59.4432 163.584 59.6193 163.888C59.8006 164.192 60.0406 164.432 60.3393 164.608C60.6432 164.784 61.0219 164.872 61.4753 164.872C61.8326 164.872 62.1579 164.811 62.4513 164.688C62.7446 164.565 62.9953 164.384 63.2032 164.144C63.4113 163.899 63.5713 163.589 63.6832 163.216C63.7953 162.843 63.8513 162.408 63.8513 161.912L64.7873 162.2C64.7873 163.032 64.6353 163.749 64.3313 164.352C64.0326 164.955 63.6086 165.419 63.0592 165.744C62.5152 166.064 61.8726 166.224 61.1312 166.224ZM64.0113 166V163.688H63.8513V157.36H65.2832V166H64.0113ZM66.8831 166V154.24H68.3071V166H66.8831ZM74.7315 166C74.2195 166.101 73.7128 166.141 73.2115 166.12C72.7155 166.104 72.2728 166.005 71.8835 165.824C71.4942 165.637 71.1982 165.349 70.9955 164.96C70.8248 164.619 70.7315 164.275 70.7155 163.928C70.7048 163.576 70.6995 163.179 70.6995 162.736V154.96H72.1235V162.672C72.1235 163.024 72.1262 163.325 72.1315 163.576C72.1422 163.827 72.1982 164.043 72.2995 164.224C72.4915 164.565 72.7955 164.765 73.2115 164.824C73.6328 164.883 74.1395 164.867 74.7315 164.776V166ZM68.9475 158.536V157.36H74.7315V158.536H68.9475ZM75.8456 155.832V154.36H77.2696V155.832H75.8456ZM75.8456 166V157.36H77.2696V166H75.8456ZM82.838 166.24C82.0273 166.24 81.3447 166.04 80.79 165.64C80.2353 165.235 79.814 164.688 79.526 164C79.2433 163.307 79.102 162.531 79.102 161.672C79.102 160.803 79.2433 160.024 79.526 159.336C79.814 158.648 80.2353 158.107 80.79 157.712C81.35 157.317 82.0353 157.12 82.846 157.12C83.646 157.12 84.334 157.32 84.91 157.72C85.4913 158.115 85.9367 158.656 86.246 159.344C86.5553 160.032 86.71 160.808 86.71 161.672C86.71 162.536 86.5553 163.312 86.246 164C85.9367 164.688 85.4913 165.235 84.91 165.64C84.334 166.04 83.6433 166.24 82.838 166.24ZM78.862 169.84V157.36H80.134V163.72H80.294V169.84H78.862ZM82.662 164.936C83.2327 164.936 83.7047 164.792 84.078 164.504C84.4513 164.216 84.7313 163.827 84.918 163.336C85.1047 162.84 85.198 162.285 85.198 161.672C85.198 161.064 85.1047 160.515 84.918 160.024C84.7367 159.533 84.454 159.144 84.07 158.856C83.6913 158.568 83.2087 158.424 82.622 158.424C82.062 158.424 81.598 158.563 81.23 158.84C80.862 159.112 80.5873 159.493 80.406 159.984C80.2247 160.469 80.134 161.032 80.134 161.672C80.134 162.301 80.222 162.864 80.398 163.36C80.5793 163.851 80.8567 164.237 81.23 164.52C81.6033 164.797 82.0807 164.936 82.662 164.936ZM87.8238 166V154.24H89.2478V166H87.8238ZM94.5921 166.24C93.7441 166.24 93.0028 166.053 92.3681 165.68C91.7388 165.301 91.2481 164.776 90.8961 164.104C90.5441 163.427 90.3681 162.637 90.3681 161.736C90.3681 160.792 90.5415 159.976 90.8881 159.288C91.2348 158.595 91.7175 158.061 92.3361 157.688C92.9601 157.309 93.6908 157.12 94.5281 157.12C95.3975 157.12 96.1361 157.32 96.7441 157.72C97.3575 158.12 97.8161 158.691 98.1201 159.432C98.4295 160.173 98.5628 161.056 98.5201 162.08H97.0801V161.568C97.0641 160.507 96.8481 159.715 96.4321 159.192C96.0161 158.664 95.3975 158.4 94.5761 158.4C93.6961 158.4 93.0268 158.683 92.5681 159.248C92.1095 159.813 91.8801 160.624 91.8801 161.68C91.8801 162.699 92.1095 163.488 92.5681 164.048C93.0268 164.608 93.6801 164.888 94.5281 164.888C95.0988 164.888 95.5948 164.757 96.0161 164.496C96.4375 164.235 96.7681 163.859 97.0081 163.368L98.3761 163.84C98.0401 164.603 97.5335 165.195 96.8561 165.616C96.1841 166.032 95.4295 166.24 94.5921 166.24ZM91.4001 162.08V160.936H97.7841V162.08H91.4001ZM101.904 166V154.48H105.456C105.574 154.48 105.779 154.483 106.072 154.488C106.366 154.493 106.646 154.515 106.912 154.552C107.803 154.669 108.547 154.995 109.144 155.528C109.747 156.056 110.2 156.728 110.504 157.544C110.808 158.36 110.96 159.259 110.96 160.24C110.96 161.221 110.808 162.12 110.504 162.936C110.2 163.752 109.747 164.427 109.144 164.96C108.547 165.488 107.803 165.811 106.912 165.928C106.646 165.96 106.363 165.981 106.064 165.992C105.771 165.997 105.568 166 105.456 166H101.904ZM103.368 164.64H105.456C105.659 164.64 105.886 164.635 106.136 164.624C106.387 164.608 106.606 164.584 106.792 164.552C107.422 164.435 107.931 164.171 108.32 163.76C108.71 163.349 108.995 162.837 109.176 162.224C109.358 161.611 109.448 160.949 109.448 160.24C109.448 159.515 109.355 158.845 109.168 158.232C108.987 157.619 108.702 157.109 108.312 156.704C107.923 156.299 107.416 156.04 106.792 155.928C106.606 155.891 106.384 155.867 106.128 155.856C105.872 155.845 105.648 155.84 105.456 155.84H103.368V164.64ZM115.739 166.24C114.891 166.24 114.15 166.053 113.515 165.68C112.886 165.301 112.395 164.776 112.043 164.104C111.691 163.427 111.515 162.637 111.515 161.736C111.515 160.792 111.688 159.976 112.035 159.288C112.382 158.595 112.864 158.061 113.483 157.688C114.107 157.309 114.838 157.12 115.675 157.12C116.544 157.12 117.283 157.32 117.891 157.72C118.504 158.12 118.963 158.691 119.267 159.432C119.576 160.173 119.71 161.056 119.667 162.08H118.227V161.568C118.211 160.507 117.995 159.715 117.579 159.192C117.163 158.664 116.544 158.4 115.723 158.4C114.843 158.4 114.174 158.683 113.715 159.248C113.256 159.813 113.027 160.624 113.027 161.68C113.027 162.699 113.256 163.488 113.715 164.048C114.174 164.608 114.827 164.888 115.675 164.888C116.246 164.888 116.742 164.757 117.163 164.496C117.584 164.235 117.915 163.859 118.155 163.368L119.523 163.84C119.187 164.603 118.68 165.195 118.003 165.616C117.331 166.032 116.576 166.24 115.739 166.24ZM112.547 162.08V160.936H118.931V162.08H112.547ZM122.672 166L119.536 157.36H120.976L123.4 164.184L125.816 157.36H127.264L124.128 166H122.672ZM128.071 155.832V154.36H129.495V155.832H128.071ZM128.071 166V157.36H129.495V166H128.071ZM134.735 166.24C133.86 166.24 133.116 166.045 132.503 165.656C131.895 165.261 131.431 164.72 131.111 164.032C130.791 163.344 130.626 162.56 130.615 161.68C130.626 160.779 130.794 159.987 131.119 159.304C131.45 158.616 131.922 158.08 132.535 157.696C133.148 157.312 133.887 157.12 134.751 157.12C135.663 157.12 136.447 157.344 137.103 157.792C137.764 158.24 138.207 158.853 138.431 159.632L137.023 160.056C136.842 159.555 136.546 159.165 136.135 158.888C135.73 158.611 135.263 158.472 134.735 158.472C134.143 158.472 133.655 158.611 133.271 158.888C132.887 159.16 132.602 159.539 132.415 160.024C132.228 160.504 132.132 161.056 132.127 161.68C132.138 162.64 132.359 163.416 132.791 164.008C133.228 164.595 133.876 164.888 134.735 164.888C135.3 164.888 135.77 164.76 136.143 164.504C136.516 164.243 136.799 163.867 136.991 163.376L138.431 163.752C138.132 164.557 137.666 165.173 137.031 165.6C136.396 166.027 135.631 166.24 134.735 166.24ZM142.773 166.24C141.925 166.24 141.184 166.053 140.549 165.68C139.92 165.301 139.429 164.776 139.077 164.104C138.725 163.427 138.549 162.637 138.549 161.736C138.549 160.792 138.723 159.976 139.069 159.288C139.416 158.595 139.899 158.061 140.517 157.688C141.141 157.309 141.872 157.12 142.709 157.12C143.579 157.12 144.317 157.32 144.925 157.72C145.539 158.12 145.997 158.691 146.301 159.432C146.611 160.173 146.744 161.056 146.701 162.08H145.261V161.568C145.245 160.507 145.029 159.715 144.613 159.192C144.197 158.664 143.579 158.4 142.757 158.4C141.877 158.4 141.208 158.683 140.749 159.248C140.291 159.813 140.061 160.624 140.061 161.68C140.061 162.699 140.291 163.488 140.749 164.048C141.208 164.608 141.861 164.888 142.709 164.888C143.28 164.888 143.776 164.757 144.197 164.496C144.619 164.235 144.949 163.859 145.189 163.368L146.557 163.84C146.221 164.603 145.715 165.195 145.037 165.616C144.365 166.032 143.611 166.24 142.773 166.24ZM139.581 162.08V160.936H145.965V162.08H139.581ZM150.947 166.232C149.917 166.232 149.072 166.008 148.411 165.56C147.755 165.107 147.352 164.475 147.203 163.664L148.659 163.432C148.776 163.901 149.045 164.275 149.467 164.552C149.888 164.824 150.411 164.96 151.035 164.96C151.627 164.96 152.091 164.837 152.427 164.592C152.763 164.347 152.931 164.013 152.931 163.592C152.931 163.347 152.875 163.149 152.763 163C152.651 162.845 152.419 162.701 152.067 162.568C151.72 162.435 151.195 162.275 150.491 162.088C149.728 161.885 149.128 161.675 148.691 161.456C148.253 161.237 147.941 160.984 147.755 160.696C147.568 160.408 147.475 160.059 147.475 159.648C147.475 159.141 147.613 158.699 147.891 158.32C148.168 157.936 148.555 157.64 149.051 157.432C149.552 157.224 150.133 157.12 150.795 157.12C151.451 157.12 152.037 157.224 152.555 157.432C153.072 157.64 153.488 157.936 153.803 158.32C154.123 158.699 154.312 159.141 154.371 159.648L152.915 159.912C152.845 159.448 152.621 159.083 152.243 158.816C151.869 158.549 151.387 158.408 150.795 158.392C150.235 158.371 149.779 158.469 149.427 158.688C149.08 158.907 148.907 159.203 148.907 159.576C148.907 159.784 148.971 159.963 149.099 160.112C149.232 160.261 149.475 160.403 149.827 160.536C150.184 160.669 150.701 160.821 151.379 160.992C152.141 161.184 152.741 161.395 153.179 161.624C153.621 161.848 153.936 162.115 154.123 162.424C154.309 162.728 154.403 163.104 154.403 163.552C154.403 164.384 154.096 165.04 153.483 165.52C152.869 165.995 152.024 166.232 150.947 166.232Z" fill="#8593A3"/>
</g>
</svg>
