<svg width="170" height="170" viewBox="0 0 170 170" fill="none" xmlns="http://www.w3.org/2000/svg">
<path fill-rule="evenodd" clip-rule="evenodd" d="M77.5898 13.5485C71.5652 11.2575 65.6255 8.93815 59.5373 6.8239C58.2291 6.36428 56.808 7.05011 56.3555 8.35119C55.8959 9.65934 56.5886 11.0877 57.8897 11.5402C63.9425 13.6474 69.8326 15.9455 75.8147 18.2224C77.1087 18.7103 78.5515 18.0599 79.0394 16.78C79.5273 15.486 78.8838 14.0364 77.5898 13.5485Z" fill="#282828"/>
<path fill-rule="evenodd" clip-rule="evenodd" d="M86.0537 66.1784C66.9406 73.2141 48.1949 81.2114 29.2445 88.6501C27.9575 89.1592 27.3282 90.6089 27.8303 91.8887C28.3394 93.1757 29.7818 93.8119 31.0758 93.3099C49.9909 85.8782 68.7009 77.8879 87.7786 70.8734C89.0797 70.3925 89.7376 68.9573 89.2638 67.6632C88.783 66.3622 87.3477 65.7047 86.0537 66.1784Z" fill="#282828"/>
<path fill-rule="evenodd" clip-rule="evenodd" d="M134.469 121.382C124.379 135.333 114.663 149.589 104.417 163.427C103.604 164.537 103.837 166.099 104.94 166.92C106.051 167.747 107.62 167.506 108.44 166.403C118.693 152.544 128.423 138.275 138.521 124.302C139.327 123.185 139.08 121.622 137.962 120.816C136.838 120.003 135.282 120.258 134.469 121.382Z" fill="#282828"/>
</svg>
