<svg width="120" height="104" viewBox="0 0 120 104" fill="none" xmlns="http://www.w3.org/2000/svg">
<path fill-rule="evenodd" clip-rule="evenodd" d="M11.3809 82.4133C12.1513 83.0168 12.5129 83.8912 12.6678 84.8741C12.7532 85.4162 13.2481 85.4904 13.6205 85.5857C13.9427 85.6685 14.2401 85.6793 14.5007 85.9452C14.6084 86.0554 14.9447 86.0794 15.0859 85.9932C15.5378 85.7178 16.0216 85.5165 16.4387 85.1491C17.9075 83.8568 18.984 82.2584 19.9917 80.6277C21.0198 78.9638 22.0959 77.3178 22.8833 75.5131C23.1281 74.9515 23.138 74.956 22.5217 74.5199C22.0205 75.4729 21.5533 76.4405 21.0123 77.365C20.5832 78.0986 20.0642 78.7787 19.5415 79.5462C19.4185 79.2372 19.4214 79.0392 19.6123 78.7638C20.652 77.2619 21.639 75.726 22.4219 73.9673C22.2968 73.8857 22.1456 73.7867 21.9952 73.689C21.9604 73.7188 21.883 73.7859 21.7504 73.9006V73.2743C21.3789 73.2002 21.0421 73.1335 20.6039 73.0465C20.2622 73.206 20.0998 73.8107 19.5374 73.8857C19.5556 74.4975 19.0208 74.8023 18.752 75.2493C18.4186 75.8035 17.9667 76.286 17.6469 76.6957C17.2858 76.6476 17.0157 76.5971 16.7432 76.578C15.7863 76.5109 15.8095 76.5412 15.2135 77.0668C14.5512 77.6508 14.0981 78.468 13.244 78.8391C13.1889 78.8628 13.1276 78.9464 13.1247 79.0048C13.0982 79.6195 12.754 79.8428 12.177 79.9919C11.6928 80.1174 11.5553 80.6277 11.5325 81.1297C11.5151 81.5145 11.4443 81.8968 11.3809 82.4133Z" fill="black"/>
<path fill-rule="evenodd" clip-rule="evenodd" d="M96.7961 11.0211C96.1111 11.364 96.1111 11.364 95.7424 10.6462C95.274 10.4855 94.7077 10.809 94.284 10.3787C93.8073 10.4975 93.3367 10.6591 92.853 10.7258C92.0718 10.833 91.6683 11.4374 91.2272 11.946C90.9277 12.2914 90.6142 12.6381 90.3404 13.0134C90.0202 13.4524 89.6375 13.8451 89.3161 14.2829C89.0249 14.6797 88.776 15.1084 88.5175 15.5284C88.4458 15.6452 88.3539 15.7873 88.3643 15.9099C88.392 16.2363 88.2789 16.4562 88.047 16.6903C87.6009 17.1401 87.6357 17.8003 87.4808 18.362C87.337 18.8855 87.4195 19.4824 87.4658 20.042C87.4832 20.2557 87.5114 20.7117 87.9819 20.3754C88.0151 20.3514 88.1795 20.5266 88.2926 20.5929C88.4119 20.6624 88.6157 20.7954 88.6579 20.7585C89.1541 20.3228 89.2751 20.6343 89.5021 21.0651C89.8359 21.6992 90.0397 21.6524 90.936 21.4925C91.4815 21.3948 92.0598 21.3778 92.3791 20.9043C93.2427 19.6245 94.1274 18.3533 94.2472 16.7172C94.2948 16.0615 94.4779 15.3772 95.0188 14.9059C95.4848 14.4995 95.7942 13.9188 96.4304 13.6923C96.6222 13.6239 96.7626 13.3953 96.9117 13.2267C97.2286 12.8672 97.3988 12.4675 97.4071 11.9617C97.4158 11.4365 97.0008 11.3189 96.7961 11.0211Z" fill="black"/>
<path fill-rule="evenodd" clip-rule="evenodd" d="M23.5822 53.8002C24.1414 53.2411 24.6107 52.6935 25.1578 52.2395C26.7272 50.9373 27.4724 49.0949 28.411 47.3801C28.8326 46.6101 28.7121 45.7453 28.6939 44.9123C28.6905 44.7678 28.4909 44.6273 28.3741 44.4757C28.2146 44.7914 28.0651 45.0871 27.8468 45.5187V43.9766C27.5184 43.8138 27.194 43.7252 26.9729 43.5239C26.6982 43.2741 26.388 43.3234 26.1362 43.3868C25.8429 43.4605 25.5927 43.7053 25.2978 43.8925C25.4705 44.7019 25.152 45.3795 24.7573 46.0857C24.404 45.9901 23.9869 46.2411 23.6331 45.8782C23.5582 45.8012 23.3121 45.795 23.2061 45.8588C22.3396 46.3802 21.2763 46.6569 20.8381 47.7272C20.7594 47.9202 20.672 48.1696 20.5138 48.2553C20.2752 48.3846 20.4894 48.788 20.0797 48.8037C19.7426 48.8166 19.9579 49.1604 19.8975 49.3476C19.8225 49.5795 19.7202 49.8065 19.6796 50.0443C19.6423 50.2621 19.6717 50.4916 19.6717 50.7178C20.5391 51.4617 21.0966 52.4093 21.524 53.4651C22.2178 53.5778 22.922 53.6925 23.5822 53.8002Z" fill="black"/>
<path fill-rule="evenodd" clip-rule="evenodd" d="M117.661 1.1362C117.456 0.855789 117.295 0.62218 117.118 0.401825C117.053 0.321884 116.952 0.265553 116.859 0.213363C116.594 0.0646652 116.404 0.485079 116.107 0.302002C115.874 0.158689 115.602 0.0298723 115.336 0.0041918C115.116 -0.0169325 114.789 0.248571 114.671 0.163245C114.407 -0.0268733 114.249 -0.084033 114.019 0.173186C113.977 0.220405 113.821 0.184784 113.723 0.161174C113.003 -0.0123762 113.004 -0.0144473 112.619 0.685139C112.566 0.533541 112.52 0.402653 112.438 0.163659C112.324 0.471825 112.212 0.690937 112.165 0.92289C112.107 1.2062 112.093 1.49987 112.079 1.78981C112.066 2.08141 112.076 2.37425 111.913 2.67455L111.803 1.58851C111.765 1.58685 111.726 1.5852 111.687 1.58396C111.666 1.77614 111.629 1.96833 111.627 2.16094C111.621 3.13762 111.667 4.1168 111.612 5.09017C111.562 5.94881 111.709 6.72626 112.194 7.4362C112.376 7.26224 112.549 6.99839 112.756 7.41922C112.982 7.87898 113.345 7.84419 113.814 7.63336C113.892 8.1333 113.927 8.72271 114.755 8.53425V7.28212C114.81 7.27135 114.866 7.26017 114.921 7.24898C115.052 7.67603 115.183 8.10307 115.318 8.54253C115.688 8.29484 115.991 8.03141 115.931 7.51035C115.914 7.36413 116.085 7.20425 116.14 7.04106C116.378 6.33111 116.375 6.32946 116.964 6.31248C117.077 6.30916 117.189 6.31206 117.302 6.31206H117.611C117.897 6.02626 118.155 5.75165 118.43 5.4965C119.017 4.95431 119.204 4.2365 119.298 3.49052C119.344 3.12064 119.264 2.73419 119.317 2.36597C119.375 1.96005 119.166 1.66017 118.981 1.37437C118.613 0.804843 118.412 0.788275 117.661 1.1362Z" fill="black"/>
<path fill-rule="evenodd" clip-rule="evenodd" d="M51.7867 10.0765C52.2685 10.4037 52.7324 10.7318 53.2157 11.0271C53.2625 11.0557 53.4307 10.8855 53.6121 10.7587C53.7231 10.9579 53.7985 11.1406 53.9161 11.2897C54.0545 11.4658 54.2322 11.6107 54.3892 11.7727C54.7073 12.1003 55.0138 12.4652 55.4839 11.9673C55.5199 11.9297 55.6293 11.9669 55.7034 11.9591C56.2315 11.9019 56.7348 12.0336 57.2662 11.6087C57.6941 11.2665 58.2387 11.03 58.6409 10.61C59.0179 10.2157 59.408 9.8454 59.6711 9.34504C60.0745 8.5767 60.473 7.81705 60.3292 6.91534C60.2932 6.68918 60.1379 6.48167 59.9974 6.17889C59.7133 6.41167 59.5211 6.56907 59.2966 6.75338C59.1127 6.14327 59.1504 5.43415 58.585 4.89652C58.3634 5.0622 58.1493 5.22208 57.8821 5.42173V4.59788C57.1399 4.47114 56.4656 4.21599 55.7216 4.26072C55.295 4.2864 54.9264 4.42143 54.6563 4.68031C54.3092 5.0125 53.8843 5.25025 53.6009 5.67605C53.345 6.06125 52.995 6.3835 52.7261 6.78031C52.285 7.43267 52.1359 8.19522 51.8132 8.88942C51.6592 9.22037 51.7867 9.68262 51.7867 10.0765Z" fill="black"/>
<path fill-rule="evenodd" clip-rule="evenodd" d="M99.6266 31.6716V34.0955C99.4017 33.4829 99.4406 32.8641 99.4216 32.2486C99.4141 32.0009 99.5313 31.6927 99.231 31.5449C98.9208 31.3916 98.5932 31.24 98.2585 31.1907C98.1433 31.1737 97.9242 31.4463 97.8588 31.6248C97.7884 31.8166 97.8426 32.0539 97.8426 32.2958C97.6554 32.2175 97.544 32.1268 97.4442 32.138C97.2379 32.1612 96.9546 32.3521 96.849 32.2751C96.262 31.8431 95.6188 32.1268 95.012 32.0929C94.7374 32.0775 94.3219 32.261 94.1902 32.4839C93.8671 33.0327 93.2152 33.2004 92.8734 33.8462C92.8623 34.122 92.8258 34.4629 92.5392 34.8299C92.1635 35.3108 91.8429 35.9081 91.9593 36.6118C92.0136 36.939 91.9688 37.2824 91.9688 37.6813C92.7388 38.1381 93.5399 38.5821 94.3078 39.0775C95.1114 39.5961 95.8424 39.2478 96.5263 38.8895C97.0254 38.6277 97.6952 38.5051 97.8637 37.808C98.9796 37.306 99.178 36.1301 99.7736 35.2416C100.174 34.6443 100.162 33.9493 100.275 33.3172C100.369 32.7949 100 32.1898 99.8362 31.6215C99.7662 31.6381 99.6962 31.655 99.6266 31.6716Z" fill="black"/>
<path fill-rule="evenodd" clip-rule="evenodd" d="M77.7696 43.8945C78.2451 43.419 78.7492 42.9149 79.3166 42.3475C79.3166 41.9718 79.3556 41.524 79.2968 41.0895C79.2744 40.928 79.0412 40.7648 78.8677 40.67C78.8018 40.6335 78.6324 40.7868 78.509 40.8543C78.3449 40.5295 78.2488 40.0901 77.6942 40.1969C77.5911 40.2172 77.4449 40.2234 77.3745 40.1667C77.0982 39.943 76.7975 39.7148 76.4442 39.813C75.8108 39.9894 75.1051 40.0926 74.6113 40.5295C73.6355 41.394 72.7077 42.3334 72.2218 43.5818C71.9323 44.3261 71.6709 45.0949 71.5309 45.8769C71.47 46.219 71.5624 46.6887 71.9522 46.9613C72.5937 47.4107 73.2113 47.8961 73.867 48.3236C74.0903 48.4689 74.4051 48.5696 74.6656 48.5468C76.3071 48.4047 77.4768 47.6323 77.9618 45.7783C78.0326 45.5082 78.202 45.227 78.1656 44.9743C78.1126 44.6086 77.9129 44.2636 77.7696 43.8945Z" fill="black"/>
<path fill-rule="evenodd" clip-rule="evenodd" d="M74.9533 84.7054C74.998 84.4788 75.0427 84.2526 75.0875 84.0261C75.0904 84.9249 76.0393 85.2612 76.246 86.0254C76.3197 86.2988 76.724 86.4206 76.8913 86.2686C77.1643 86.0217 77.3502 86.2019 77.5043 86.3021C77.914 86.5689 78.2619 86.5432 78.6802 86.2988C79.886 85.5938 81.1298 84.946 81.8406 83.6537C82.6972 83.1902 82.9478 82.2487 83.48 81.533C83.7389 81.1851 83.8213 80.7058 84.0019 80.2386C83.6871 79.7801 83.2298 79.9015 82.6769 80.1773C82.7303 79.9168 82.7158 79.677 82.8251 79.5291C82.9763 79.3257 82.8148 79.2458 82.7291 79.2097C82.3397 79.047 81.9371 78.9277 81.6165 78.6203C81.5382 78.5449 81.3166 78.5748 81.1791 78.6162C80.9335 78.6907 80.7231 78.8477 80.4501 78.6257C80.3727 78.5632 80.1208 78.6883 79.9626 78.7578C78.6028 79.3551 77.3722 80.104 76.567 81.4294C76.4585 81.6084 76.2141 81.7981 76.0314 81.9683C75.5075 82.455 75.4093 83.1641 75.0038 83.6889C74.7346 84.0381 74.7934 84.3446 74.9533 84.7054Z" fill="black"/>
<path fill-rule="evenodd" clip-rule="evenodd" d="M6.3864 32.0399C6.35658 31.8316 6.32675 31.6228 6.29362 31.3933C6.21161 31.453 6.13871 31.4766 6.11965 31.5226C5.83013 32.2309 5.46936 32.9097 5.29912 33.6673C5.19226 34.1436 5.05599 34.5997 5.51699 34.9708C5.83096 35.2235 5.51243 35.9491 6.21865 35.9086C6.55167 36.4433 7.08516 36.3899 7.59545 36.3534C7.7106 36.7113 7.78226 37.06 7.93261 37.3711C8.10202 37.7215 8.64338 37.8205 9.22368 37.6548C9.35622 37.6171 9.48421 37.4883 9.60557 37.4991C10.5458 37.5811 10.5442 37.5881 10.9397 36.8467C11.1373 36.4768 11.3759 36.1235 11.5291 35.7362C11.7155 35.2641 12.0055 34.9691 12.4822 34.7654C13.1901 34.4626 13.6498 33.8487 13.772 33.1185C13.8826 32.4574 13.5732 31.851 12.983 31.3747C12.6905 31.7566 12.3989 32.1373 11.9901 32.6707C11.9901 32.1248 11.9959 31.7574 11.9885 31.3904C11.981 31.0255 11.9413 31.1001 11.3639 30.84C10.9513 30.654 10.3536 30.8793 10.1163 30.3069C9.70871 30.2912 9.30155 30.2762 8.89397 30.2605C8.14137 30.2307 7.47368 30.3127 7.12285 31.1494C6.98368 31.4807 6.65025 31.7309 6.3864 32.0399Z" fill="black"/>
<path fill-rule="evenodd" clip-rule="evenodd" d="M117.752 37.5282C118.643 37.3351 118.956 36.7031 119.037 36.1476C119.141 35.4373 119.382 34.741 119.324 33.99C119.25 33.0179 119.255 32.0317 119.328 31.0596C119.363 30.5878 119.06 30.2386 119.067 29.7975C119.069 29.6828 118.91 29.4608 118.834 29.4653C118.253 29.4984 117.976 28.8689 117.367 28.8651C116.963 28.8631 116.561 28.4845 116.108 28.2476C115.661 28.6941 114.712 28.1419 114.35 29.1265C114.587 29.8182 113.996 30.4258 113.796 31.1345C113.769 31.2335 113.665 31.3218 113.664 31.4154C113.654 32.5316 113.658 33.6475 113.658 34.8599C113.839 34.6996 113.917 34.6304 114.111 34.4577C114.05 34.7199 114.062 34.9208 113.972 34.9887C113.877 35.0616 113.676 34.9808 113.541 35.026C113.48 35.0463 113.447 35.2082 113.441 35.3084C113.437 35.3544 113.537 35.4559 113.573 35.4484C113.847 35.395 114.116 35.3205 114.412 35.2467C114.614 35.6833 114.829 36.1493 114.99 36.4976C115.297 36.4748 115.481 36.4608 115.665 36.4471C115.343 36.7718 115.713 36.8886 115.847 37.0883C115.983 37.2908 116.083 37.5178 116.191 37.7195C116.902 37.6425 117.167 37.1844 117.357 36.5776C117.491 36.9023 117.613 37.1935 117.752 37.5282Z" fill="black"/>
<path fill-rule="evenodd" clip-rule="evenodd" d="M34.6004 89.4749C35.1849 89.4583 35.7378 89.3005 36.0203 89.9483C36.4975 89.3196 36.5538 88.8735 36.0679 88.374C35.7324 88.0294 35.5113 87.599 35.0838 87.3012C34.7098 87.0402 34.5723 86.4633 34.25 86.0959C34.0023 85.8134 33.6304 85.6394 33.3135 85.4178C33.2145 85.5143 33.1077 85.6195 32.9391 85.7848C33.118 85.912 33.2936 86.037 33.4697 86.1617C33.4502 86.2069 33.4303 86.252 33.4108 86.2972C33.1532 86.2566 32.896 86.216 32.6065 86.1704C32.5294 86.286 32.44 86.5825 32.2482 86.6824C31.0963 87.2821 30.3611 88.2833 29.6611 89.3109C29.4312 89.6481 29.3521 90.0842 29.1674 90.4574C28.7113 91.3798 28.5937 91.5501 28.7324 92.3884C28.8327 92.9944 28.9433 93.6405 29.4192 94.1343C29.6072 94.3289 29.8077 94.6102 29.8177 94.8595C29.8425 95.4891 30.1884 95.5898 30.697 95.5575C30.8391 95.5483 30.9894 95.5666 31.1278 95.6039C32.015 95.8424 32.1065 95.8176 32.5489 95.1375C33.2042 94.1305 33.5173 92.9791 33.8984 91.8599C34.1676 91.0692 34.373 90.2561 34.6004 89.4749Z" fill="black"/>
<path fill-rule="evenodd" clip-rule="evenodd" d="M48.9648 77.0821C49.5923 76.7258 50.2277 76.4139 50.7392 75.8983C51.6923 74.9357 52.7154 74.0339 53.5947 73.0084C54.5192 71.9302 55.498 70.8674 56.0559 69.6032C55.9971 69.1041 55.3468 69.6343 55.3344 69.0453C55.3306 68.8771 54.9185 68.7148 54.6899 68.5553C54.1224 68.1593 53.8056 68.0931 53.3922 68.5329C52.9842 68.9674 52.5124 69.1232 51.9785 69.2363C51.1538 69.411 50.5847 70.0444 49.8789 70.4341C49.1238 70.8508 48.5858 71.5218 47.9724 72.1046C47.6547 72.4061 47.2599 72.6377 46.987 72.9715C46.7124 73.3074 46.4601 73.7113 46.3628 74.1242C46.304 74.3757 46.4928 74.7551 46.685 74.9792C46.9224 75.2554 47.0346 75.6543 47.4501 75.7881C47.6903 75.8651 47.6563 76.1335 47.7031 76.3547C47.757 76.6086 47.8278 76.9176 48.2685 76.5987C48.5767 76.3763 48.836 76.6919 48.9648 77.0821Z" fill="black"/>
<path fill-rule="evenodd" clip-rule="evenodd" d="M3.488 70.5486C4.77534 70.0185 5.32871 69.0327 5.87877 68.0746C6.36214 67.2325 6.80285 66.3557 7.16238 65.454C7.52066 64.5535 8.14569 63.7002 7.86693 62.567C7.05262 63.1344 7.12013 64.2192 6.33812 64.9445C6.48143 63.7972 7.07664 62.9108 7.37362 61.7021C6.96273 61.9275 6.81362 62.0091 6.63137 62.1089C6.59617 61.9121 6.5593 61.7059 6.52285 61.5004C6.18238 61.4358 5.84646 61.372 5.44966 61.2966C5.34445 61.4648 5.20652 61.7133 5.0425 61.9436C4.40297 62.8395 4.39924 62.8354 3.23782 63.2483C3.10818 63.2947 2.98682 63.3701 2.86918 63.4447C1.96954 64.013 1.15066 64.6533 0.655692 65.6412C0.472615 66.0065 0.223266 66.6775 0.234449 67.0665C0.236935 67.1576 0.160722 67.2644 0.0944495 67.3415C-0.0745449 67.5374 0.00166845 67.7043 0.176461 67.8033C0.683858 68.0895 0.903799 68.6528 1.35445 68.99C1.54664 69.1337 1.58102 69.3251 1.61581 69.5624C1.66386 69.8855 2.29759 70.3043 2.5925 70.2363C2.77516 70.1941 2.89321 69.8586 3.14214 70.1059C3.27262 70.2359 3.37202 70.3975 3.488 70.5486Z" fill="black"/>
<path fill-rule="evenodd" clip-rule="evenodd" d="M40.0687 44.2239C40.2659 44.2566 40.4726 44.2905 40.758 44.3378C40.6453 44.549 40.565 44.699 40.4809 44.8563C41.0173 45.3927 41.5756 45.9511 42.1513 46.5272C42.2441 46.5272 42.3576 46.5103 42.4645 46.5297C43.7315 46.7642 44.5753 46.0451 45.279 45.1782C45.8286 44.501 46.3012 43.755 46.669 42.9411C46.8985 42.4329 47.1035 41.9648 46.9395 41.2743C46.5551 42.1193 46.2126 42.8715 45.87 43.6241C45.8092 43.6042 45.7483 43.5848 45.687 43.5649C45.7147 43.4216 45.7189 43.2679 45.7744 43.1362C46.0034 42.5919 46.2639 42.0601 46.4797 41.5113C46.5754 41.2681 46.7805 40.9653 46.2581 40.8523C46.097 40.8175 46.0026 40.47 45.8796 40.2641C45.7719 40.0835 45.6675 39.9008 45.5822 39.755C45.0541 39.7066 45.0491 40.1684 44.7198 40.359C44.7964 40.0682 44.8731 39.7774 44.9741 39.3947C44.8051 39.2609 44.5794 39.082 44.3537 38.9026C44.2112 39.0443 44.0223 39.27 43.8471 38.8537C43.657 38.4039 43.3761 38.2287 42.9209 38.524C42.8795 38.551 42.7938 38.5717 42.7664 38.5493C42.2392 38.1148 41.9285 38.5476 41.6845 38.8798C41.1022 39.6739 40.828 40.6274 40.4792 41.5345C40.3972 41.7474 40.2187 42.2473 40.8193 42.2713C40.8532 42.2726 40.8793 42.4594 40.9087 42.5596C40.7837 42.5898 40.5915 42.6868 40.5438 42.6387C40.2071 42.3011 40.0257 42.7419 40.0588 42.8193C40.2613 43.2952 39.7921 43.755 40.0687 44.2239Z" fill="black"/>
<path fill-rule="evenodd" clip-rule="evenodd" d="M44.1592 20.1193C44.0266 20.2518 43.8937 20.3848 43.692 20.5861C43.6551 20.2667 43.6244 20.0033 43.5909 19.7158C43.1262 19.6185 42.6469 19.4959 42.1602 19.4238C41.8662 19.3803 41.5555 19.3816 41.2623 19.4267C41.0386 19.4615 41.2142 19.8782 40.7971 19.9147C40.5275 19.9383 40.3204 20.3964 40.1286 20.7153C39.9728 20.9742 40.206 21.5346 39.6146 21.5011C39.5943 21.8676 39.574 22.2346 39.5528 22.6012C39.5512 22.6368 39.5429 22.672 39.5375 22.7076L37.8592 24.386C37.6794 24.386 37.4889 24.3628 37.307 24.3914C37.0266 24.4365 36.7247 24.7144 36.8684 24.8867C37.1882 25.2699 36.6149 25.5345 36.8423 25.8473C37.7159 26.109 37.9913 26.138 38.7021 26.0138C38.524 26.3986 38.3691 26.7341 38.1744 27.1557C38.2879 27.2647 38.4374 27.5302 38.5849 27.5293C39.5156 27.5223 40.4952 27.7584 41.3248 27.0977C41.5497 26.9184 41.8214 26.778 41.9962 26.5589C42.3951 26.0593 42.7521 25.5263 43.1162 24.9994C43.2956 24.7397 43.4488 24.4614 43.6211 24.1963C43.8879 23.7858 43.8088 23.1943 44.2979 22.9006C44.2238 22.4028 44.5046 22.0263 44.684 21.5967C44.9279 21.0131 44.7767 20.4548 44.1592 20.1193Z" fill="black"/>
<path fill-rule="evenodd" clip-rule="evenodd" d="M79.0213 3.37489C78.581 3.37489 78.2798 3.37447 77.9791 3.37489C77.5761 3.37572 77.14 3.3082 77.0476 3.89057C77.0376 3.95518 76.8869 4.05418 76.8148 4.04382C76.3376 3.97299 76.2138 4.42406 75.9218 4.62246C75.1294 5.16092 75.0126 6.04773 74.8146 6.86785C74.7016 7.33548 74.8527 7.67098 75.385 7.9895C75.9823 8.34696 76.7299 8.56897 77.14 9.21844C77.502 9.22548 77.7981 9.79169 78.221 9.33856C78.2823 9.27311 78.4182 9.25116 78.5188 9.25282C79.9445 9.28015 80.8367 8.46169 81.5818 7.37027C81.96 6.8169 82.4334 6.32234 82.5817 5.64098C82.6426 5.3614 82.6782 5.07477 82.6981 4.78939C82.7052 4.69578 82.6501 4.53341 82.5846 4.5098C82.011 4.30477 81.5939 3.8156 81.0376 3.61637C80.3517 3.37116 79.6181 3.29743 79.0213 3.37489Z" fill="black"/>
<path fill-rule="evenodd" clip-rule="evenodd" d="M80.8322 58.1682C80.6669 58.4279 80.5456 58.6192 80.3095 58.9908C80.2564 58.5973 80.2362 58.4627 80.2208 58.3276C80.1711 57.8799 80.172 57.8807 79.6062 57.8231C79.5353 57.8157 79.4264 57.8252 79.4011 57.785C79.1431 57.3783 78.7401 57.2644 78.3333 57.387C77.8723 57.5257 77.3773 57.6997 77.0186 58.0021C75.6191 59.1817 74.7956 60.7627 74.1561 62.4402C74.0476 62.7264 74.1408 63.0893 74.1408 63.4124C74.3085 63.3937 74.4402 63.3792 74.5724 63.3643C74.5438 63.7694 74.6353 64.0697 75.1092 64.1654C75.2512 64.1944 75.4455 64.4064 75.4596 64.5493C75.5072 65.0373 76.0084 64.7995 76.1832 65.0534C76.4624 64.609 76.9428 65.147 77.2568 64.8293C77.5575 64.5253 77.9692 64.2909 78.168 63.9338C78.6059 63.1473 79.025 62.3288 79.2814 61.4722C79.4123 61.034 79.6066 60.7428 79.9441 60.544C80.4921 60.2222 80.9179 59.8142 81.1855 59.2343C81.4088 58.7501 81.4183 58.7547 80.8322 58.1682Z" fill="black"/>
<path fill-rule="evenodd" clip-rule="evenodd" d="M59.661 45.03C59.661 44.9178 59.6879 44.7616 59.6515 44.6216C59.6271 44.528 59.4668 44.4642 59.4527 44.3743C59.4374 44.2762 59.5525 44.1635 59.5537 44.0566C59.5546 43.9618 59.4212 43.8454 59.4473 43.7754C59.4949 43.6466 59.6018 43.5273 59.7116 43.4378C59.7845 43.3782 59.9058 43.3773 60.0558 43.3368C59.9853 43.5815 59.9286 43.7787 59.8714 43.9763C60.2703 43.7331 60.7135 43.5393 60.5184 42.9532C60.3536 43.0236 60.1916 43.0936 59.9907 43.1798C59.9261 42.4744 60.5801 42.8414 60.832 42.5075C60.4633 42.551 60.2177 42.2971 59.847 42.3464C59.6751 42.3692 59.4514 42.0039 59.188 41.7545C58.8223 42.0531 58.4122 42.3874 57.9326 42.7788C57.8858 42.4926 57.8522 42.2888 57.8116 42.0407C57.2694 41.9359 56.7136 41.8286 56.1515 41.7201C55.8628 42.0888 55.6371 42.4251 55.362 42.7146C55.1234 42.9648 54.7954 43.1317 54.5655 43.3881C53.9169 44.1121 53.6228 45.0263 53.3561 45.9305C53.2604 46.254 53.1552 46.7659 53.7736 46.8525C53.7707 47.4465 54.3969 47.5351 54.6794 47.9116C55.0336 48.383 55.6598 48.4641 56.3358 48.1912C57.3481 47.7824 58.0133 46.9921 58.6599 46.2225C58.9834 45.8369 59.3466 45.4732 59.661 45.03Z" fill="black"/>
<path fill-rule="evenodd" clip-rule="evenodd" d="M41.0452 59.679C40.8629 59.7411 40.6869 59.8007 40.4852 59.8695C40.4442 58.9193 41.4263 58.653 41.5629 57.7782C41.3641 57.866 41.2022 57.9033 41.085 57.9965C40.8969 58.1464 40.7387 58.3328 40.5042 58.5672C40.5842 58.0909 40.6372 57.9816 40.9089 57.6556C40.315 56.9374 40.315 56.9374 39.6137 56.9349C39.2281 57.3694 38.8988 57.9418 38.4047 58.2433C37.8592 58.5768 37.6984 59.1459 37.2963 59.5539C36.9119 59.9445 36.6567 60.4763 36.402 60.9754C36.262 61.2488 36.1431 61.598 36.1887 61.8854C36.2467 62.2487 36.4016 62.7826 36.6584 62.8857C37.0809 63.0559 36.9864 63.3546 37.1194 63.6114C37.3016 63.9622 37.551 64.3035 38.0083 64.3789C38.2754 64.4228 38.5935 64.6266 38.7895 64.5384C39.2662 64.3234 39.7587 64.0496 40.1112 63.6739C40.7764 62.9648 41.3712 62.1849 41.9403 61.3946C42.0832 61.1966 42.0173 60.8487 42.0596 60.4572C41.8699 60.6105 41.7945 60.671 41.6346 60.7998C41.7174 60.2236 41.2138 60.0261 41.0452 59.679Z" fill="black"/>
<path fill-rule="evenodd" clip-rule="evenodd" d="M46.9839 101.108C47.2925 100.939 47.4412 100.857 47.5853 100.777C47.8393 101.695 47.9022 101.743 48.6523 101.412C48.4543 101.873 48.2957 102.242 48.123 102.643C48.3189 102.756 48.5194 102.873 48.7219 102.991C49.0881 102.625 49.4596 102.253 49.8655 101.847C50.1099 102.397 49.4372 102.652 49.5035 103.183C50.107 103.267 50.457 102.857 50.8045 102.479C50.9942 102.273 51.0969 101.985 51.2924 101.786C52.1639 100.901 52.9468 99.9449 53.6766 98.9425C53.742 98.8526 53.8327 98.7806 53.9139 98.7027C54.3538 98.2831 54.8148 97.8776 54.8475 97.1938C54.4085 96.925 54.1753 97.3392 53.8766 97.5955C53.573 97.0931 54.2755 97.026 54.244 96.6557C54.2171 96.2092 53.3676 96.7787 53.5834 96.0489H52.3603C52.0103 96.2954 51.6553 96.5393 51.3074 96.7924C50.9582 97.0463 50.7275 97.4112 50.3 97.6179C49.885 97.8192 49.61 98.2939 49.2446 98.6157C49.0065 98.8257 48.8553 99.1144 48.4746 99.2089C48.1992 99.2768 48.0521 99.6947 47.6338 99.6409C47.5174 99.6255 47.3074 99.836 47.2482 99.9855C47.1351 100.27 47.1003 100.586 46.9839 101.108Z" fill="black"/>
<path fill-rule="evenodd" clip-rule="evenodd" d="M54.7456 25.5581C54.3571 25.5838 54.0887 25.3829 53.7333 25.6393C53.9139 25.7014 54.0448 25.7466 54.1877 25.7958C54.0543 26.2486 53.906 26.6984 53.7971 27.1573C53.7693 27.275 53.8311 27.5073 53.9127 27.5417C54.3658 27.7331 54.5029 28.2206 54.8558 28.4877C55.0119 28.6062 55.246 28.6447 55.4502 28.6679C55.5525 28.6791 55.673 28.5246 55.7753 28.5354C55.9 28.5486 56.0143 28.6576 56.1456 28.7321C56.3395 28.047 56.3295 28.0193 57.0929 27.7592C57.5498 27.6034 57.6446 27.1544 57.9685 26.8719C58.041 27.0264 58.111 27.1756 58.1893 27.3429C58.3032 27.2236 58.495 27.1151 58.4945 27.0074C58.4887 25.6616 58.49 25.6314 59.1042 24.825C59.4505 25.4334 58.787 25.7855 58.7509 26.3807C58.9154 26.355 59.161 26.3741 59.1896 26.3041C59.4783 25.6024 59.9182 24.9397 59.4671 24.098C59.3271 23.8367 59.3018 23.6996 58.9874 23.6942C58.7936 23.6913 58.5853 23.5774 58.4125 23.468C57.9648 23.1851 57.5336 22.877 57.0552 22.551C56.9458 22.7142 56.8448 22.8654 56.8692 22.8285C56.4919 23.0915 56.0984 22.3832 56.0354 23.1218C56.0172 23.3313 55.5487 22.8314 55.5487 23.3802C55.5487 23.5923 55.159 23.8048 54.9631 24.0007C55.0331 24.1821 55.0993 24.3553 55.166 24.5284C55.1105 24.5669 55.055 24.6054 54.9991 24.644C54.9009 24.4571 54.8028 24.2703 54.6789 24.0355C54.4772 24.3785 54.36 24.5769 54.2063 24.8374C54.3732 25.0602 54.5592 25.3092 54.7456 25.5581Z" fill="black"/>
<path fill-rule="evenodd" clip-rule="evenodd" d="M92.7152 59.2989C92.9753 58.9709 93.1812 58.7112 93.4098 58.4221C93.5262 58.6602 93.6003 58.8114 93.6968 59.0086C94.1313 58.8048 94.4238 58.4684 94.6727 58.1176C95.2228 57.3418 95.6481 56.4861 96.2057 55.709C96.5486 55.2315 96.5689 54.6313 96.4335 54.01C95.9186 53.9056 95.8072 54.5108 95.3781 54.6636V53.5639C94.5671 53.4496 93.7855 53.3394 93.0689 53.2387C92.3171 53.9139 91.8222 54.6433 91.4713 55.4858C91.2709 55.9658 90.8579 56.3262 90.7324 56.8754C90.6827 57.0925 90.961 57.3845 90.6185 57.546C90.6127 57.5485 90.7204 57.8128 90.7237 57.8115C91.2829 57.6098 91.4709 58.4208 92.009 58.2908C92.0438 58.2821 92.139 58.49 92.1925 58.6039C92.2517 58.729 92.2782 58.8723 92.3511 58.9874C92.4049 59.0736 92.5093 59.1274 92.7152 59.2989Z" fill="black"/>
<path fill-rule="evenodd" clip-rule="evenodd" d="M67.6954 72.9607C67.5339 73.3343 67.4163 73.6064 67.2481 73.9945C67.1412 73.7116 67.0919 73.582 67.0398 73.4445C66.9892 73.4755 66.9064 73.4971 66.8956 73.5377C66.7937 73.9249 66.6098 74.2559 66.3302 74.55C66.1629 74.726 66.0419 74.9526 65.928 75.1709C65.7271 75.5573 65.4422 75.8212 64.9808 75.9032C64.9083 75.7565 64.8337 75.6049 64.7989 75.5345C64.5852 75.6944 64.3528 75.8688 64.1797 75.9984C64.1797 76.1393 64.1648 76.1997 64.1818 76.2109C64.3864 76.3439 64.5956 76.4694 64.7865 76.5862C64.731 76.8948 64.6813 77.1743 64.6063 77.5931C64.9447 77.4287 65.1299 77.3384 65.3966 77.2083C65.5445 77.5057 65.6928 77.8048 65.8522 78.1262C66.0038 78.1432 66.1815 78.1639 66.399 78.1883V78.6903C66.9664 79.1153 67.4308 79.0581 67.9228 78.6096C68.4588 78.1208 69.0631 77.7078 69.6099 77.1259C69.38 76.9739 69.158 76.8272 68.9144 76.6665C69.0387 76.2109 69.2619 75.8042 69.5838 75.4065C69.9056 75.0085 70.0821 74.4924 70.3136 74.0442C69.9827 73.6362 69.7213 73.9382 69.4177 74.0658C69.4048 73.9519 69.3522 73.8305 69.3883 73.7485C69.6148 73.239 69.5167 72.9872 69.0366 72.9652C68.586 72.9441 68.1337 72.9607 67.6954 72.9607Z" fill="black"/>
<path fill-rule="evenodd" clip-rule="evenodd" d="M99.845 77.4273C99.6557 77.7073 99.5012 77.9363 99.3082 78.2217C99.2581 78.0656 99.1893 77.9649 99.2051 77.8808C99.2821 77.4729 99.3819 77.0694 99.4863 76.6092H98.8298C98.773 76.7273 98.7035 76.8718 98.5659 77.1581V76.2352C98.4375 76.1901 98.3282 76.1764 98.2516 76.1197C98.0764 75.9892 97.7988 75.693 97.7703 75.7162C97.4832 75.9523 97.1287 75.8098 96.8503 75.9167C96.4353 76.0757 96.041 76.3533 96.0464 76.8826C96.048 77.0408 96.2576 77.2169 96.2261 77.3498C96.2004 77.4579 95.9105 77.482 95.8239 77.6042C95.7531 77.704 95.7473 77.9715 95.8202 78.03C96.113 78.2636 96.0484 78.5659 96.0286 78.8492C96.0033 79.203 96.1582 79.4179 96.4722 79.507C96.8077 79.6023 96.8859 79.8172 96.9564 80.1382C97.0562 80.5918 97.3673 80.8933 97.8933 80.871C98.0751 80.8635 98.2636 80.8676 98.44 80.9062C98.889 81.0043 99.4548 80.8966 99.5948 80.5673C99.9365 79.7638 100.431 79.0046 100.339 78.0589C100.303 77.6903 100.081 77.5855 99.845 77.4273Z" fill="black"/>
<path fill-rule="evenodd" clip-rule="evenodd" d="M63.62 57.1049C63.3391 57.1873 63.0459 57.2731 62.6855 57.3787C62.5327 57.0146 62.4875 56.665 62.8098 56.3399C62.4138 55.9799 62.1504 56.5226 61.7623 56.4637C61.7262 56.2678 61.6877 56.0615 61.6504 55.8594C61.3464 55.5339 61.0722 56.1344 60.7048 55.8511C60.3291 55.5612 60.2343 56.1871 59.9149 56.2587C59.7356 56.2989 59.5678 56.4857 59.4399 56.6431C59.0157 57.1633 58.9494 57.8994 58.3783 58.3537C58.2416 58.4623 58.3145 58.8355 58.2838 59.1672C58.9171 58.8562 58.9557 59.861 59.5658 59.6228C59.7534 59.9265 59.5761 60.4769 60.2625 60.5428C60.3349 60.4194 60.4484 60.2259 60.61 59.9501C60.7475 60.2371 60.8142 60.3763 60.8825 60.5196C61.2669 60.6107 61.4429 60.2794 61.5693 60.0685C61.9889 59.3665 62.5323 58.8292 63.2352 58.4092C63.6676 58.1508 63.9049 57.7295 63.62 57.1049Z" fill="black"/>
<path fill-rule="evenodd" clip-rule="evenodd" d="M69.116 27.0934C69.6491 27.5109 70.0422 27.819 70.5496 28.2171H71.4985C71.868 27.6828 71.9881 26.9799 72.5328 26.5388C72.59 25.7948 73.1044 25.3338 73.5513 24.8153C73.6934 24.65 73.6627 24.336 73.7232 24.0287C73.56 23.9831 73.3985 23.9864 73.314 23.9073C72.4471 23.0967 71.6302 23.5524 70.9394 24.1053C70.3495 24.5771 69.8517 25.2013 69.4337 25.8367C69.1968 26.1966 69.203 26.7164 69.116 27.0934Z" fill="black"/>
</svg>
