<svg width="68" height="64" viewBox="0 0 68 64" fill="none" xmlns="http://www.w3.org/2000/svg">
<path opacity="0.24" d="M0.666687 34.9333V29.0667C0.666687 25.6 3.50002 22.7333 7.00002 22.7333C13.0334 22.7333 15.5 18.4667 12.4667 13.2333C10.7334 10.2333 11.7667 6.33332 14.8 4.59999L20.5667 1.29999C23.2 -0.266675 26.6 0.666659 28.1667 3.29999L28.5334 3.93332C31.5334 9.16666 36.4667 9.16666 39.5 3.93332L39.8667 3.29999C41.4334 0.666659 44.8334 -0.266675 47.4667 1.29999L53.2334 4.59999C56.2667 6.33332 57.3 10.2333 55.5667 13.2333C52.5334 18.4667 55 22.7333 61.0334 22.7333C64.5 22.7333 67.3667 25.5667 67.3667 29.0667V34.9333C67.3667 38.4 64.5334 41.2667 61.0334 41.2667C55 41.2667 52.5334 45.5333 55.5667 50.7667C57.3 53.8 56.2667 57.6667 53.2334 59.4L47.4667 62.7C44.8334 64.2667 41.4334 63.3333 39.8667 60.7L39.5 60.0667C36.5 54.8333 31.5667 54.8333 28.5334 60.0667L28.1667 60.7C26.6 63.3333 23.2 64.2667 20.5667 62.7L14.8 59.4C11.7667 57.6667 10.7334 53.7667 12.4667 50.7667C15.5 45.5333 13.0334 41.2667 7.00002 41.2667C3.50002 41.2667 0.666687 38.4 0.666687 34.9333Z" fill="#05796B"/>
</svg>
