<svg width="74" height="68" viewBox="0 0 74 68" fill="none" xmlns="http://www.w3.org/2000/svg">
<path fill-rule="evenodd" clip-rule="evenodd" d="M68.5287 36.5995C66.7327 42.9995 65.8267 49.7001 64.9967 56.2001C64.8227 57.6001 65.7937 58.8999 67.1617 58.9999C68.5307 59.1999 69.7827 58.1993 69.9567 56.8993C70.7557 50.5993 71.6107 44.0999 73.3397 37.9999C73.7147 36.6999 72.9427 35.2993 71.6147 34.8993C70.2877 34.4993 68.9047 35.2995 68.5287 36.5995Z" fill="#05796B"/>
<path fill-rule="evenodd" clip-rule="evenodd" d="M43.0648 25.2003C32.5538 35.5003 23.3958 47.1003 12.6028 57.2003C11.5948 58.1003 11.5408 59.7003 12.4818 60.7003C13.4238 61.7003 15.0078 61.7999 16.0158 60.7999C26.8398 50.6999 36.0278 39.0999 46.5698 28.7999C47.5538 27.7999 47.5678 26.2003 46.5998 25.2003C45.6328 24.3003 44.0488 24.2003 43.0648 25.2003Z" fill="#05796B"/>
<path fill-rule="evenodd" clip-rule="evenodd" d="M10.6358 5.89992C16.6518 5.59992 22.6678 5.30051 28.6848 5.00051C30.0628 5.00051 31.1268 3.79992 31.0598 2.39992C30.9918 0.999924 29.8188 0.000509739 28.4398 0.000509799C22.4138 0.30051 16.3888 0.599924 10.3638 0.899925C8.98576 0.999925 7.92876 2.20012 8.00376 3.60012C8.07876 4.90012 9.25876 5.99992 10.6358 5.89992Z" fill="#05796B"/>
</svg>
